<svg width="135" height="135" viewBox="0 0 135 135" fill="none" xmlns="http://www.w3.org/2000/svg">
<path d="M135 67.5C135 30.2208 104.779 0 67.5 0C30.2208 0 0 30.2208 0 67.5C0 104.779 30.2208 135 67.5 135C104.779 135 135 104.779 135 67.5Z" fill="#F6F6F6"/>
<path style="mix-blend-mode:multiply" d="M133.925 75.1033C133.925 75.1033 96.6601 94.9139 95.6915 95.3633C80.2843 102.533 58.1072 103.781 39.4149 94.185C22.8794 85.6976 29.8192 69.5715 36.7189 65.7971L80.0646 44.0593L133.925 75.1033Z" fill="url(#paint0_linear_10283_3000)"/>
<path d="M29 78.2785C29 66.6458 46.9735 57.2197 69.1706 57.2197C91.3677 57.2197 109.331 66.6458 109.331 78.2785C109.331 89.9113 91.3577 99.3274 69.1706 99.3274C46.9835 99.3274 29 89.9013 29 78.2785Z" fill="#C9C9C9"/>
<path d="M31.2069 74.9135C31.2069 63.77 48.1818 54.7234 69.1507 54.7234C90.1197 54.7234 107.095 63.77 107.095 74.9135C107.095 86.057 90.1197 95.1136 69.1507 95.1136C48.1818 95.1136 31.2069 86.067 31.2069 74.9135Z" fill="#F3F3F3"/>
<path d="M104.408 71.6484C104.253 62.3989 100.469 53.5809 93.8731 47.0948C87.277 40.6088 78.3965 36.9741 69.1457 36.9741C59.8949 36.9741 51.0144 40.6088 44.4183 47.0948C37.8222 53.5809 34.0386 62.3989 33.8829 71.6484C33.9294 72.6813 34.0529 73.7093 34.2524 74.7239C35.5005 79.327 39.8441 83.381 46.1648 86.2668C60.8778 92.3165 77.3837 92.3165 92.0967 86.2668C98.4173 83.381 102.771 79.2771 104.009 74.7239C104.264 73.8507 104.402 72.9474 104.418 72.0378C104.448 71.908 104.418 71.7782 104.408 71.6484Z" fill="#DADADA"/>
<path d="M67.3333 90.2508C62.6576 87.0838 59.4265 82.194 58.3467 76.6509C58.1669 75.6524 58.0672 73.1761 58.0672 73.0263C58.2569 57.4993 63.8885 44.0692 72.1163 37.1395C71.1178 37.0596 70.1193 37.0197 69.1207 37.0197C59.8897 37.039 51.034 40.6758 44.4537 47.1497C37.8733 53.6236 34.0927 62.4189 33.9229 71.6484C33.9694 72.6813 34.0929 73.7093 34.2923 74.7238C35.5405 79.327 39.8841 83.381 46.2047 86.2667C53.1445 89.2503 60.6182 90.7926 68.1722 90.8C67.8726 90.6202 67.593 90.4405 67.3333 90.2508Z" fill="#C9C9C9"/>
<path d="M93.8841 83.9102C87.2102 86.7883 80.0026 88.2209 72.7354 88.114C64.6474 88.114 47.2332 85.4779 44.4673 73.236C44.3005 72.2946 44.187 71.3445 44.1277 70.3902C44.4572 52.6465 55.0016 38.3477 72.7354 38.3477C76.9197 38.3464 81.0642 39.1604 84.9373 40.7442C79.6092 38.0873 73.6955 36.822 67.7468 37.0663C61.7981 37.3106 56.0079 39.0565 50.9157 42.1414C45.8234 45.2262 41.5948 49.5496 38.6236 54.709C35.6523 59.8683 34.0353 65.6957 33.9229 71.6484C33.9694 72.6813 34.0929 73.7093 34.2923 74.7238C35.5405 79.327 39.8841 83.381 46.2047 86.2667C60.9178 92.3165 77.4237 92.3165 92.1367 86.2667C97.7384 83.7105 101.782 80.2756 103.5 76.2815C101.613 79.2671 98.2676 81.8932 93.8841 83.9102Z" fill="url(#paint1_linear_10283_3000)"/>
<path d="M65.546 40.2648V42.182C65.546 43.2404 67.1536 44.0991 69.1506 44.0991C71.1476 44.0991 72.7452 43.2404 72.7452 42.182V40.2648H65.546Z" fill="url(#paint2_linear_10283_3000)"/>
<path d="M65.546 40.2649C65.546 39.2065 67.1536 38.3478 69.1506 38.3478C71.1476 38.3478 72.7452 39.2065 72.7452 40.2649C72.7452 41.3234 71.1377 42.1821 69.1506 42.1821C67.1635 42.1821 65.546 41.3234 65.546 40.2649Z" fill="#BCCCCC"/>
<path d="M75.3114 36.1609C75.3133 37.3822 74.9528 38.5767 74.2755 39.593C73.5982 40.6093 72.6347 41.4018 71.5067 41.8701C70.3787 42.3384 69.1371 42.4614 67.9391 42.2236C66.7411 41.9858 65.6408 41.3979 64.7772 40.5343C63.9135 39.6707 63.3256 38.5703 63.0878 37.3723C62.85 36.1743 62.9731 34.9327 63.4414 33.8048C63.9097 32.6768 64.7021 31.7131 65.7184 31.0358C66.7347 30.3585 67.9292 29.998 69.1506 30C70.7837 30.0026 72.3492 30.6526 73.504 31.8074C74.6588 32.9622 75.3087 34.5277 75.3114 36.1609Z" fill="url(#paint3_linear_10283_3000)"/>
<path d="M74.6025 35.412C74.6044 36.3821 74.3186 37.331 73.7811 38.1386C73.2435 38.9461 72.4786 39.5761 71.5829 39.9487C70.6872 40.3213 69.7011 40.4198 68.7494 40.2318C67.7978 40.0437 66.9232 39.5776 66.2366 38.8923C65.5499 38.207 65.082 37.3335 64.892 36.3822C64.702 35.4309 64.7985 34.4446 65.1693 33.5481C65.5401 32.6517 66.1684 31.8854 66.9749 31.3462C67.7813 30.8071 68.7296 30.5193 69.6997 30.5193C70.9983 30.5193 72.2438 31.0345 73.163 31.9517C74.0821 32.869 74.5998 34.1135 74.6025 35.412Z" fill="#DADADA"/>
<g style="mix-blend-mode:soft-light">
<path d="M73.664 33.2453C73.664 33.5952 73.5601 33.9373 73.3654 34.2282C73.1708 34.519 72.8942 34.7456 72.5707 34.879C72.2472 35.0125 71.8913 35.0469 71.5482 34.9779C71.205 34.9089 70.8901 34.7396 70.6434 34.4914C70.3966 34.2432 70.2291 33.9274 70.162 33.5839C70.095 33.2404 70.1313 32.8847 70.2666 32.562C70.4019 32.2392 70.6301 31.9639 70.922 31.7709C71.214 31.5779 71.5567 31.4759 71.9066 31.4779C72.1383 31.4779 72.3675 31.5237 72.5814 31.6126C72.7953 31.7015 72.9895 31.8319 73.1528 31.9961C73.3162 32.1604 73.4454 32.3553 73.5331 32.5697C73.6209 32.784 73.6654 33.0136 73.664 33.2453Z" fill="#E7E7E7"/>
</g>
<path d="M69.7997 36.2109C70.2408 36.2109 70.5984 35.8533 70.5984 35.4121C70.5984 34.9709 70.2408 34.6133 69.7997 34.6133C69.3585 34.6133 69.0008 34.9709 69.0008 35.4121C69.0008 35.8533 69.3585 36.2109 69.7997 36.2109Z" fill="white"/>
<path d="M79.3256 42.921C80.2298 42.9909 81.1184 43.1962 81.9617 43.5301C82.3711 43.6898 82.7805 43.8795 83.1899 44.0792C83.5992 44.279 83.9687 44.5086 84.3482 44.7483C85.8625 45.7287 87.1883 46.9734 88.2624 48.4228L88.6617 48.972C88.7915 49.1517 88.9015 49.3514 89.0213 49.5511C89.251 49.9406 89.4805 50.33 89.6802 50.7294C90.0955 51.5434 90.4299 52.3963 90.6788 53.2756C91.1724 55.0152 91.2341 56.8489 90.8585 58.6177C90.579 58.2383 90.3393 57.8688 90.1197 57.4994C89.9 57.1299 89.7102 56.7604 89.4606 56.411C89.211 56.0615 89.0212 55.712 88.8215 55.3625C88.6218 55.0131 88.3722 54.6835 88.1725 54.364C87.7731 53.685 87.3038 53.046 86.8944 52.367L86.2154 51.3685C86.0057 51.0389 85.766 50.7394 85.5364 50.4298C84.6177 49.1817 83.6592 47.9635 82.6208 46.7353C81.5823 45.5071 80.4739 44.3289 79.3256 42.921Z" fill="white"/>
<path d="M92.0866 62.0326C92.4683 62.0222 92.8483 62.0875 93.2048 62.2246C93.5612 62.3617 93.887 62.5679 94.1634 62.8314C94.6597 63.295 95.0052 63.8971 95.1548 64.5596C95.3043 65.222 95.2512 65.9141 95.0023 66.5459C94.8625 66.9016 94.6525 67.2255 94.3849 67.4983C94.1173 67.771 93.7975 67.9871 93.4445 68.1336C93.0152 67.6279 92.6247 67.0905 92.2762 66.526C92.0561 66.1476 91.8881 65.7412 91.777 65.3178C91.6909 64.8806 91.6674 64.4335 91.7071 63.9897C91.7783 63.3279 91.9053 62.6732 92.0866 62.0326Z" fill="white"/>
<defs>
<linearGradient id="paint0_linear_10283_3000" x1="68.0325" y1="97.1207" x2="95.5717" y2="52.2471" gradientUnits="userSpaceOnUse">
<stop offset="0.13" stop-color="#C9C9C9"/>
<stop offset="0.89" stop-color="white"/>
</linearGradient>
<linearGradient id="paint1_linear_10283_3000" x1="25.6751" y1="87.0456" x2="112.347" y2="43.7197" gradientUnits="userSpaceOnUse">
<stop stop-color="#DE8000"/>
<stop offset="0.35" stop-color="#C85384"/>
<stop offset="1" stop-color="#D93B00"/>
</linearGradient>
<linearGradient id="paint2_linear_10283_3000" x1="66.2849" y1="49.1816" x2="75.3115" y2="24.3984" gradientUnits="userSpaceOnUse">
<stop stop-color="#DE8000"/>
<stop offset="0.35" stop-color="#C85384"/>
<stop offset="1" stop-color="#D93B00"/>
</linearGradient>
<linearGradient id="paint3_linear_10283_3000" x1="64.6272" y1="48.5725" x2="73.6539" y2="23.7892" gradientUnits="userSpaceOnUse">
<stop stop-color="#DE8000"/>
<stop offset="0.35" stop-color="#C85384"/>
<stop offset="1" stop-color="#D93B00"/>
</linearGradient>
</defs>
</svg>
