<svg width="135" height="135" viewBox="0 0 135 135" fill="none" xmlns="http://www.w3.org/2000/svg">
<path d="M135 67.5C135 30.2208 104.779 0 67.5 0C30.2208 0 0 30.2208 0 67.5C0 104.779 30.2208 135 67.5 135C104.779 135 135 104.779 135 67.5Z" fill="#F6F6F6"/>
<path style="mix-blend-mode:multiply" d="M83.3165 90.2063L58.1039 105.394L68.109 117.556H79.1826L104.395 102.378L83.3165 90.2063Z" fill="url(#paint0_linear_10283_2869)"/>
<path d="M68.1092 93.222V117.556L47.0304 105.394V81.05L62.2179 89.817L64.9239 91.3847L68.1092 93.222Z" fill="#FBD45C"/>
<g style="mix-blend-mode:color">
<path d="M68.1092 93.222V117.556L47.0304 105.394V81.05L62.2179 89.817L64.9239 91.3847L68.1092 93.222Z" fill="white"/>
</g>
<path d="M58.9228 112.254L56.2168 110.696V86.3522L58.9228 87.9198V112.254Z" fill="url(#paint1_linear_10283_2869)"/>
<path d="M64.9239 91.3847V98.8636L62.2179 97.3059V89.817L64.9239 91.3847Z" fill="url(#paint2_linear_10283_2869)"/>
<path d="M89.1878 105.394L68.1091 117.556V93.222L89.1878 81.05V105.394Z" fill="#E79B00"/>
<g style="mix-blend-mode:color">
<path d="M89.1878 105.394L68.1091 117.556V93.222L89.1878 81.05V105.394Z" fill="white"/>
</g>
<path d="M80.0014 110.696L77.2954 112.254V87.9198L80.0014 86.3522V110.696Z" fill="url(#paint3_linear_10283_2869)"/>
<path d="M68.1092 93.222L47.0304 81.05L68.1092 68.8781L89.1879 81.05L68.1092 93.222Z" fill="#FBD45C"/>
<g style="mix-blend-mode:color">
<path d="M68.1092 93.222L47.0304 81.05L68.1092 68.8781L89.1879 81.05L68.1092 93.222Z" fill="white"/>
</g>
<path d="M58.9228 87.9198L56.2168 86.3521L77.2956 74.1801L80.0015 75.7478L58.9228 87.9198Z" fill="url(#paint4_linear_10283_2869)"/>
<path d="M80.9202 84.2751L70.4657 82.7174L70.915 79.7818L81.3695 81.3495L80.9202 84.2751Z" fill="url(#paint5_linear_10283_2869)"/>
<path d="M64.9239 91.3847L62.2179 89.817L64.9239 83.4065L68.4486 82.8074L64.9239 91.3847Z" fill="url(#paint6_linear_10283_2869)"/>
<path d="M78.1142 67.4601C78.1142 67.4601 75.9675 67.6098 75.8476 68.4586C75.2693 71.7307 73.5499 74.6919 70.9948 76.8162L70.1461 82.1184C70.1461 82.1184 71.7137 81.2496 74.3299 79.7019C76.946 78.1542 80.0314 73.9105 80.1612 70.4756C80.2911 67.0407 78.1142 67.4601 78.1142 67.4601Z" fill="url(#paint7_linear_10283_2869)"/>
<path d="M76.4867 68.0193C76.847 67.7555 77.2648 67.5809 77.7056 67.5097C78.1465 67.4385 78.5979 67.4729 79.0229 67.6099L74.6494 65.2334L74.9889 69.1576C75.4416 68.7205 75.9444 68.3384 76.4867 68.0193Z" fill="url(#paint8_linear_10283_2869)"/>
<path d="M70.9949 76.7963L71.0647 76.3569C71.6685 73.2019 73.3831 70.3678 75.8976 68.3688C76.1971 65.503 74.6195 64.2848 72.243 65.6628C69.4116 67.6228 67.4641 70.6174 66.821 74.0004L65.9124 79.7918L70.4257 77.1857C70.6054 77.0659 70.7951 76.9361 70.9949 76.7963Z" fill="url(#paint9_linear_10283_2869)"/>
<path d="M65.9023 79.7818L70.1461 82.0984L70.9948 76.7963L67.0407 77.7049L65.9023 79.7818Z" fill="url(#paint10_linear_10283_2869)"/>
<path d="M67.7495 93.4316C67.6756 93.4304 67.6032 93.4098 67.5398 93.3717L47.3098 81.689C47.2134 81.6344 47.1425 81.5439 47.1126 81.4373C47.0827 81.3307 47.0961 81.2165 47.1501 81.1198C47.1769 81.0719 47.2132 81.0299 47.2566 80.9963C47.3 80.9627 47.3498 80.9382 47.4029 80.9242C47.456 80.9103 47.5114 80.9071 47.5657 80.915C47.6201 80.9228 47.6723 80.9416 47.7192 80.97L67.9592 92.6527C68.0071 92.6796 68.0491 92.7158 68.0827 92.7593C68.1163 92.8027 68.1408 92.8524 68.1548 92.9055C68.1687 92.9586 68.1719 93.014 68.164 93.0684C68.1562 93.1227 68.1375 93.1749 68.109 93.2219C68.0718 93.2844 68.0192 93.3365 67.9563 93.3732C67.8935 93.4099 67.8223 93.43 67.7495 93.4316Z" fill="white"/>
<path d="M56.2168 75.7478L58.9228 74.1801L80.0015 86.3521L77.2956 87.9198L56.2168 75.7478Z" fill="url(#paint11_linear_10283_2869)"/>
<path d="M68.3787 80.7005H68.3288C68.2656 80.684 68.2114 80.6434 68.1778 80.5874C68.1442 80.5314 68.1339 80.4645 68.149 80.401L75.7977 57.8244C75.8123 57.7622 75.8509 57.7083 75.9053 57.6746C75.9596 57.6409 76.0251 57.6301 76.0873 57.6447C76.1495 57.6593 76.2035 57.698 76.2372 57.7523C76.2709 57.8066 76.2816 57.872 76.267 57.9343L68.6184 80.4909C68.611 80.5491 68.5826 80.6026 68.5384 80.6413C68.4942 80.6799 68.4374 80.701 68.3787 80.7005Z" fill="#E2E2E2"/>
<path d="M68.3787 80.7005C68.3472 80.6992 68.3163 80.6917 68.2877 80.6785C68.2591 80.6652 68.2334 80.6465 68.2121 80.6233C68.1908 80.6001 68.1742 80.573 68.1634 80.5434C68.1526 80.5138 68.1477 80.4823 68.149 80.4509L70.0262 43.7353C70.0262 43.6717 70.0515 43.6107 70.0965 43.5658C70.1414 43.5209 70.2023 43.4956 70.2659 43.4956C70.3294 43.4956 70.3904 43.5209 70.4354 43.5658C70.4803 43.6107 70.5055 43.6717 70.5055 43.7353L68.6283 80.4509C68.6314 80.4844 68.627 80.5182 68.6156 80.5499C68.6041 80.5816 68.5858 80.6104 68.562 80.6342C68.5382 80.658 68.5094 80.6763 68.4778 80.6878C68.4461 80.6992 68.4122 80.7036 68.3787 80.7005Z" fill="#E2E2E2"/>
<path d="M68.3787 80.7004C68.3221 80.6993 68.2675 80.6789 68.2239 80.6426C68.1804 80.6063 68.1504 80.5563 68.1391 80.5007L61.7985 52.8816C61.7928 52.8501 61.7935 52.8178 61.8005 52.7865C61.8075 52.7552 61.8207 52.7257 61.8393 52.6997C61.8579 52.6736 61.8816 52.6515 61.9089 52.6347C61.9362 52.618 61.9666 52.6069 61.9982 52.602C62.0299 52.5948 62.0627 52.5943 62.0945 52.6007C62.1264 52.6071 62.1565 52.6202 62.1829 52.639C62.2093 52.6579 62.2314 52.6822 62.2478 52.7102C62.2642 52.7383 62.2744 52.7694 62.2778 52.8017L68.6184 80.4208C68.6273 80.4841 68.6115 80.5484 68.5743 80.6004C68.5372 80.6524 68.4815 80.6882 68.4187 80.7004H68.3787Z" fill="#E2E2E2"/>
<path d="M75.688 37.6642C75.6918 34.9544 74.9185 32.3004 73.4598 30.0167C72.001 27.7331 69.918 25.9156 67.4577 24.7799C64.9975 23.6441 62.2631 23.2376 59.5788 23.6087C56.8946 23.9797 54.373 25.1127 52.3131 26.8733C50.2532 28.6339 48.7414 30.9483 47.9568 33.542C47.1723 36.1358 47.148 38.9001 47.8868 41.5072C48.6255 44.1143 50.0964 46.4549 52.125 48.2515C54.1537 50.0481 56.6549 51.2253 59.3322 51.6435L58.9228 52.8317C58.793 53.291 59.0326 53.7703 59.6417 54.1198C60.2057 54.4089 60.8303 54.5597 61.4641 54.5597C62.0978 54.5597 62.7224 54.4089 63.2864 54.1198C63.8955 53.7703 64.1351 53.291 64.0053 52.8317L63.6159 51.6734C66.9724 51.1712 70.0371 49.4808 72.2526 46.9098C74.4681 44.3388 75.6871 41.0581 75.688 37.6642Z" fill="url(#paint12_linear_10283_2869)"/>
<path d="M74.969 34.8584C74.969 37.5087 74.2858 40.1142 72.9853 42.4235C71.6849 44.7328 69.811 46.6679 67.5447 48.0419C65.2784 49.4159 62.6962 50.1825 60.0473 50.2677C57.3984 50.3529 54.7722 49.7537 52.4223 48.5282C50.7626 47.1315 49.446 45.3722 48.574 43.386C47.7021 41.3998 47.2982 39.2398 47.3934 37.0727C47.4887 34.9057 48.0806 32.7895 49.1234 30.8874C50.1662 28.9854 51.6321 27.3484 53.408 26.1027C55.1839 24.8571 57.2222 24.0361 59.3657 23.7032C61.5091 23.3703 63.7005 23.5343 65.7705 24.1826C67.8405 24.8309 69.7339 25.9461 71.3045 27.4423C72.8752 28.9384 74.0811 30.7754 74.8292 32.8114C74.9211 33.4899 74.9678 34.1737 74.969 34.8584Z" fill="url(#paint13_linear_10283_2869)"/>
<g style="mix-blend-mode:multiply">
<path d="M68.0291 25.0928C68.5788 25.392 69.1091 25.7255 69.6168 26.0914C69.1091 25.7255 68.5788 25.392 68.0291 25.0928Z" fill="#E2E2E2"/>
<path d="M69.9064 26.2612C70.3535 26.5988 70.7834 26.9588 71.1944 27.3396C70.7834 26.9588 70.3535 26.5988 69.9064 26.2612Z" fill="#E2E2E2"/>
<path d="M66.072 24.2641C66.6169 24.4527 67.1503 24.6728 67.6697 24.9231C67.1503 24.6728 66.6169 24.4527 66.072 24.2641Z" fill="#E2E2E2"/>
<path d="M72.9019 29.2467C73.2646 29.7358 73.598 30.2459 73.9005 30.7744C73.598 30.2459 73.2646 29.7358 72.9019 29.2467Z" fill="#E2E2E2"/>
<path d="M73.9504 30.8643C74.2569 31.4275 74.5238 32.0114 74.7492 32.6117C74.5238 32.0114 74.2569 31.4275 73.9504 30.8643Z" fill="#E2E2E2"/>
<path d="M72.6623 28.9272C72.2762 28.4415 71.8628 27.9781 71.4241 27.5392C71.8628 27.9781 72.2762 28.4415 72.6623 28.9272Z" fill="#E2E2E2"/>
<path d="M61.5288 23.5052C62.1971 23.5092 62.8644 23.5593 63.5258 23.655C62.8643 23.5597 62.1971 23.5096 61.5288 23.5052Z" fill="#E2E2E2"/>
<path d="M47.3598 37.6642C47.3612 38.1612 47.3879 38.6578 47.4397 39.152C47.3879 38.6578 47.3612 38.1612 47.3598 37.6642Z" fill="#E2E2E2"/>
<path d="M63.9752 23.7249C64.6068 23.8333 65.2306 23.9834 65.8424 24.1742C65.2306 23.9834 64.6068 23.8333 63.9752 23.7249Z" fill="#E2E2E2"/>
<path d="M50.2056 46.1716C50.0059 45.912 49.8161 45.6324 49.6364 45.3528C49.8161 45.6324 50.0059 45.912 50.2056 46.1716Z" fill="#E2E2E2"/>
<path d="M51.4637 47.6295C51.6934 47.8591 51.933 48.0888 52.1827 48.2985C51.933 48.0888 51.6934 47.8391 51.4637 47.6295Z" fill="#E2E2E2"/>
<path d="M51.1142 47.26L50.5151 46.571L51.1142 47.26Z" fill="#E2E2E2"/>
<path d="M75.6878 37.6642C75.6838 36.0263 75.3967 34.4014 74.8391 32.8613C74.9231 33.5237 74.9665 34.1907 74.9689 34.8584C74.9688 37.5067 74.2865 40.1104 72.9878 42.4184C71.6891 44.7265 69.8177 46.661 67.5541 48.0357C65.2904 49.4103 62.7109 50.1787 60.064 50.2667C57.4171 50.3547 54.7922 49.7594 52.4423 48.5381C54.4085 50.1943 56.7917 51.2789 59.332 51.6735L58.9227 52.8317C58.7928 53.2911 59.0325 53.7703 59.6416 54.1198C60.2055 54.409 60.8301 54.5598 61.4639 54.5598C62.0976 54.5598 62.7223 54.409 63.2862 54.1198C63.8953 53.7703 64.135 53.2911 64.0051 52.8317L63.6157 51.6735C66.9722 51.1712 70.0369 49.4808 72.2524 46.9099C74.4679 44.3389 75.6869 41.0581 75.6878 37.6642Z" fill="#E2E2E2"/>
<path d="M47.6693 40.5999C47.6094 40.2704 47.5495 39.9409 47.5096 39.6014C47.5495 39.9409 47.6094 40.2704 47.6693 40.5999Z" fill="#E2E2E2"/>
<path d="M48.0587 42.0277C47.9589 41.7182 47.869 41.4186 47.7891 41.0991C47.869 41.4186 47.9389 41.7182 48.0587 42.0277Z" fill="#E2E2E2"/>
<path d="M48.6379 43.5256C48.4782 43.1861 48.3384 42.8466 48.2086 42.527C48.3384 42.8466 48.4782 43.1861 48.6379 43.5256Z" fill="#E2E2E2"/>
<path d="M49.4167 45.0134C49.1722 44.6195 48.9489 44.2128 48.7477 43.7952C48.9489 44.2128 49.1722 44.6195 49.4167 45.0134Z" fill="#E2E2E2"/>
</g>
<path d="M58.7572 30.1714C61.3152 29.3005 63.0532 27.6085 62.6391 26.3922C62.225 25.1758 59.8157 24.8957 57.2576 25.7665C54.6996 26.6373 52.9616 28.3293 53.3757 29.5457C53.7897 30.7621 56.1991 31.0422 58.7572 30.1714Z" fill="white"/>
<path d="M84.4248 33.051C84.4283 31.392 84.1376 29.7456 83.5661 28.1882C82.7324 25.914 81.3296 23.8915 79.4916 22.3138C77.6536 20.7361 75.4419 19.656 73.0676 19.1765C70.6933 18.6971 68.2357 18.8343 65.9295 19.5751C63.6234 20.3159 61.5456 21.6355 59.8947 23.408C58.2438 25.1805 57.0748 27.3466 56.4995 29.6995C55.9241 32.0523 55.9615 34.5135 56.6081 36.8478C57.2548 39.1821 58.4891 41.3117 60.1931 43.0331C61.8971 44.7546 64.014 46.0104 66.3416 46.6808C66.4091 47.0124 66.5536 47.3234 66.7635 47.5888C66.9734 47.8542 67.2428 48.0665 67.5499 48.2085C68.461 48.6716 69.4685 48.9129 70.4905 48.9129C71.5125 48.9129 72.5201 48.6716 73.4312 48.2085C73.7646 48.0618 74.053 47.8292 74.267 47.5345C74.4811 47.2397 74.613 46.8934 74.6493 46.531C77.493 45.6035 79.9702 43.7999 81.7262 41.3785C83.4822 38.9571 84.4268 36.0421 84.4248 33.051Z" fill="#578FCA"/>
<path d="M83.6961 30.2352C83.6961 32.8855 83.0129 35.4911 81.7125 37.8003C80.412 40.1096 78.5382 42.0447 76.2719 43.4187C74.0056 44.7927 71.4233 45.5593 68.7744 45.6445C66.1255 45.7297 63.4994 45.1306 61.1495 43.905C59.4868 42.5082 58.1673 40.7478 57.2932 38.76C56.419 36.7721 56.0134 34.61 56.1078 32.4404C56.2021 30.2709 56.7939 28.1521 57.8374 26.2476C58.8809 24.3432 60.3481 22.7041 62.1258 21.4569C63.9036 20.2097 65.9442 19.3878 68.0901 19.0548C70.236 18.7217 72.4297 18.8863 74.5019 19.5359C76.574 20.1855 78.4691 21.3027 80.0408 22.8012C81.6125 24.2997 82.8187 26.1394 83.5663 28.1783C83.6553 28.8603 83.6987 29.5474 83.6961 30.2352Z" fill="#D0E6FB"/>
<path d="M67.4757 25.5487C70.0337 24.6778 71.7717 22.9859 71.3576 21.7695C70.9435 20.5531 68.5342 20.273 65.9762 21.1438C63.4181 22.0146 61.6801 23.7066 62.0942 24.923C62.5083 26.1394 64.9177 26.4195 67.4757 25.5487Z" fill="white"/>
<path d="M84.425 33.051C84.4289 30.3412 83.6556 27.6872 82.1968 25.4036C80.7381 23.1199 78.6551 21.3025 76.1948 20.1667C73.7345 19.0309 71.0002 18.6245 68.3159 18.9955C65.6316 19.3666 63.1101 20.4996 61.0502 22.2602C58.9903 24.0208 57.4784 26.3351 56.6939 28.9289C55.9094 31.5226 55.885 34.2869 56.6238 36.894C57.3626 39.5012 58.8335 41.8418 60.8621 43.6384C62.8907 45.4349 65.3919 46.6121 68.0693 47.0303L67.6799 48.1886C67.6352 48.4531 67.6821 48.7249 67.8128 48.9591C67.9435 49.1933 68.1502 49.3759 68.3988 49.4767C68.9656 49.762 69.5915 49.9107 70.2261 49.9107C70.8607 49.9107 71.4866 49.762 72.0534 49.4767C72.6625 49.1272 72.9021 48.6479 72.7723 48.1886L72.3829 47.0303C75.7279 46.5204 78.7804 44.831 80.9888 42.2673C83.1973 39.7037 84.416 36.4347 84.425 33.051Z" fill="url(#paint14_linear_10283_2869)"/>
<path d="M83.6961 30.2352C83.6961 32.8855 83.0129 35.4911 81.7125 37.8003C80.412 40.1096 78.5382 42.0447 76.2719 43.4187C74.0056 44.7927 71.4233 45.5593 68.7744 45.6445C66.1255 45.7297 63.4994 45.1306 61.1495 43.905C59.4868 42.5082 58.1673 40.7478 57.2932 38.76C56.419 36.7721 56.0134 34.61 56.1078 32.4404C56.2021 30.2709 56.7939 28.1521 57.8374 26.2476C58.8809 24.3432 60.3481 22.7041 62.1258 21.4569C63.9036 20.2097 65.9442 19.3878 68.0901 19.0548C70.236 18.7217 72.4297 18.8863 74.5019 19.5359C76.574 20.1855 78.4691 21.3027 80.0408 22.8012C81.6125 24.2997 82.8187 26.1394 83.5663 28.1783C83.6553 28.8603 83.6987 29.5474 83.6961 30.2352Z" fill="url(#paint15_linear_10283_2869)"/>
<path d="M67.4757 25.5487C70.0337 24.6778 71.7717 22.9859 71.3576 21.7695C70.9435 20.5531 68.5342 20.273 65.9762 21.1438C63.4181 22.0146 61.6801 23.7066 62.0942 24.923C62.5083 26.1394 64.9177 26.4195 67.4757 25.5487Z" fill="white"/>
<path d="M89.8769 42.9064C89.8808 40.1967 89.1075 37.5426 87.6487 35.259C86.19 32.9753 84.107 31.1579 81.6467 30.0221C79.1864 28.8863 76.4521 28.4799 73.7678 28.8509C71.0835 29.222 68.5619 30.355 66.502 32.1156C64.4421 33.8762 62.9303 36.1906 62.1457 38.7843C61.3612 41.378 61.3369 44.1423 62.0757 46.7495C62.8145 49.3566 64.2854 51.6972 66.314 53.4938C68.3426 55.2903 70.8438 56.4675 73.5212 56.8857L73.1317 58.054C73.0019 58.5033 73.2416 58.9826 73.8507 59.3421C74.4146 59.6312 75.0393 59.782 75.673 59.782C76.3067 59.782 76.9313 59.6312 77.4953 59.3421C78.1044 58.9826 78.344 58.5033 78.2142 58.054L77.8248 56.8857C81.1725 56.3799 84.2285 54.692 86.4393 52.1277C88.6501 49.5634 89.8696 46.2922 89.8769 42.9064Z" fill="url(#paint16_linear_10283_2869)"/>
<path d="M89.1379 40.0806C89.1379 42.7309 88.4547 45.3365 87.1543 47.6458C85.8538 49.955 83.98 51.8901 81.7137 53.2641C79.4474 54.6381 76.8651 55.4047 74.2162 55.4899C71.5673 55.5751 68.9412 54.976 66.5913 53.7504C64.9316 52.3538 63.6149 50.5944 62.743 48.6082C61.871 46.622 61.4671 44.4621 61.5624 42.295C61.6576 40.1279 62.2495 38.0117 63.2923 36.1096C64.3352 34.2076 65.8011 32.5706 67.577 31.325C69.3528 30.0793 71.3912 29.2584 73.5346 28.9254C75.6781 28.5925 77.8694 28.7565 79.9394 29.4048C82.0095 30.0531 83.9028 31.1684 85.4735 32.6645C87.0441 34.1606 88.25 35.9976 88.9981 38.0337C89.0908 38.7121 89.1376 39.3959 89.1379 40.0806Z" fill="url(#paint17_linear_10283_2869)"/>
<path d="M84.0754 31.5034C84.5248 31.8346 84.9548 32.1913 85.3634 32.5718C84.9548 32.1913 84.5248 31.8346 84.0754 31.5034Z" fill="url(#paint18_linear_10283_2869)"/>
<path d="M82.1883 30.3251C82.7412 30.6242 83.2748 30.9577 83.786 31.3236C83.2748 30.9577 82.7412 30.6242 82.1883 30.3251Z" fill="url(#paint19_linear_10283_2869)"/>
<path d="M78.1442 28.9571C78.7716 29.0703 79.3917 29.2203 80.0015 29.4064C79.3917 29.2203 78.7716 29.0703 78.1442 28.9571Z" fill="url(#paint20_linear_10283_2869)"/>
<path d="M80.2412 29.4963C80.786 29.685 81.3195 29.905 81.8389 30.1553C81.3195 29.905 80.786 29.685 80.2412 29.4963Z" fill="url(#paint21_linear_10283_2869)"/>
<path d="M61.5287 42.8965C61.5311 41.693 61.6888 40.4948 61.9981 39.3317C61.6885 40.4981 61.5308 41.6996 61.5287 42.9064C61.5302 43.4001 61.5568 43.8933 61.6086 44.3842C61.5566 43.89 61.5299 43.3934 61.5287 42.8965Z" fill="url(#paint22_linear_10283_2869)"/>
<path d="M86.8813 34.1694C86.4947 33.6779 86.0779 33.2111 85.6331 32.7715C86.0779 33.2111 86.4947 33.6779 86.8813 34.1694Z" fill="url(#paint23_linear_10283_2869)"/>
<path d="M75.6879 28.7374C76.3567 28.7403 77.0243 28.7937 77.685 28.8972C77.0243 28.7937 76.3567 28.7403 75.6879 28.7374Z" fill="url(#paint24_linear_10283_2869)"/>
<path d="M88.1094 36.0966C88.4076 36.6631 88.6646 37.2504 88.8783 37.8539C88.6646 37.2504 88.4076 36.6631 88.1094 36.0966Z" fill="url(#paint25_linear_10283_2869)"/>
<path d="M87.0609 34.4789C87.4305 34.9632 87.7642 35.4738 88.0595 36.0067C87.7642 35.4738 87.4305 34.9632 87.0609 34.4789Z" fill="url(#paint26_linear_10283_2869)"/>
<path d="M65.2833 52.4922C65.0736 52.2725 64.8839 52.0429 64.6842 51.8032C64.9139 52.0429 65.0736 52.2725 65.2833 52.4922Z" fill="url(#paint27_linear_10283_2869)"/>
<path d="M64.3748 51.4039C64.1751 51.1443 63.9853 50.8647 63.8056 50.5851C63.9853 50.8347 64.1751 51.1443 64.3748 51.4039Z" fill="url(#paint28_linear_10283_2869)"/>
<path d="M65.6328 52.8318C65.8624 53.0614 66.1021 53.2911 66.3517 53.5108C66.1021 53.3211 65.9123 53.0914 65.6328 52.8318Z" fill="url(#paint29_linear_10283_2869)"/>
<path d="M62.1579 38.6929C62.1604 38.6496 62.1604 38.6062 62.1579 38.5629C62.1604 38.6062 62.1604 38.6496 62.1579 38.6929Z" fill="url(#paint30_linear_10283_2869)"/>
<g style="mix-blend-mode:multiply">
<path d="M89.8768 42.9064C89.8738 41.2652 89.5867 39.6368 89.0281 38.0936C89.1122 38.756 89.1556 39.4229 89.1579 40.0906C89.1579 44.1795 87.5336 48.1009 84.6424 50.9922C81.7511 53.8835 77.8297 55.5078 73.7408 55.5078C71.2649 55.5156 68.8245 54.9192 66.6313 53.7703C68.5975 55.4266 70.9807 56.5111 73.5211 56.9057L73.1316 58.074C73.0018 58.5233 73.2415 59.0026 73.8506 59.362C74.4145 59.6512 75.0392 59.802 75.6729 59.802C76.3066 59.802 76.9312 59.6512 77.4952 59.362C78.1043 59.0026 78.3439 58.5233 78.2141 58.074L77.8247 56.9057C81.1758 56.3993 84.2345 54.7086 86.4457 52.1401C88.6569 49.5716 89.8743 46.2956 89.8768 42.9064Z" fill="#E2E2E2"/>
</g>
<path d="M63.5858 50.2555C63.3462 49.8561 63.1165 49.4467 62.9168 49.0273C63.1165 49.4467 63.3462 49.8361 63.5858 50.2555Z" fill="url(#paint31_linear_10283_2869)"/>
<path d="M62.8069 48.7678C62.6472 48.4283 62.5074 48.0788 62.3776 47.7194C62.5074 48.0788 62.6472 48.4283 62.8069 48.7678Z" fill="url(#paint32_linear_10283_2869)"/>
<path d="M61.8384 45.8421C61.7685 45.5126 61.7186 45.1831 61.6686 44.8436C61.7186 45.1731 61.7685 45.5026 61.8384 45.8421Z" fill="url(#paint33_linear_10283_2869)"/>
<path d="M62.2179 47.26C62.128 46.9504 62.0381 46.6509 61.9583 46.3314C62.0381 46.6509 62.128 46.9504 62.2179 47.26Z" fill="url(#paint34_linear_10283_2869)"/>
<path d="M72.9083 35.4043C75.4663 34.5335 77.2043 32.8415 76.7902 31.6251C76.3761 30.4088 73.9668 30.1286 71.4088 30.9995C68.8508 31.8703 67.1127 33.5623 67.5268 34.7787C67.9409 35.995 70.3503 36.2751 72.9083 35.4043Z" fill="white"/>
<path d="M65.9123 79.7918L61.399 82.3979C61.0202 82.6127 60.6183 82.7835 60.2008 82.9072C60.4266 83.5693 60.8065 84.1682 61.3092 84.6546C61.8166 85.051 62.4238 85.2992 63.0637 85.3714C63.7035 85.4437 64.3508 85.3373 64.9338 85.064C66.3817 84.405 70.1561 82.0684 70.1561 82.0684L65.9123 79.7918Z" fill="url(#paint35_linear_10283_2869)"/>
<path d="M64.9138 74.8491L65.9123 79.7818L70.1561 82.0984C70.1561 82.0984 69.4571 78.3439 69.1575 77.2156C68.858 76.0873 68.4186 75.4382 66.5713 74.6694C66.3014 74.5615 66.0092 74.5215 65.7202 74.5528C65.4312 74.5842 65.1543 74.6859 64.9138 74.8491Z" fill="url(#paint36_linear_10283_2869)"/>
<path d="M78.1142 67.4601C78.1142 67.4601 75.9675 67.6098 75.8476 68.4586C75.2693 71.7307 73.5499 74.6919 70.9948 76.8162L70.1461 82.1184C70.1461 82.1184 71.7137 81.2496 74.3299 79.7019C76.946 78.1542 80.0314 73.9105 80.1612 70.4756C80.2911 67.0407 78.1142 67.4601 78.1142 67.4601Z" fill="url(#paint37_linear_10283_2869)"/>
<g style="mix-blend-mode:multiply">
<path d="M78.1142 67.4601C78.1142 67.4601 75.9675 67.6098 75.8476 68.4586C75.2693 71.7307 73.5499 74.6919 70.9948 76.8162L70.1461 82.1184C70.1461 82.1184 71.7137 81.2496 74.3299 79.7019C76.946 78.1542 80.0314 73.9105 80.1612 70.4756C80.2911 67.0407 78.1142 67.4601 78.1142 67.4601Z" fill="#C6C6C6"/>
</g>
<path d="M65.9123 79.7918L61.399 82.3979C61.0202 82.6127 60.6183 82.7835 60.2008 82.9072C60.4266 83.5693 60.8065 84.1682 61.3092 84.6546C61.8166 85.051 62.4238 85.2992 63.0637 85.3714C63.7035 85.4437 64.3508 85.3373 64.9338 85.064C66.3817 84.405 70.1561 82.0684 70.1561 82.0684L65.9123 79.7918Z" fill="url(#paint38_linear_10283_2869)"/>
<path d="M64.9138 74.8491L65.9123 79.7818L70.1561 82.0984C70.1561 82.0984 69.4571 78.3439 69.1575 77.2156C68.858 76.0873 68.4186 75.4382 66.5713 74.6694C66.3014 74.5615 66.0092 74.5215 65.7202 74.5528C65.4312 74.5842 65.1543 74.6859 64.9138 74.8491Z" fill="url(#paint39_linear_10283_2869)"/>
<g style="mix-blend-mode:multiply">
<path d="M65.9123 79.7918L61.399 82.3979C61.0202 82.6127 60.6183 82.7835 60.2008 82.9072C60.4266 83.5693 60.8065 84.1682 61.3092 84.6546C61.8166 85.051 62.4238 85.2992 63.0637 85.3714C63.7035 85.4437 64.3508 85.3373 64.9338 85.064C66.3817 84.405 70.1561 82.0684 70.1561 82.0684L65.9123 79.7918Z" fill="#C6C6C6"/>
</g>
<g style="mix-blend-mode:multiply">
<path d="M64.9138 74.8491L65.9123 79.7818L70.1561 82.0984C70.1561 82.0984 69.4571 78.3439 69.1575 77.2156C68.858 76.0873 68.4186 75.4382 66.5713 74.6694C66.3014 74.5615 66.0092 74.5215 65.7202 74.5528C65.4312 74.5842 65.1543 74.6859 64.9138 74.8491Z" fill="#C6C6C6"/>
</g>
<path d="M60.5004 83.5463C60.3971 83.3324 60.3168 83.1081 60.2608 82.8773L60.2009 82.6276C60.0369 81.1972 60.2887 79.7497 60.9263 78.4587C61.5638 77.1677 62.56 76.0878 63.7955 75.3484C64.2597 75.05 64.7783 74.846 65.3215 74.7484C65.8646 74.6507 66.4217 74.6612 66.9608 74.7793L63.6258 72.8821C63.4875 72.7824 63.3405 72.6955 63.1865 72.6225C62.594 72.3965 61.9562 72.3149 61.3259 72.3844C60.6956 72.4538 60.0909 72.6724 59.5618 73.0219C58.3229 73.7601 57.3241 74.8412 56.6862 76.1347C56.0483 77.4282 55.7986 78.8787 55.9671 80.3111C56.0372 80.7654 56.1991 81.2006 56.4428 81.5903C56.6866 81.98 57.0072 82.316 57.3851 82.5777C57.5126 82.6606 57.6461 82.734 57.7844 82.7974L61.479 84.7944C61.0515 84.4688 60.7146 84.0391 60.5004 83.5463Z" fill="url(#paint40_linear_10283_2869)"/>
<g opacity="0.6">
<path d="M94.2504 114.53C93.9025 114.707 93.5176 114.8 93.1271 114.8C92.7367 114.8 92.3517 114.707 92.0038 114.53C91.8649 114.488 91.7434 114.402 91.6571 114.285C91.5708 114.168 91.5243 114.027 91.5243 113.881C91.5243 113.736 91.5708 113.595 91.6571 113.478C91.7434 113.361 91.8649 113.275 92.0038 113.232C92.3517 113.055 92.7367 112.963 93.1271 112.963C93.5176 112.963 93.9025 113.055 94.2504 113.232C94.3844 113.28 94.5003 113.368 94.5823 113.484C94.6643 113.6 94.7083 113.739 94.7083 113.881C94.7083 114.023 94.6643 114.162 94.5823 114.278C94.5003 114.395 94.3844 114.483 94.2504 114.53Z" fill="url(#paint41_linear_10283_2869)"/>
<path d="M42.6668 101.759C42.0887 102.055 41.4488 102.209 40.7996 102.209C40.1504 102.209 39.5105 102.055 38.9324 101.759C38.7068 101.683 38.5108 101.538 38.372 101.344C38.2331 101.151 38.1585 100.919 38.1585 100.681C38.1585 100.443 38.2331 100.211 38.372 100.017C38.5108 99.8237 38.7068 99.6786 38.9324 99.6024C39.5105 99.307 40.1504 99.153 40.7996 99.153C41.4488 99.153 42.0887 99.307 42.6668 99.6024C42.8924 99.6786 43.0884 99.8237 43.2273 100.017C43.3661 100.211 43.4408 100.443 43.4408 100.681C43.4408 100.919 43.3661 101.151 43.2273 101.344C43.0884 101.538 42.8924 101.683 42.6668 101.759Z" fill="url(#paint42_linear_10283_2869)"/>
<path d="M32.7715 107.281C33.7256 107.281 34.4989 106.834 34.4989 106.283C34.4989 105.731 33.7256 105.284 32.7715 105.284C31.8175 105.284 31.0441 105.731 31.0441 106.283C31.0441 106.834 31.8175 107.281 32.7715 107.281Z" fill="url(#paint43_linear_10283_2869)"/>
<path d="M48.009 115.07C47.5064 115.326 46.9504 115.459 46.3864 115.459C45.8223 115.459 45.2663 115.326 44.7638 115.07C44.571 115 44.4044 114.872 44.2867 114.704C44.1691 114.536 44.1059 114.336 44.1059 114.131C44.1059 113.926 44.1691 113.726 44.2867 113.558C44.4044 113.39 44.571 113.262 44.7638 113.192C45.2663 112.936 45.8223 112.803 46.3864 112.803C46.9504 112.803 47.5064 112.936 48.009 113.192C48.2017 113.262 48.3683 113.39 48.486 113.558C48.6037 113.726 48.6668 113.926 48.6668 114.131C48.6668 114.336 48.6037 114.536 48.486 114.704C48.3683 114.872 48.2017 115 48.009 115.07Z" fill="url(#paint44_linear_10283_2869)"/>
<path d="M44.4043 123.527C45.6837 123.527 46.7209 122.928 46.7209 122.189C46.7209 121.45 45.6837 120.851 44.4043 120.851C43.1249 120.851 42.0877 121.45 42.0877 122.189C42.0877 122.928 43.1249 123.527 44.4043 123.527Z" fill="url(#paint45_linear_10283_2869)"/>
<path d="M59.8215 122.069C59.5427 122.21 59.2349 122.283 58.9228 122.283C58.6106 122.283 58.3028 122.21 58.0241 122.069C57.5248 121.78 57.5248 121.31 58.0241 121.071C58.3028 120.93 58.6106 120.857 58.9228 120.857C59.2349 120.857 59.5427 120.93 59.8215 121.071C60.3207 121.31 60.3207 121.78 59.8215 122.069Z" fill="url(#paint46_linear_10283_2869)"/>
</g>
<defs>
<linearGradient id="paint0_linear_10283_2869" x1="66.0321" y1="120.392" x2="95.6482" y2="88.2592" gradientUnits="userSpaceOnUse">
<stop offset="0.13" stop-color="#C9C9C9"/>
<stop offset="0.89" stop-color="white"/>
</linearGradient>
<linearGradient id="paint1_linear_10283_2869" x1="43.4955" y1="70.0763" x2="97.0059" y2="181.202" gradientUnits="userSpaceOnUse">
<stop stop-color="#DE8000"/>
<stop offset="0.35" stop-color="#C85384"/>
<stop offset="1" stop-color="#D93B00"/>
</linearGradient>
<linearGradient id="paint2_linear_10283_2869" x1="55.6276" y1="99.0833" x2="97.4858" y2="74.11" gradientUnits="userSpaceOnUse">
<stop stop-color="#DE8000"/>
<stop offset="0.35" stop-color="#C85384"/>
<stop offset="1" stop-color="#D93B00"/>
</linearGradient>
<linearGradient id="paint3_linear_10283_2869" x1="88.5186" y1="62.4776" x2="61.9776" y2="161.511" gradientUnits="userSpaceOnUse">
<stop stop-color="#DE8000"/>
<stop offset="0.35" stop-color="#C85384"/>
<stop offset="1" stop-color="#D93B00"/>
</linearGradient>
<linearGradient id="paint4_linear_10283_2869" x1="46.9405" y1="105.614" x2="83.5662" y2="63.1065" gradientUnits="userSpaceOnUse">
<stop stop-color="#DE8000"/>
<stop offset="0.35" stop-color="#C85384"/>
<stop offset="1" stop-color="#D93B00"/>
</linearGradient>
<linearGradient id="paint5_linear_10283_2869" x1="53.4509" y1="95.4386" x2="95.3089" y2="70.4557" gradientUnits="userSpaceOnUse">
<stop stop-color="#DE8000"/>
<stop offset="0.35" stop-color="#C85384"/>
<stop offset="1" stop-color="#D93B00"/>
</linearGradient>
<linearGradient id="paint6_linear_10283_2869" x1="52.9316" y1="94.56" x2="94.7896" y2="69.577" gradientUnits="userSpaceOnUse">
<stop stop-color="#DE8000"/>
<stop offset="0.35" stop-color="#C85384"/>
<stop offset="1" stop-color="#D93B00"/>
</linearGradient>
<linearGradient id="paint7_linear_10283_2869" x1="57.0954" y1="88.0196" x2="86.8114" y2="64.8738" gradientUnits="userSpaceOnUse">
<stop stop-color="#DE8000"/>
<stop offset="0.35" stop-color="#C85384"/>
<stop offset="1" stop-color="#D93B00"/>
</linearGradient>
<linearGradient id="paint8_linear_10283_2869" x1="68.9279" y1="83.1968" x2="81.8288" y2="55.8273" gradientUnits="userSpaceOnUse">
<stop stop-color="#DE8000"/>
<stop offset="0.35" stop-color="#C85384"/>
<stop offset="1" stop-color="#D93B00"/>
</linearGradient>
<linearGradient id="paint9_linear_10283_2869" x1="66.1121" y1="81.8688" x2="79.0129" y2="54.5093" gradientUnits="userSpaceOnUse">
<stop stop-color="#DE8000"/>
<stop offset="0.35" stop-color="#C85384"/>
<stop offset="1" stop-color="#D93B00"/>
</linearGradient>
<linearGradient id="paint10_linear_10283_2869" x1="67.3203" y1="82.4379" x2="80.2111" y2="55.0684" gradientUnits="userSpaceOnUse">
<stop stop-color="#DE8000"/>
<stop offset="0.35" stop-color="#C85384"/>
<stop offset="1" stop-color="#D93B00"/>
</linearGradient>
<linearGradient id="paint11_linear_10283_2869" x1="52.0729" y1="77.0858" x2="116.557" y2="93.0222" gradientUnits="userSpaceOnUse">
<stop stop-color="#DE8000"/>
<stop offset="0.35" stop-color="#C85384"/>
<stop offset="1" stop-color="#D93B00"/>
</linearGradient>
<linearGradient id="paint12_linear_10283_2869" x1="46.4314" y1="2.75591" x2="74.6995" y2="68.139" gradientUnits="userSpaceOnUse">
<stop stop-color="#DE8000"/>
<stop offset="0.35" stop-color="#C85384"/>
<stop offset="1" stop-color="#D93B00"/>
</linearGradient>
<linearGradient id="paint13_linear_10283_2869" x1="46.4312" y1="2.75597" x2="74.6993" y2="68.1391" gradientUnits="userSpaceOnUse">
<stop stop-color="#DE8000"/>
<stop offset="0.35" stop-color="#C85384"/>
<stop offset="1" stop-color="#D93B00"/>
</linearGradient>
<linearGradient id="paint14_linear_10283_2869" x1="60.191" y1="22.247" x2="91.0452" y2="55.3679" gradientUnits="userSpaceOnUse">
<stop stop-color="#DE8000"/>
<stop offset="0.53" stop-color="#C85384"/>
<stop offset="1" stop-color="#D93B00"/>
</linearGradient>
<linearGradient id="paint15_linear_10283_2869" x1="60.1909" y1="22.2471" x2="91.0452" y2="55.368" gradientUnits="userSpaceOnUse">
<stop stop-color="#DE8000"/>
<stop offset="0.53" stop-color="#C85384"/>
<stop offset="1" stop-color="#D93B00"/>
</linearGradient>
<linearGradient id="paint16_linear_10283_2869" x1="15.2575" y1="37.7541" x2="143.527" y2="51.5037" gradientUnits="userSpaceOnUse">
<stop stop-color="#DE8000"/>
<stop offset="0.53" stop-color="#C85384"/>
<stop offset="1" stop-color="#D93B00"/>
</linearGradient>
<linearGradient id="paint17_linear_10283_2869" x1="15.477" y1="35.767" x2="143.737" y2="49.5267" gradientUnits="userSpaceOnUse">
<stop stop-color="#DE8000"/>
<stop offset="0.35" stop-color="#C85384"/>
<stop offset="1" stop-color="#D93B00"/>
</linearGradient>
<linearGradient id="paint18_linear_10283_2869" x1="81.7489" y1="31.713" x2="88.0694" y2="32.392" gradientUnits="userSpaceOnUse">
<stop stop-color="#DE8000"/>
<stop offset="0.53" stop-color="#C85384"/>
<stop offset="1" stop-color="#D93B00"/>
</linearGradient>
<linearGradient id="paint19_linear_10283_2869" x1="79.4024" y1="30.4249" x2="87.0412" y2="31.2437" gradientUnits="userSpaceOnUse">
<stop stop-color="#DE8000"/>
<stop offset="0.53" stop-color="#C85384"/>
<stop offset="1" stop-color="#D93B00"/>
</linearGradient>
<linearGradient id="paint20_linear_10283_2869" x1="75.0189" y1="28.7474" x2="83.636" y2="29.676" gradientUnits="userSpaceOnUse">
<stop stop-color="#DE8000"/>
<stop offset="0.53" stop-color="#C85384"/>
<stop offset="1" stop-color="#D93B00"/>
</linearGradient>
<linearGradient id="paint21_linear_10283_2869" x1="77.5152" y1="29.4464" x2="85.0142" y2="30.2553" gradientUnits="userSpaceOnUse">
<stop stop-color="#DE8000"/>
<stop offset="0.53" stop-color="#C85384"/>
<stop offset="1" stop-color="#D93B00"/>
</linearGradient>
<linearGradient id="paint22_linear_10283_2869" x1="61.0494" y1="41.7781" x2="62.4774" y2="41.9279" gradientUnits="userSpaceOnUse">
<stop stop-color="#DE8000"/>
<stop offset="0.53" stop-color="#C85384"/>
<stop offset="1" stop-color="#D93B00"/>
</linearGradient>
<linearGradient id="paint23_linear_10283_2869" x1="83.2667" y1="33.1509" x2="89.5274" y2="33.8299" gradientUnits="userSpaceOnUse">
<stop stop-color="#DE8000"/>
<stop offset="0.53" stop-color="#C85384"/>
<stop offset="1" stop-color="#D93B00"/>
</linearGradient>
<linearGradient id="paint24_linear_10283_2869" x1="72.4228" y1="28.348" x2="81.5093" y2="29.3265" gradientUnits="userSpaceOnUse">
<stop stop-color="#DE8000"/>
<stop offset="0.53" stop-color="#C85384"/>
<stop offset="1" stop-color="#D93B00"/>
</linearGradient>
<linearGradient id="paint25_linear_10283_2869" x1="86.4219" y1="36.7456" x2="90.8654" y2="37.2249" gradientUnits="userSpaceOnUse">
<stop stop-color="#DE8000"/>
<stop offset="0.53" stop-color="#C85384"/>
<stop offset="1" stop-color="#D93B00"/>
</linearGradient>
<linearGradient id="paint26_linear_10283_2869" x1="85.1038" y1="34.9782" x2="90.3361" y2="35.5474" gradientUnits="userSpaceOnUse">
<stop stop-color="#DE8000"/>
<stop offset="0.53" stop-color="#C85384"/>
<stop offset="1" stop-color="#D93B00"/>
</linearGradient>
<linearGradient id="paint27_linear_10283_2869" x1="63.5659" y1="51.9929" x2="66.5913" y2="52.3224" gradientUnits="userSpaceOnUse">
<stop stop-color="#DE8000"/>
<stop offset="0.53" stop-color="#C85384"/>
<stop offset="1" stop-color="#D93B00"/>
</linearGradient>
<linearGradient id="paint28_linear_10283_2869" x1="62.6972" y1="50.8447" x2="65.6529" y2="51.1642" gradientUnits="userSpaceOnUse">
<stop stop-color="#DE8000"/>
<stop offset="0.53" stop-color="#C85384"/>
<stop offset="1" stop-color="#D93B00"/>
</linearGradient>
<linearGradient id="paint29_linear_10283_2869" x1="64.3047" y1="53.0215" x2="67.8895" y2="53.401" gradientUnits="userSpaceOnUse">
<stop stop-color="#DE8000"/>
<stop offset="0.53" stop-color="#C85384"/>
<stop offset="1" stop-color="#D93B00"/>
</linearGradient>
<linearGradient id="paint30_linear_10283_2869" x1="62.1179" y1="38.6229" x2="62.2679" y2="38.6329" gradientUnits="userSpaceOnUse">
<stop stop-color="#DE8000"/>
<stop offset="0.53" stop-color="#C85384"/>
<stop offset="1" stop-color="#D93B00"/>
</linearGradient>
<linearGradient id="paint31_linear_10283_2869" x1="61.5589" y1="49.4567" x2="65.1534" y2="49.8461" gradientUnits="userSpaceOnUse">
<stop stop-color="#DE8000"/>
<stop offset="0.53" stop-color="#C85384"/>
<stop offset="1" stop-color="#D93B00"/>
</linearGradient>
<linearGradient id="paint32_linear_10283_2869" x1="61.449" y1="48.1188" x2="63.8853" y2="48.3784" gradientUnits="userSpaceOnUse">
<stop stop-color="#DE8000"/>
<stop offset="0.53" stop-color="#C85384"/>
<stop offset="1" stop-color="#D93B00"/>
</linearGradient>
<linearGradient id="paint33_linear_10283_2869" x1="61.1694" y1="45.2729" x2="62.4175" y2="45.4027" gradientUnits="userSpaceOnUse">
<stop stop-color="#DE8000"/>
<stop offset="0.53" stop-color="#C85384"/>
<stop offset="1" stop-color="#D93B00"/>
</linearGradient>
<linearGradient id="paint34_linear_10283_2869" x1="61.3192" y1="46.7108" x2="62.9568" y2="46.8905" gradientUnits="userSpaceOnUse">
<stop stop-color="#DE8000"/>
<stop offset="0.53" stop-color="#C85384"/>
<stop offset="1" stop-color="#D93B00"/>
</linearGradient>
<linearGradient id="paint35_linear_10283_2869" x1="57.4749" y1="88.4989" x2="87.1808" y2="65.3533" gradientUnits="userSpaceOnUse">
<stop stop-color="#DE8000"/>
<stop offset="0.35" stop-color="#C85384"/>
<stop offset="1" stop-color="#D93B00"/>
</linearGradient>
<linearGradient id="paint36_linear_10283_2869" x1="59.4319" y1="70.8151" x2="80.291" y2="89.5573" gradientUnits="userSpaceOnUse">
<stop stop-color="#DE8000"/>
<stop offset="0.35" stop-color="#C85384"/>
<stop offset="1" stop-color="#D93B00"/>
</linearGradient>
<linearGradient id="paint37_linear_10283_2869" x1="57.0954" y1="88.0196" x2="86.8114" y2="64.8738" gradientUnits="userSpaceOnUse">
<stop stop-color="#DE8000"/>
<stop offset="0.35" stop-color="#C85384"/>
<stop offset="1" stop-color="#D93B00"/>
</linearGradient>
<linearGradient id="paint38_linear_10283_2869" x1="57.4749" y1="88.4989" x2="87.1808" y2="65.3533" gradientUnits="userSpaceOnUse">
<stop stop-color="#DE8000"/>
<stop offset="0.35" stop-color="#C85384"/>
<stop offset="1" stop-color="#D93B00"/>
</linearGradient>
<linearGradient id="paint39_linear_10283_2869" x1="59.4319" y1="70.8151" x2="80.291" y2="89.5573" gradientUnits="userSpaceOnUse">
<stop stop-color="#DE8000"/>
<stop offset="0.35" stop-color="#C85384"/>
<stop offset="1" stop-color="#D93B00"/>
</linearGradient>
<linearGradient id="paint40_linear_10283_2869" x1="54.4893" y1="90.476" x2="69.7367" y2="59.2623" gradientUnits="userSpaceOnUse">
<stop stop-color="#DE8000"/>
<stop offset="0.35" stop-color="#C85384"/>
<stop offset="1" stop-color="#D93B00"/>
</linearGradient>
<linearGradient id="paint41_linear_10283_2869" x1="18.9224" y1="71.7438" x2="53.8805" y2="91.5943" gradientUnits="userSpaceOnUse">
<stop stop-color="#DE8000"/>
<stop offset="0.35" stop-color="#C85384"/>
<stop offset="1" stop-color="#D93B00"/>
</linearGradient>
<linearGradient id="paint42_linear_10283_2869" x1="10.2447" y1="83.3265" x2="45.1931" y2="103.177" gradientUnits="userSpaceOnUse">
<stop stop-color="#DE8000"/>
<stop offset="0.35" stop-color="#C85384"/>
<stop offset="1" stop-color="#D93B00"/>
</linearGradient>
<linearGradient id="paint43_linear_10283_2869" x1="5.88166" y1="91.0151" x2="40.8297" y2="110.865" gradientUnits="userSpaceOnUse">
<stop stop-color="#DE8000"/>
<stop offset="0.35" stop-color="#C85384"/>
<stop offset="1" stop-color="#D93B00"/>
</linearGradient>
<linearGradient id="paint44_linear_10283_2869" x1="5.83166" y1="91.0951" x2="40.7797" y2="110.946" gradientUnits="userSpaceOnUse">
<stop stop-color="#DE8000"/>
<stop offset="0.35" stop-color="#C85384"/>
<stop offset="1" stop-color="#D93B00"/>
</linearGradient>
<linearGradient id="paint45_linear_10283_2869" x1="42.0877" y1="113.142" x2="46.8407" y2="131.705" gradientUnits="userSpaceOnUse">
<stop stop-color="#DE8000"/>
<stop offset="0.35" stop-color="#C85384"/>
<stop offset="1" stop-color="#D93B00"/>
</linearGradient>
<linearGradient id="paint46_linear_10283_2869" x1="5.7006" y1="91.3246" x2="40.6592" y2="111.176" gradientUnits="userSpaceOnUse">
<stop stop-color="#DE8000"/>
<stop offset="0.35" stop-color="#C85384"/>
<stop offset="1" stop-color="#D93B00"/>
</linearGradient>
</defs>
</svg>
