<svg width="135" height="135" viewBox="0 0 135 135" fill="none" xmlns="http://www.w3.org/2000/svg">
<path d="M135 67.5C135 30.2208 104.779 0 67.5 0C30.2208 0 0 30.2208 0 67.5C0 104.779 30.2208 135 67.5 135C104.779 135 135 104.779 135 67.5Z" fill="#F6F6F6"/>
<path style="mix-blend-mode:multiply" d="M66.1365 106.598L37.4492 90.0395L72.2009 69.976L102.68 87.5783L69.7298 106.598H66.1365Z" fill="url(#paint0_linear_10283_2866)"/>
<path d="M58.1328 55.4452L66.166 75.3019L64.7386 74.4848L56.7151 54.6281L58.1328 55.4452Z" fill="#552421"/>
<path d="M60.7613 54.2147L67.6132 74.4651L66.1661 75.3019L58.1328 55.4452L60.7613 54.2147Z" fill="#6F3E3B"/>
<path d="M61.6375 64.7287L45.0296 72.506L43.9467 71.8858L60.5448 64.1183L61.6375 64.7287Z" fill="#FBDABB"/>
<path d="M62.5038 66.8847L44.2223 75.4397L45.0295 72.506L61.6375 64.7287L62.5038 66.8847Z" fill="#E1C1A2"/>
<path d="M45.0887 60.0722L46.5161 60.8893L39.1129 90.9156L37.6953 90.1083L45.0887 60.0722Z" fill="#995944"/>
<path d="M46.5162 60.8894L48.9478 59.7474L40.5601 90.0788L39.113 90.9156L46.5162 60.8894Z" fill="#6F3E3B"/>
<path d="M61.2142 55.5732L58.6644 56.7644L58.1328 55.4452L60.7613 54.2147L61.2142 55.5732Z" fill="#552421"/>
<path d="M46.5161 60.8894L48.9478 59.7474L48.4555 61.549L46.0731 62.6614L46.5161 60.8894Z" fill="#552421"/>
<path d="M40.2647 62.563L40.3632 61.8049C40.3632 61.6277 40.4813 61.4604 40.7373 61.3422L65.6541 49.6862L68.2433 51.1727L68.135 51.98L43.228 63.6459C42.954 63.757 42.6594 63.8083 42.364 63.7964C42.0686 63.7845 41.7792 63.7097 41.515 63.577L40.5994 63.0454C40.3533 62.9174 40.245 62.7304 40.2647 62.563Z" fill="#6F3E3B"/>
<path d="M40.7865 61.3422L65.7034 49.6862L68.2925 51.1727L43.3855 62.8386C43.1108 62.9482 42.8159 62.9979 42.5205 62.9843C42.2251 62.9707 41.936 62.8942 41.6725 62.7599L40.7471 62.2381C40.6605 62.1983 40.5848 62.1381 40.5266 62.0626C40.4683 61.9872 40.4291 61.8988 40.4124 61.8049C40.3632 61.6277 40.4813 61.4604 40.7865 61.3422Z" fill="#995944"/>
<g style="mix-blend-mode:color">
<path d="M68.2434 51.1727L65.6542 49.6862L40.7866 61.3422C40.5306 61.4604 40.4125 61.6277 40.4125 61.8049L40.314 62.563C40.314 62.7303 40.4026 62.9076 40.6487 63.0454L41.5643 63.577C41.8285 63.7097 42.1179 63.7845 42.4133 63.7964C42.7087 63.8083 43.0033 63.757 43.2773 63.6459L44.3897 63.1241L37.7446 90.1084L39.1622 90.9156L40.6094 90.0788L44.7146 75.2331L61.8542 67.2097L64.8076 74.4849L66.2351 75.302L67.6822 74.4652L61.1847 55.2681L68.204 51.98L68.2434 51.1727ZM48.554 61.1454L57.621 56.9023L60.5744 64.1185L45.8664 71.0097L48.554 61.1454Z" fill="white"/>
</g>
<g style="mix-blend-mode:overlay">
<path d="M68.2434 51.1727L65.6542 49.6862L40.7866 61.3422C40.5306 61.4604 40.4125 61.6277 40.4125 61.8049L40.314 62.563C40.314 62.7303 40.4026 62.9076 40.6487 63.0454L41.5643 63.577C41.8285 63.7097 42.1179 63.7845 42.4133 63.7964C42.7087 63.8083 43.0033 63.757 43.2773 63.6459L44.3897 63.1241L37.7446 90.1084L39.1622 90.9156L40.6094 90.0788L44.7146 75.2331L61.8542 67.2097L64.8076 74.4849L66.2351 75.302L67.6822 74.4652L61.1847 55.2681L68.204 51.98L68.2434 51.1727ZM48.554 61.1454L57.621 56.9023L60.5744 64.1185L45.8664 71.0097L48.554 61.1454Z" fill="white"/>
</g>
<path d="M40.5798 73.9729L40.8555 70.4485C40.8867 70.1609 40.9849 69.8846 41.1421 69.6418C41.2994 69.3991 41.5114 69.1965 41.7612 69.0505L62.2578 59.4618L71.118 28.1557C71.1836 27.8832 71.3173 27.6318 71.5068 27.4251C71.6962 27.2185 71.9351 27.0634 72.2009 26.9744L75.4004 26.5708C75.4931 26.54 75.5932 26.54 75.6859 26.5708L101.43 41.4362C101.666 41.5642 101.755 41.9186 101.627 42.3616L91.8902 76.877C91.7902 77.2094 91.6072 77.5109 91.3586 77.7532C91.2088 78.0024 90.9946 78.2064 90.7384 78.3439L67.1112 89.3994C67.0274 89.4529 66.93 89.4813 66.8306 89.4813C66.7312 89.4813 66.6339 89.4529 66.55 89.3994L40.7865 74.5832C40.7003 74.5095 40.6356 74.4139 40.5992 74.3065C40.5628 74.199 40.5561 74.0838 40.5798 73.9729Z" fill="#FFF8F3"/>
<path d="M66.3236 88.8384L66.5993 85.314C66.6323 85.0257 66.7323 84.7492 66.8913 84.5064C67.0503 84.2637 67.2638 84.0615 67.5148 83.916L88.041 74.3273L96.9012 43.0213C96.9629 42.7481 97.0955 42.496 97.2856 42.2904C97.4757 42.0847 97.7166 41.9328 97.9841 41.8498L101.184 41.4363C101.273 41.4055 101.37 41.4055 101.459 41.4363C101.696 41.5643 101.784 41.9187 101.656 42.3617L91.9198 76.8771C91.8197 77.2095 91.6368 77.511 91.3882 77.7533C91.2384 78.0024 91.0241 78.2065 90.768 78.344L67.1407 89.3995C67.0569 89.453 66.9596 89.4814 66.8602 89.4814C66.7607 89.4814 66.6634 89.453 66.5796 89.3995C66.4963 89.3323 66.4298 89.2466 66.3853 89.1492C66.3409 89.0518 66.3198 88.9454 66.3236 88.8384Z" fill="#E1DFDA"/>
<path opacity="0.5" d="M72.1714 26.9744L97.8856 41.8497C97.6182 41.9327 97.3773 42.0847 97.1872 42.2903C96.9971 42.496 96.8645 42.7481 96.8027 43.0212L71.0491 28.1558C71.1182 27.8787 71.258 27.6243 71.4546 27.4173C71.6513 27.2103 71.8982 27.0577 72.1714 26.9744Z" fill="#EEECE7"/>
<path opacity="0.5" d="M41.7709 69.0505L67.5246 83.916C67.2736 84.0615 67.06 84.2637 66.9011 84.5064C66.7421 84.7491 66.6421 85.0257 66.609 85.3139L40.8652 70.4485C40.8965 70.1609 40.9947 69.8846 41.1519 69.6419C41.3092 69.3991 41.5212 69.1966 41.7709 69.0505Z" fill="#EEECE7"/>
<path d="M40.5798 73.9729L40.8555 70.4485L66.5993 85.314L66.3236 88.8384C66.3062 88.9469 66.3149 89.0581 66.3492 89.1626C66.3834 89.267 66.4422 89.3618 66.5205 89.4389L40.7865 74.5833C40.702 74.5083 40.6384 74.4126 40.6022 74.3056C40.5659 74.1985 40.5582 74.0839 40.5798 73.9729Z" fill="#EEECE7"/>
<path d="M71.0885 28.1558L96.8422 43.0212L88.0115 74.3273L62.2578 59.4618L71.0885 28.1558Z" fill="#EEECE7"/>
<g style="mix-blend-mode:multiply">
<path d="M40.5798 73.9729L40.8555 70.4485C40.8867 70.1609 40.9849 69.8846 41.1421 69.6418C41.2994 69.3991 41.5114 69.1965 41.7612 69.0505L62.2578 59.4618L71.118 28.1557C71.1836 27.8832 71.3173 27.6318 71.5068 27.4251C71.6962 27.2185 71.9351 27.0634 72.2009 26.9744L75.4004 26.5708C75.4931 26.54 75.5932 26.54 75.6859 26.5708L101.43 41.4362C101.666 41.5642 101.755 41.9186 101.627 42.3616L91.8902 76.877C91.7902 77.2094 91.6072 77.5109 91.3586 77.7532C91.2088 78.0024 90.9946 78.2064 90.7384 78.3439L67.1112 89.3994C67.0274 89.4529 66.93 89.4813 66.8306 89.4813C66.7312 89.4813 66.6339 89.4529 66.55 89.3994L40.7865 74.5832C40.7003 74.5095 40.6356 74.4139 40.5992 74.3065C40.5628 74.199 40.5561 74.0838 40.5798 73.9729Z" fill="#FFF8F3"/>
<path d="M66.3236 88.8384L66.5992 85.314C66.6323 85.0257 66.7323 84.7492 66.8912 84.5064C67.0502 84.2637 67.2637 84.0615 67.5148 83.916L88.0409 74.3273L96.9011 43.0213C96.9629 42.7481 97.0955 42.496 97.2856 42.2904C97.4757 42.0847 97.7166 41.9328 97.984 41.8498L101.184 41.4363C101.273 41.4055 101.37 41.4055 101.459 41.4363C101.695 41.5643 101.784 41.9187 101.656 42.3617L91.9197 76.8771C91.8196 77.2095 91.6367 77.511 91.3881 77.7533C91.2383 78.0024 91.024 78.2065 90.7679 78.344L67.1407 89.3995C67.0569 89.453 66.9595 89.4814 66.8601 89.4814C66.7607 89.4814 66.6633 89.453 66.5795 89.3995C66.4962 89.3323 66.4297 89.2466 66.3853 89.1492C66.3408 89.0518 66.3197 88.9454 66.3236 88.8384Z" fill="#E1DFDA"/>
<path opacity="0.5" d="M72.1714 26.9744L97.8856 41.8497C97.6182 41.9327 97.3773 42.0847 97.1872 42.2903C96.9971 42.496 96.8645 42.7481 96.8027 43.0212L71.0491 28.1558C71.1182 27.8787 71.258 27.6243 71.4546 27.4173C71.6513 27.2103 71.8982 27.0577 72.1714 26.9744Z" fill="#EEECE7"/>
<path opacity="0.5" d="M41.7709 69.0505L67.5246 83.916C67.2736 84.0615 67.06 84.2637 66.9011 84.5064C66.7421 84.7491 66.6421 85.0257 66.609 85.3139L40.8652 70.4485C40.8965 70.1609 40.9947 69.8846 41.1519 69.6419C41.3092 69.3991 41.5212 69.1966 41.7709 69.0505Z" fill="#EEECE7"/>
<path d="M40.5798 73.9729L40.8555 70.4485L66.5993 85.3139L66.3236 88.8383C66.3062 88.9469 66.3149 89.058 66.3492 89.1625C66.3834 89.267 66.4422 89.3617 66.5205 89.4389L40.7865 74.5833C40.702 74.5083 40.6384 74.4125 40.6022 74.3055C40.5659 74.1985 40.5582 74.0838 40.5798 73.9729Z" fill="#EEECE7"/>
<path d="M71.0884 28.1558L96.842 43.0212L88.0114 74.3273L62.2577 59.4618L71.0884 28.1558Z" fill="#EEECE7"/>
</g>
<g style="mix-blend-mode:color">
<path d="M40.5798 73.9729L40.8555 70.4485C40.8867 70.1609 40.9849 69.8846 41.1421 69.6418C41.2994 69.3991 41.5114 69.1965 41.7612 69.0505L62.2578 59.4618L71.118 28.1557C71.1836 27.8832 71.3173 27.6318 71.5068 27.4251C71.6962 27.2185 71.9351 27.0634 72.2009 26.9744L75.4004 26.5708C75.4931 26.54 75.5932 26.54 75.6859 26.5708L101.43 41.4362C101.666 41.5642 101.755 41.9186 101.627 42.3616L91.8902 76.877C91.7902 77.2094 91.6072 77.5109 91.3586 77.7532C91.2088 78.0024 90.9946 78.2064 90.7384 78.3439L67.1112 89.3994C67.0274 89.4529 66.93 89.4813 66.8306 89.4813C66.7312 89.4813 66.6339 89.4529 66.55 89.3994L40.7865 74.5832C40.7003 74.5095 40.6356 74.4139 40.5992 74.3065C40.5628 74.199 40.5561 74.0838 40.5798 73.9729Z" fill="white"/>
<path d="M66.3236 88.8384L66.5992 85.314C66.6323 85.0257 66.7323 84.7492 66.8912 84.5064C67.0502 84.2637 67.2637 84.0615 67.5148 83.916L88.0409 74.3273L96.9011 43.0213C96.9629 42.7481 97.0955 42.496 97.2856 42.2904C97.4757 42.0847 97.7166 41.9328 97.984 41.8498L101.184 41.4363C101.273 41.4055 101.37 41.4055 101.459 41.4363C101.695 41.5643 101.784 41.9187 101.656 42.3617L91.9197 76.8771C91.8196 77.2095 91.6367 77.511 91.3881 77.7533C91.2383 78.0024 91.024 78.2065 90.7679 78.344L67.1407 89.3995C67.0569 89.453 66.9595 89.4814 66.8601 89.4814C66.7607 89.4814 66.6633 89.453 66.5795 89.3995C66.4962 89.3323 66.4297 89.2466 66.3853 89.1492C66.3408 89.0518 66.3197 88.9454 66.3236 88.8384Z" fill="white"/>
<path opacity="0.5" d="M72.1714 26.9744L97.8856 41.8497C97.6182 41.9327 97.3773 42.0847 97.1872 42.2903C96.9971 42.496 96.8645 42.7481 96.8027 43.0212L71.0491 28.1558C71.1182 27.8787 71.258 27.6243 71.4546 27.4173C71.6513 27.2103 71.8982 27.0577 72.1714 26.9744Z" fill="white"/>
<path opacity="0.5" d="M41.7709 69.0505L67.5246 83.916C67.2736 84.0615 67.06 84.2637 66.9011 84.5064C66.7421 84.7491 66.6421 85.0257 66.609 85.3139L40.8652 70.4485C40.8965 70.1609 40.9947 69.8846 41.1519 69.6419C41.3092 69.3991 41.5212 69.1966 41.7709 69.0505Z" fill="white"/>
<path d="M40.5798 73.9729L40.8555 70.4485L66.5993 85.3139L66.3236 88.8383C66.3062 88.9469 66.3149 89.058 66.3492 89.1625C66.3834 89.267 66.4422 89.3617 66.5205 89.4389L40.7865 74.5833C40.702 74.5083 40.6384 74.4125 40.6022 74.3055C40.5659 74.1985 40.5582 74.0838 40.5798 73.9729Z" fill="white"/>
<path d="M71.0884 28.1558L96.842 43.0212L88.0114 74.3273L62.2577 59.4618L71.0884 28.1558Z" fill="white"/>
</g>
<path style="mix-blend-mode:multiply" d="M40.5798 73.9729L40.8555 70.4485C40.8867 70.1609 40.9849 69.8846 41.1421 69.6418C41.2994 69.3991 41.5114 69.1965 41.7612 69.0505L62.2578 59.4618L71.118 28.1557C71.1836 27.8832 71.3173 27.6318 71.5068 27.4251C71.6962 27.2185 71.9351 27.0634 72.2009 26.9744L75.4004 26.5708C75.4931 26.54 75.5932 26.54 75.6859 26.5708L101.43 41.4362C101.666 41.5642 101.755 41.9186 101.627 42.3616L91.8902 76.877C91.7902 77.2094 91.6072 77.5109 91.3586 77.7532C91.2088 78.0024 90.9946 78.2064 90.7384 78.3439L67.1112 89.3994C67.0274 89.4529 66.93 89.4813 66.8306 89.4813C66.7312 89.4813 66.6339 89.4529 66.55 89.3994L40.7865 74.5832C40.7003 74.5095 40.6356 74.4139 40.5992 74.3065C40.5628 74.199 40.5561 74.0838 40.5798 73.9729Z" fill="url(#paint1_linear_10283_2866)"/>
<path d="M85.2845 71.1278L93.3177 90.9845L91.8902 90.1674L83.8668 70.3107L85.2845 71.1278Z" fill="#552421"/>
<path d="M87.9129 69.8972L94.7648 90.1477L93.3177 90.9844L85.2844 71.1277L87.9129 69.8972Z" fill="#6F3E3B"/>
<path d="M88.7892 80.4113L72.1812 88.1788L71.0983 87.5684L87.7063 79.801L88.7892 80.4113Z" fill="#995944"/>
<path d="M89.6556 82.5673L71.374 91.1223L72.1813 88.1788L88.7892 80.4113L89.6556 82.5673Z" fill="#6F3E3B"/>
<path d="M72.2402 75.7548L73.6677 76.5719L66.2645 106.598L64.8469 105.781L72.2402 75.7548Z" fill="#995944"/>
<path d="M73.6677 76.5718L76.0993 75.4299L67.7117 105.761L66.2645 106.598L73.6677 76.5718Z" fill="#6F3E3B"/>
<path d="M88.3658 71.2557L85.816 72.4469L85.2844 71.1277L87.9129 69.8972L88.3658 71.2557Z" fill="#552421"/>
<path d="M73.6677 76.5718L76.0993 75.4299L75.6071 77.2314L73.2247 78.3439L73.6677 76.5718Z" fill="#552421"/>
<path d="M67.4163 78.2455L67.5148 77.4776C67.5148 77.3102 67.6329 77.1429 67.8889 77.0247L92.8057 65.3687L95.3949 66.8552L95.2866 67.6625L70.3796 79.3284C70.1056 79.4395 69.8111 79.4908 69.5157 79.4789C69.2203 79.467 68.9308 79.3922 68.6666 79.2595L67.7511 78.7279C67.5049 78.59 67.3671 78.4128 67.4163 78.2455Z" fill="#6F3E3B"/>
<path d="M67.8889 77.0247L92.8058 65.3687L95.395 66.8552L70.4879 78.5211C70.2127 78.6282 69.9181 78.6765 69.6231 78.663C69.3281 78.6494 69.0392 78.5743 68.7749 78.4424L67.8496 77.9206C67.7617 77.8799 67.6853 77.8181 67.6269 77.7409C67.5685 77.6636 67.53 77.5732 67.5148 77.4776C67.5148 77.3102 67.633 77.1429 67.8889 77.0247Z" fill="#995944"/>
<g style="mix-blend-mode:color">
<path d="M95.3949 66.8552L92.8057 65.3687L67.8889 77.0247C67.6427 77.1429 67.5148 77.3102 67.5148 77.4776L67.4163 78.2455C67.4163 78.4128 67.5049 78.59 67.751 78.7279L68.6666 79.2595C68.9308 79.3922 69.2202 79.467 69.5156 79.4789C69.8111 79.4908 70.1056 79.4395 70.3796 79.3284L71.492 78.8066L64.8469 105.781L66.2645 106.598L67.7117 105.761L71.8169 90.9156L88.9565 82.8922L91.9099 90.1674L93.3373 90.9845L94.7845 90.1477L88.287 70.9506L95.3063 67.6625L95.3949 66.8552ZM75.6071 77.2315L75.7154 76.8279L84.7823 72.5848L87.7357 79.8009L73.0278 86.6922L75.6071 77.2315Z" fill="white"/>
</g>
<g style="mix-blend-mode:overlay">
<path d="M95.3949 66.8552L92.8057 65.3687L67.8889 77.0247C67.6427 77.1429 67.5148 77.3102 67.5148 77.4776L67.4163 78.2455C67.4163 78.4128 67.5049 78.59 67.751 78.7279L68.6666 79.2595C68.9308 79.3922 69.2202 79.467 69.5156 79.4789C69.8111 79.4908 70.1056 79.4395 70.3796 79.3284L71.492 78.8066L64.8469 105.781L66.2645 106.598L67.7117 105.761L71.8169 90.9156L88.9565 82.8922L91.9099 90.1674L93.3373 90.9845L94.7845 90.1477L88.287 70.9506L95.3063 67.6625L95.3949 66.8552ZM75.6071 77.2315L75.7154 76.8279L84.7823 72.5848L87.7357 79.8009L73.0278 86.6922L75.6071 77.2315Z" fill="white"/>
</g>
<defs>
<linearGradient id="paint0_linear_10283_2866" x1="37.4492" y1="88.2871" x2="102.68" y2="88.2871" gradientUnits="userSpaceOnUse">
<stop offset="0.13" stop-color="#C9C9C9"/>
<stop offset="0.89" stop-color="white"/>
</linearGradient>
<linearGradient id="paint1_linear_10283_2866" x1="19.4334" y1="97.9249" x2="145.878" y2="5.57206" gradientUnits="userSpaceOnUse">
<stop stop-color="#DE8000"/>
<stop offset="0.53" stop-color="#C85384"/>
<stop offset="1" stop-color="#D93B00"/>
</linearGradient>
</defs>
</svg>
