<svg width="135" height="135" viewBox="0 0 135 135" fill="none" xmlns="http://www.w3.org/2000/svg">
<path d="M135 67.5C135 30.2208 104.779 0 67.5 0C30.2208 0 0 30.2208 0 67.5C0 104.779 30.2208 135 67.5 135C104.779 135 135 104.779 135 67.5Z" fill="#F6F6F6"/>
<path d="M58.5655 62.011C64.3535 62.011 69.0456 57.3189 69.0456 51.5309C69.0456 45.7429 64.3535 41.0508 58.5655 41.0508C52.7775 41.0508 48.0854 45.7429 48.0854 51.5309C48.0854 57.3189 52.7775 62.011 58.5655 62.011Z" fill="url(#paint0_linear_10283_2868)"/>
<path d="M63.995 68.8762C69.7072 67.9428 73.5813 62.5555 72.6479 56.8432C71.7145 51.131 66.3272 47.2569 60.6149 48.1903C54.9027 49.1237 51.0286 54.511 51.962 60.2233C52.8954 65.9355 58.2827 69.8096 63.995 68.8762Z" fill="url(#paint1_linear_10283_2868)"/>
<path d="M75.8436 54.2484C81.6316 54.2484 86.3237 49.5563 86.3237 43.7683C86.3237 37.9803 81.6316 33.2881 75.8436 33.2881C70.0556 33.2881 65.3635 37.9803 65.3635 43.7683C65.3635 49.5563 70.0556 54.2484 75.8436 54.2484Z" fill="url(#paint2_linear_10283_2868)"/>
<path d="M72.6441 37.6843C72.6441 37.6843 77.6987 35.4213 81.1859 37.3782C84.6731 39.3351 84.738 41.1993 86.63 42.5904C88.522 43.9816 90.9797 48.7858 88.5869 52.8851C87.338 55.184 85.5453 57.1423 83.3654 58.5889L72.6441 37.6843Z" fill="url(#paint3_linear_10283_2868)"/>
<path opacity="0.08" d="M71.1695 106.315L86.7876 97.291C93.0108 93.7018 93.0108 87.8867 86.7876 84.3068C80.5645 80.7268 70.4925 80.7176 64.2786 84.3068L48.6604 93.3308C42.4465 96.92 42.4465 102.744 48.6604 106.315C54.8743 109.886 64.9556 109.904 71.1695 106.315Z" fill="black"/>
<path d="M70.8913 103.533L85.2295 95.2506C90.9426 91.9489 90.9426 86.6068 85.2295 83.3144C79.5165 80.022 70.2699 80.022 64.5568 83.3144L50.2185 91.5965C44.5055 94.8889 44.5055 100.231 50.2185 103.533C55.9316 106.834 65.1782 106.816 70.8913 103.533Z" fill="url(#paint4_linear_10283_2868)"/>
<path d="M51.7952 80.2539C47.0003 84.956 45.9708 97.8753 45.9708 97.8753L89.5607 89.7323C89.5607 89.7323 91.5733 70.8125 81.9464 66.1567C75.7418 63.2167 59.5672 72.5839 51.7952 80.2539Z" fill="url(#paint5_linear_10283_2868)"/>
<path d="M60.4297 62.011C60.4297 62.011 71.559 65.1273 74.8422 67.0378C76.493 67.9652 77.3092 69.2358 77.3092 70.4786V74.8469L77.5688 78.974C77.6159 79.7311 77.459 80.4869 77.1144 81.1627C76.7698 81.8384 76.2501 82.4093 75.6097 82.8158C74.9692 83.2222 74.2314 83.4493 73.4732 83.4734C72.7151 83.4975 71.9643 83.3177 71.2994 82.9527C68.0348 81.1628 64.4826 79.243 62.8967 78.3155C61.3107 77.3881 60.4297 76.1175 60.4297 74.8747V62.011Z" fill="#43B8FB"/>
<g style="mix-blend-mode:color">
<path d="M60.4297 62.011C60.4297 62.011 71.559 65.1273 74.8422 67.0378C76.493 67.9652 77.3092 69.2358 77.3092 70.4786V74.8469L77.5688 78.974C77.6159 79.7311 77.459 80.4869 77.1144 81.1627C76.7698 81.8384 76.2501 82.4093 75.6097 82.8158C74.9692 83.2222 74.2314 83.4493 73.4732 83.4734C72.7151 83.4975 71.9643 83.3177 71.2994 82.9527C68.0348 81.1628 64.4826 79.243 62.8967 78.3155C61.3107 77.3881 60.4297 76.1175 60.4297 74.8747V62.011Z" fill="white"/>
</g>
<path d="M60.4297 58.4125C60.4297 58.4125 71.559 61.5287 74.8422 63.43C76.493 64.3574 77.3092 65.6373 77.3092 66.8801V71.2391L77.5688 75.3755C77.6159 76.1326 77.459 76.8884 77.1144 77.5642C76.7698 78.2399 76.2501 78.8108 75.6097 79.2173C74.9692 79.6237 74.2314 79.8508 73.4732 79.8749C72.7151 79.899 71.9643 79.7192 71.2994 79.3542C68.0348 77.5642 64.4826 75.6444 62.8967 74.717C61.3107 73.7896 60.4297 72.519 60.4297 71.2669V58.4125Z" fill="#F3F3F3"/>
<path d="M77.3092 70.4787L77.5781 74.3647C77.5781 74.3647 64.529 74.1792 60.4297 64.7656L60.374 63.9309L77.3092 70.4787Z" fill="#E6D8D2"/>
<path d="M73.2749 37.6842C73.2749 37.6842 77.0681 37.814 81.1674 41.7093C85.2667 45.6045 85.2111 59.3307 84.6083 62.1594C83.2728 68.3733 79.8598 72.0738 76.5488 72.3057C70.7801 72.7045 62.2847 69.1524 60.4669 64.4409C58.6491 59.7295 56.4882 54.7863 57.8422 47.1812C59.1963 39.5762 63.6016 36.395 73.2749 37.6842Z" fill="#F3F3F3"/>
<path d="M79.6186 58.088C79.6186 58.088 77.8193 49.4628 73.1265 50.6035C68.4336 51.7443 71.3365 61.3248 73.1265 62.0296C74.9164 62.7345 79.6186 58.088 79.6186 58.088Z" fill="white"/>
<path d="M50.2927 46.1518C50.3846 44.9631 50.7176 43.8057 51.2717 42.7501C51.8257 41.6945 52.5891 40.7629 53.5152 40.0121C54.4413 39.2614 55.5106 38.7072 56.658 38.3835C57.8054 38.0598 59.0066 37.9733 60.1885 38.1294C63.1564 38.4632 64.8907 39.9286 65.5585 42.6553C65.8248 43.8215 66.4393 44.8792 67.3206 45.688C69.1198 47.2832 70.9098 49.4535 70.9098 51.4382C70.8988 52.8301 70.5419 54.1973 69.8711 55.4169C69.6759 55.7677 69.5828 56.166 69.6021 56.567C69.6303 56.9743 69.599 57.3836 69.5094 57.7819C69.2871 58.8067 68.7242 59.7259 67.9123 60.3896C67.1004 61.0532 66.0876 61.4221 65.0391 61.436C63.8833 61.4288 62.7719 60.9901 61.9227 60.2061C61.0735 59.4221 60.5476 58.3491 60.4483 57.1976C59.6938 56.6513 59.0619 55.9531 58.5934 55.148C57.4524 55.1187 56.3289 54.8607 55.2894 54.3895C54.2499 53.9182 53.3155 53.2432 52.5415 52.4044C51.7675 51.5655 51.1697 50.58 50.7835 49.506C50.3972 48.432 50.2303 47.2914 50.2927 46.1518Z" fill="url(#paint6_linear_10283_2868)"/>
<path d="M58.4265 54.1742C59.1196 54.2935 59.7488 54.6522 60.2047 55.1877C60.6606 55.7232 60.9142 56.4017 60.9213 57.1049C61.0048 58.6074 59.8918 60.9445 58.8438 60.1655C58.5656 59.9521 56.2748 58.2178 56.2006 56.7061C56.15 56.3881 56.1702 56.0629 56.2597 55.7536C56.3491 55.4444 56.5057 55.1586 56.7183 54.9168C56.9309 54.675 57.1942 54.4831 57.4894 54.3547C57.7847 54.2264 58.1047 54.1647 58.4265 54.1742Z" fill="#F3F3F3"/>
<path d="M81.5848 57.2255C81.5848 57.2255 81.8444 48.5075 84.1723 48.8785C85.0998 49.8059 84.8865 58.394 84.8865 58.394L81.5848 57.2255Z" fill="white"/>
<path d="M83.3186 66.3964C85.9391 65.7702 87.5557 63.1383 86.9295 60.5178C86.3033 57.8973 83.6713 56.2807 81.0509 56.9069C78.4304 57.5331 76.8138 60.1651 77.44 62.7855C78.0662 65.406 80.6982 67.0226 83.3186 66.3964Z" fill="url(#paint7_linear_10283_2868)"/>
<g style="mix-blend-mode:soft-light">
<path d="M83.3004 63.6712C84.9702 63.6712 86.3238 62.3175 86.3238 60.6477C86.3238 58.9779 84.9702 57.6243 83.3004 57.6243C81.6306 57.6243 80.2769 58.9779 80.2769 60.6477C80.2769 62.3175 81.6306 63.6712 83.3004 63.6712Z" fill="white"/>
</g>
<path d="M73.8962 58.8578C74.2672 59.4791 73.9518 58.1529 76.0293 57.2718C76.1834 57.1895 76.3187 57.0761 76.4266 56.9388C76.5346 56.8015 76.6128 56.6432 76.6564 56.4741C76.7 56.3049 76.708 56.1286 76.6799 55.9562C76.6517 55.7838 76.5881 55.6191 76.493 55.4726C76.4042 55.3177 76.285 55.1824 76.1426 55.0747C76.0002 54.967 75.8375 54.8892 75.6643 54.8459C75.4911 54.8026 75.3109 54.7947 75.1346 54.8227C74.9582 54.8507 74.7894 54.914 74.6381 55.0089C72.9316 56.0012 73.5252 58.2271 73.8962 58.8578Z" fill="#30121B"/>
<path d="M84.8771 54.137C84.6211 54.0935 84.3803 53.9856 84.1775 53.8233C83.9746 53.6611 83.8165 53.4498 83.7178 53.2096C83.6494 52.8564 83.7176 52.4905 83.9087 52.1857C84.0999 51.881 84.3996 51.6602 84.7473 51.568C84.8776 52.4177 84.921 53.2785 84.8771 54.137Z" fill="#30121B"/>
<path d="M70.3442 88.2948L74.1745 79.7809L73.1636 78.0188L71.1881 77.8889C70.3639 77.8187 69.5375 77.9967 68.8153 78.4C68.093 78.8032 67.5079 79.4134 67.1352 80.1519C66.8388 80.7267 66.6741 81.3603 66.6529 82.0068V84.9004C66.6344 87.1912 68.9994 89.3892 70.3442 88.2948Z" fill="#CBCBCB"/>
<path d="M77.9307 81.608L74.6475 82.0068L75.0834 77.045L77.9307 73.0662C78.3474 72.6012 78.8984 72.2772 79.5073 72.1388C79.7948 72.0831 82.0764 72.4449 82.7627 74.1699L81.0469 77.3974C81.0469 79.2152 79.4238 81.4225 77.9307 81.608Z" fill="#CBCBCB"/>
<path d="M71.5961 87.59L74.87 84.2049V78.6402L71.5961 79.039C70.0937 79.2245 68.4706 81.4318 68.4706 83.2867V86.9965C68.4892 88.805 70.0937 89.1296 71.5961 87.59Z" fill="#F3F3F3"/>
<path d="M79.7762 82.8599L76.5024 83.2587V77.6941L79.7762 74.3089C81.2787 72.7601 82.9017 73.0939 82.9017 74.9396V78.6493C82.9017 80.4671 81.2787 82.6744 79.7762 82.8599Z" fill="#F3F3F3"/>
<path d="M77.578 77.8796C77.578 77.4808 76.4094 76.878 75.788 76.4421C74.9626 75.8578 73.4787 76.7389 73.4787 76.7389C73.0287 77.0112 72.6529 77.3903 72.3843 77.8425C72.0412 78.3897 73.9424 79.0853 73.9424 79.651L77.578 77.8796Z" fill="url(#paint8_linear_10283_2868)"/>
<g style="mix-blend-mode:multiply">
<path d="M77.578 77.8796C77.578 77.4808 76.4094 76.878 75.788 76.4421C74.9626 75.8578 73.4787 76.7389 73.4787 76.7389C73.0287 77.0112 72.6529 77.3903 72.3843 77.8425C72.0412 78.3897 73.9424 79.0853 73.9424 79.651L77.578 77.8796Z" fill="#DADADA"/>
</g>
<path d="M75.3245 84.3253L76.048 83.9173C76.5248 83.6008 76.922 83.1782 77.2084 82.6826C77.4948 82.1871 77.6626 81.632 77.6988 81.0607V78.4917C77.6988 77.4437 76.9569 77.0171 76.048 77.5643L75.3245 77.9816C74.8453 78.2935 74.4462 78.7137 74.1594 79.2083C73.8727 79.7029 73.7063 80.2581 73.6737 80.8289V83.3701C73.6737 84.4274 74.4156 84.854 75.3245 84.3253Z" fill="url(#paint9_linear_10283_2868)"/>
<path d="M70.9097 43.7126C74.3211 43.7126 77.0865 42.114 77.0865 40.1419C77.0865 38.1699 74.3211 36.5713 70.9097 36.5713C67.4984 36.5713 64.733 38.1699 64.733 40.1419C64.733 42.114 67.4984 43.7126 70.9097 43.7126Z" fill="url(#paint10_linear_10283_2868)"/>
<path d="M76.9105 39.2794L70.9099 30.1162L64.8908 39.335L76.9105 39.2794Z" fill="url(#paint11_linear_10283_2868)"/>
<path d="M70.8821 30.8583L69.2684 28.1872C69.2137 28.0948 69.1976 27.9846 69.2237 27.8804C69.2497 27.7763 69.3157 27.6866 69.4075 27.6308C69.4536 27.6022 69.505 27.5832 69.5586 27.5747C69.6121 27.5663 69.6669 27.5686 69.7195 27.5816C69.7722 27.5945 69.8218 27.6178 69.8654 27.6502C69.9089 27.6825 69.9456 27.7232 69.9732 27.7699L70.9006 29.3744L72.0599 27.7421C72.1227 27.6535 72.218 27.5935 72.325 27.5752C72.4319 27.557 72.5418 27.582 72.6304 27.6447C72.7189 27.7074 72.7789 27.8027 72.7972 27.9097C72.8155 28.0167 72.7905 28.1265 72.7277 28.215L70.8821 30.8583Z" fill="#B7B7B7"/>
<path d="M70.9098 30.5243C70.8555 30.5243 70.8016 30.5135 70.7515 30.4924C70.7014 30.4713 70.656 30.4404 70.618 30.4015C70.5799 30.3626 70.5501 30.3165 70.5301 30.266C70.5102 30.2154 70.5005 30.1613 70.5018 30.1069L70.5945 27.3988C70.597 27.2922 70.641 27.1908 70.7173 27.1162C70.7935 27.0417 70.896 27 71.0026 27C71.0574 27.0012 71.1114 27.0132 71.1616 27.0353C71.2118 27.0574 71.2571 27.0891 71.295 27.1288C71.3329 27.1684 71.3627 27.2151 71.3825 27.2662C71.4023 27.3173 71.4119 27.3718 71.4107 27.4266L71.3179 30.1348C71.3131 30.2397 71.268 30.3388 71.192 30.4114C71.116 30.484 71.0149 30.5244 70.9098 30.5243Z" fill="#B7B7B7"/>
<path d="M70.9469 30.9231L68.6654 29.6803C68.6179 29.6548 68.5759 29.6201 68.5418 29.5783C68.5077 29.5365 68.4821 29.4884 68.4666 29.4367C68.4511 29.385 68.446 29.3308 68.4515 29.2771C68.4569 29.2234 68.4729 29.1714 68.4984 29.1239C68.524 29.0764 68.5587 29.0344 68.6005 29.0003C68.6423 28.9662 68.6904 28.9407 68.7421 28.9252C68.7937 28.9097 68.848 28.9045 68.9016 28.9099C68.9553 28.9154 69.0074 28.9314 69.0549 28.9569L70.9654 30.005L73.0893 28.9569C73.1374 28.9331 73.1897 28.919 73.2433 28.9155C73.2968 28.9119 73.3505 28.9189 73.4014 28.9362C73.4522 28.9534 73.4991 28.9805 73.5394 29.0159C73.5798 29.0513 73.6128 29.0943 73.6365 29.1424C73.6601 29.1898 73.6741 29.2415 73.6775 29.2943C73.6809 29.3472 73.6738 29.4002 73.6566 29.4503C73.6393 29.5004 73.6122 29.5465 73.5769 29.586C73.5416 29.6255 73.4988 29.6576 73.451 29.6803L70.9469 30.9231Z" fill="#B7B7B7"/>
<g style="mix-blend-mode:soft-light">
<path d="M68.9993 41.4867C70.0391 41.4867 70.882 40.6438 70.882 39.604C70.882 38.5642 70.0391 37.7213 68.9993 37.7213C67.9595 37.7213 67.1166 38.5642 67.1166 39.604C67.1166 40.6438 67.9595 41.4867 68.9993 41.4867Z" fill="white"/>
</g>
<g style="mix-blend-mode:soft-light">
<path d="M69.6856 34.6977C69.6856 34.9894 69.7721 35.2745 69.9342 35.517C70.0962 35.7595 70.3265 35.9485 70.596 36.0601C70.8654 36.1717 71.1619 36.2009 71.4479 36.144C71.734 36.0871 71.9967 35.9467 72.203 35.7404C72.4092 35.5342 72.5497 35.2715 72.6066 34.9854C72.6635 34.6994 72.6342 34.4029 72.5226 34.1334C72.411 33.8639 72.222 33.6336 71.9795 33.4716C71.737 33.3096 71.4519 33.2231 71.1603 33.2231C70.7699 33.2255 70.3963 33.3817 70.1202 33.6577C69.8442 33.9337 69.688 34.3074 69.6856 34.6977Z" fill="white"/>
</g>
<path d="M73.9148 40.5129C74.5653 40.5129 75.0927 39.9856 75.0927 39.3351C75.0927 38.6846 74.5653 38.1572 73.9148 38.1572C73.2643 38.1572 72.737 38.6846 72.737 39.3351C72.737 39.9856 73.2643 40.5129 73.9148 40.5129Z" fill="#F6F6F6"/>
<defs>
<linearGradient id="paint0_linear_10283_2868" x1="36.344" y1="63.903" x2="91.0631" y2="33.4272" gradientUnits="userSpaceOnUse">
<stop stop-color="#DE8000"/>
<stop offset="0.53" stop-color="#C85384"/>
<stop offset="1" stop-color="#D93B00"/>
</linearGradient>
<linearGradient id="paint1_linear_10283_2868" x1="40.22" y1="70.8767" x2="94.9391" y2="40.3916" gradientUnits="userSpaceOnUse">
<stop stop-color="#DE8000"/>
<stop offset="0.53" stop-color="#C85384"/>
<stop offset="1" stop-color="#D93B00"/>
</linearGradient>
<linearGradient id="paint2_linear_10283_2868" x1="37.1322" y1="65.3314" x2="91.8513" y2="34.8463" gradientUnits="userSpaceOnUse">
<stop stop-color="#DE8000"/>
<stop offset="0.53" stop-color="#C85384"/>
<stop offset="1" stop-color="#D93B00"/>
</linearGradient>
<linearGradient id="paint3_linear_10283_2868" x1="42.4929" y1="40.7912" x2="124.637" y2="55.3057" gradientUnits="userSpaceOnUse">
<stop stop-color="#DE8000"/>
<stop offset="0.53" stop-color="#C85384"/>
<stop offset="1" stop-color="#D93B00"/>
</linearGradient>
<linearGradient id="paint4_linear_10283_2868" x1="41.7231" y1="114.597" x2="139.123" y2="35.2357" gradientUnits="userSpaceOnUse">
<stop stop-color="#DE8000"/>
<stop offset="0.53" stop-color="#C85384"/>
<stop offset="1" stop-color="#D93B00"/>
</linearGradient>
<linearGradient id="paint5_linear_10283_2868" x1="38.6904" y1="110.878" x2="136.091" y2="31.5166" gradientUnits="userSpaceOnUse">
<stop stop-color="#DE8000"/>
<stop offset="0.53" stop-color="#C85384"/>
<stop offset="1" stop-color="#D93B00"/>
</linearGradient>
<linearGradient id="paint6_linear_10283_2868" x1="41.5562" y1="46.0868" x2="123.7" y2="60.6013" gradientUnits="userSpaceOnUse">
<stop stop-color="#DE8000"/>
<stop offset="0.53" stop-color="#C85384"/>
<stop offset="1" stop-color="#D93B00"/>
</linearGradient>
<linearGradient id="paint7_linear_10283_2868" x1="79.0905" y1="53.7929" x2="87.3633" y2="74.5491" gradientUnits="userSpaceOnUse">
<stop stop-color="#DE8000"/>
<stop offset="0.53" stop-color="#C85384"/>
<stop offset="1" stop-color="#D93B00"/>
</linearGradient>
<linearGradient id="paint8_linear_10283_2868" x1="60.3647" y1="73.6968" x2="86.6391" y2="81.5337" gradientUnits="userSpaceOnUse">
<stop stop-color="#DE8000"/>
<stop offset="0.53" stop-color="#C85384"/>
<stop offset="1" stop-color="#D93B00"/>
</linearGradient>
<linearGradient id="paint9_linear_10283_2868" x1="58.9831" y1="90.9473" x2="93.6694" y2="70.1913" gradientUnits="userSpaceOnUse">
<stop stop-color="#DE8000"/>
<stop offset="0.53" stop-color="#C85384"/>
<stop offset="1" stop-color="#D93B00"/>
</linearGradient>
<linearGradient id="paint10_linear_10283_2868" x1="65.8737" y1="47.6728" x2="83.4302" y2="21.4076" gradientUnits="userSpaceOnUse">
<stop stop-color="#DE8000"/>
<stop offset="0.53" stop-color="#C85384"/>
<stop offset="1" stop-color="#D93B00"/>
</linearGradient>
<linearGradient id="paint11_linear_10283_2868" x1="65.4287" y1="47.376" x2="82.9945" y2="21.1107" gradientUnits="userSpaceOnUse">
<stop stop-color="#DE8000"/>
<stop offset="0.53" stop-color="#C85384"/>
<stop offset="1" stop-color="#D93B00"/>
</linearGradient>
</defs>
</svg>
