<svg width="135" height="135" viewBox="0 0 135 135" fill="none" xmlns="http://www.w3.org/2000/svg">
<path d="M135 67.5C135 30.2208 104.779 0 67.5 0C30.2208 0 0 30.2208 0 67.5C0 104.779 30.2208 135 67.5 135C104.779 135 135 104.779 135 67.5Z" fill="#F6F6F6"/>
<path style="mix-blend-mode:multiply" d="M118.458 59.0825L107.734 52.8917L97.0099 46.7008C96.1002 46.1809 95.0736 45.9 94.0259 45.8842C92.9782 45.8685 91.9436 46.1186 91.0188 46.611L43.3394 74.1102C11.4966 92.503 15.1113 106.362 15.1113 106.362C15.1113 106.362 39.0758 108.449 70.9685 90.0666L118.648 62.5673C121.673 60.8099 118.458 59.0825 118.458 59.0825Z" fill="url(#paint0_linear_10283_2997)"/>
<path d="M119.417 57.6147L119.017 56.746L118.828 56.8858C118.607 56.6907 118.366 56.5199 118.109 56.3765L96.6605 43.9949C95.7511 43.474 94.7244 43.1926 93.6765 43.1768C92.6286 43.1611 91.594 43.4117 90.6694 43.905C89.1017 44.8137 89.4212 44.6439 89.4212 44.6439L117.05 60.6202C117.05 60.6202 116.731 60.79 118.298 59.8813C119.666 59.0426 119.746 58.2438 119.417 57.6147Z" fill="#B7B6B6"/>
<path d="M114.923 60.5503L117.809 58.8728C120.865 57.1054 117.659 55.3879 117.659 55.3879L96.1811 43.0063C95.2714 42.4863 94.2448 42.2054 93.1971 42.1897C92.1494 42.1739 91.1149 42.424 90.19 42.9164L87.3042 44.5939L114.923 60.5503Z" fill="#909090"/>
<path d="M108.753 52.9416L97.709 58.084C97.709 58.084 40.0744 98.7537 21.5418 88.8784L15.0814 93.0821C24.0681 99.3728 47.9027 99.6823 70.3195 86.7415C73.2252 85.064 113.675 61.8684 113.186 61.3591L113.406 57.2452L108.753 52.9416Z" fill="#D0D0D0"/>
<path d="M108.753 52.9416L97.709 58.084C97.709 58.084 40.0744 98.7537 21.5418 88.8784L15.0814 93.0821C24.0681 99.3728 47.9027 99.6823 70.3195 86.7415C73.2252 85.064 113.675 61.8684 113.186 61.3591L113.406 57.2452L108.753 52.9416Z" fill="url(#paint1_linear_10283_2997)"/>
<g style="mix-blend-mode:multiply">
<path d="M108.753 52.9416L97.709 58.084C97.709 58.084 40.0744 98.7537 21.5418 88.8784L15.0814 93.0821C24.0681 99.3728 47.9027 99.6823 70.3195 86.7415C73.2252 85.064 113.675 61.8684 113.186 61.3591L113.406 57.2452L108.753 52.9416Z" fill="#DADADA"/>
</g>
<path d="M66.8147 84.6246C32.9948 104.156 15.0814 93.082 15.0814 93.082C20.6731 99.3028 47.9027 101.879 70.3195 88.9282L116.192 62.4674C117.05 61.9781 117.5 61.0994 117.01 60.5902L113.406 57.2451L66.8147 84.6246Z" fill="url(#paint2_linear_10283_2997)"/>
<path d="M107.664 52.0429L96.9403 45.8521L86.1962 39.6513C85.2862 39.1322 84.2597 38.8518 83.2122 38.8361C82.1647 38.8204 81.1302 39.0699 80.2051 39.5614C72.1071 44.2445 46.2553 59.1624 43.3296 60.8299C11.4868 79.2227 15.1016 93.0821 15.1016 93.0821C15.1016 93.0821 39.066 95.169 70.9588 76.7863L107.844 55.5178C110.87 53.7604 107.664 52.0429 107.664 52.0429Z" fill="#F3F3F3"/>
<path opacity="0.3" d="M102.801 55.2981L97.4294 58.4035L75.9312 53.1413L69.2112 49.2571L80.5744 42.4571C81.4335 42.029 82.3803 41.8061 83.3403 41.8061C84.3002 41.8061 85.247 42.029 86.1062 42.4571L102.801 52.1028C104.329 52.9815 104.329 54.4194 102.801 55.2981Z" fill="black"/>
<path d="M97.4294 58.4035L87.544 64.105L75.9312 53.1213L79.1464 51.0244C80.004 50.5909 80.9514 50.3651 81.9123 50.3651C82.8732 50.3651 83.8207 50.5909 84.6782 51.0244L97.4294 58.4035Z" fill="#909090"/>
<path d="M85.6969 58.8128L69.2213 49.257C57.8344 54.6564 47.1119 61.358 37.2687 69.2274L36.2701 68.4685L31.3674 74.9789C30.4878 75.9652 29.9152 77.1867 29.7198 78.4937C29.6 81.0199 33.0449 82.6974 33.0449 82.6974C35.2394 84.0163 37.7648 84.6814 40.3242 84.6146C57.8183 84.355 87.5341 64.095 87.5341 64.095V60.2707L85.6969 58.8128Z" fill="#CBCBCB"/>
<path d="M87.5439 60.2807L69.2211 45.4227C69.2211 45.4227 35.4311 61.5588 34.9718 71.6538C34.8519 74.1801 38.2969 75.8476 38.2969 75.8476C40.4859 77.1717 43.0087 77.8405 45.5662 77.7747C63.0503 77.5051 87.5439 60.2807 87.5439 60.2807Z" fill="#F3F3F3"/>
<path d="M63.5694 62.1978C54.353 62.6771 47.5931 53.6006 47.5931 53.6006L42.1512 62.3077C40.4337 64.9737 40.9429 68.1191 46.4647 71.2944C49.9104 73.2826 53.8264 74.3101 57.8044 74.2697C61.7823 74.2293 65.6766 73.1225 69.0812 71.0647C70.0798 70.4856 86.2957 60.9896 87.5639 60.2607V57.6146L89.5609 51.0943L90.6593 49.6864C89.9603 49.257 72.7857 61.7285 63.5694 62.1978Z" fill="#5399A9"/>
<g style="mix-blend-mode:color">
<path d="M63.5694 62.1978C54.353 62.6771 47.5931 53.6006 47.5931 53.6006L42.1512 62.3077C40.4337 64.9737 40.9429 68.1191 46.4647 71.2944C49.9104 73.2826 53.8264 74.3101 57.8044 74.2697C61.7823 74.2293 65.6766 73.1225 69.0812 71.0647C70.0798 70.4856 86.2957 60.9896 87.5639 60.2607V57.6146L89.5609 51.0943L90.6593 49.6864C89.9603 49.257 72.7857 61.7285 63.5694 62.1978Z" fill="white"/>
</g>
<path opacity="0.15" d="M65.996 61.8883C65.1954 62.0478 64.3845 62.1512 63.5695 62.1978C62.7431 62.2436 61.9142 62.2136 61.0932 62.108L57.5485 74.3099C59.9574 74.2746 62.3459 73.8636 64.628 73.0917L65.996 61.8883Z" fill="#F3F3F3"/>
<path d="M90.7692 48.3584L90.3299 45.3628H89.1716C87.8602 44.1039 86.3612 43.0562 84.7282 42.2574C84.7282 42.2574 79.1564 33.5304 70.2097 38.6927L52.4859 48.8277L51.5872 49.3769H50.4789L48.4818 52.0729C46.3949 54.719 46.5448 57.9342 52.1764 61.1794C60.4342 65.9523 64.7977 66.172 69.8702 63.2463C70.8687 62.6972 86.2459 53.5407 87.4541 52.8517C90.1102 51.4039 90.9289 49.8262 90.7692 48.3584Z" fill="#CBCBCB"/>
<path d="M87.544 60.2807L90.6694 49.5666L89.1018 50.3854L85.6968 61.7385L87.544 60.2807Z" fill="#CBCBCB"/>
<path d="M84.7282 39.8409C84.7282 39.8409 75.9512 33.6102 67.6535 38.4031C66.5252 39.0521 55.3816 45.6324 54.4829 46.1416C49.7799 48.8676 46.4948 53.2111 54.1535 57.6346C61.8121 62.058 65.5865 62.4375 70.2995 59.7115C71.1782 59.2023 86.0861 50.3454 87.2145 49.7263C95.5122 44.8335 84.7282 39.8409 84.7282 39.8409Z" fill="#F3F3F3"/>
<path d="M74.2139 50.0159V49.3469H73.8045L73.6846 49.267L68.772 46.4312C68.3765 46.2342 67.9407 46.1317 67.4989 46.1317C67.057 46.1317 66.6212 46.2342 66.2257 46.4312L58.1177 50.9645H58.0578H57.5885V51.6435C57.6048 51.8008 57.6623 51.951 57.7552 52.079C57.8482 52.207 57.9732 52.3082 58.1177 52.3724L63.0305 55.2082C63.4246 55.4098 63.8609 55.5149 64.3035 55.5149C64.7462 55.5149 65.1826 55.4098 65.5767 55.2082L73.6846 50.6749C73.8201 50.6169 73.9393 50.5264 74.0315 50.4115C74.1238 50.2966 74.1865 50.1607 74.2139 50.0159Z" fill="#9D9D9D"/>
<path d="M65.5466 54.6192C65.1511 54.8161 64.7154 54.9186 64.2735 54.9186C63.8317 54.9186 63.3959 54.8161 63.0004 54.6192L58.0876 51.7834C57.9361 51.7295 57.8049 51.63 57.7121 51.4986C57.6193 51.3672 57.5695 51.2103 57.5695 51.0494C57.5695 50.8886 57.6193 50.7317 57.7121 50.6003C57.8049 50.4688 57.9361 50.3694 58.0876 50.3155L66.1956 45.7723C66.5911 45.5753 67.0269 45.4728 67.4688 45.4728C67.9106 45.4728 68.3464 45.5753 68.7419 45.7723L73.6545 48.618C73.8061 48.6719 73.9374 48.7714 74.0302 48.9028C74.123 49.0342 74.1727 49.1911 74.1727 49.3519C74.1727 49.5128 74.123 49.6697 74.0302 49.8011C73.9374 49.9326 73.8061 50.032 73.6545 50.0859L65.5466 54.6192Z" fill="#CBCBCB"/>
<path d="M77.7886 41.3788V41.8381C77.7962 41.9233 77.826 42.005 77.8751 42.0751C77.9242 42.1452 77.9907 42.2012 78.0682 42.2375L80.5046 43.6354C80.7163 43.7441 80.9507 43.8007 81.1886 43.8007C81.4264 43.8007 81.661 43.7441 81.8726 43.6354L85.9665 41.2689C86.0438 41.2351 86.1105 41.1811 86.1597 41.1126C86.2089 41.0441 86.2388 40.9635 86.2461 40.8795V40.3503L77.7886 41.3788Z" fill="#CBCBCB"/>
<path opacity="0.1" d="M80.5045 42.4172V43.6654C80.7162 43.774 80.9506 43.8307 81.1884 43.8307C81.4263 43.8307 81.6609 43.774 81.8725 43.6654V42.3673L80.5045 42.4172Z" fill="#E2D4C9"/>
<path d="M81.8725 43.1361C81.6608 43.2447 81.4263 43.3014 81.1884 43.3014C80.9505 43.3014 80.7161 43.2447 80.5045 43.1361L78.068 41.7381C77.9834 41.711 77.9096 41.6578 77.8572 41.586C77.8048 41.5142 77.7766 41.4276 77.7766 41.3387C77.7766 41.2499 77.8048 41.1633 77.8572 41.0915C77.9096 41.0197 77.9834 40.9664 78.068 40.9393L82.162 38.5828C82.3756 38.4749 82.6117 38.4186 82.851 38.4186C83.0904 38.4186 83.3263 38.4749 83.5399 38.5828L85.9664 39.9807C86.051 40.0078 86.1249 40.0611 86.1773 40.1329C86.2296 40.2047 86.2578 40.2913 86.2578 40.3802C86.2578 40.469 86.2296 40.5556 86.1773 40.6274C86.1249 40.6992 86.051 40.7525 85.9664 40.7796L81.8725 43.1361Z" fill="#F3F3F3"/>
<path d="M84.1291 40.2704V36.1465H81.9423V40.2704C81.9531 40.3663 81.9882 40.4578 82.0441 40.5364C82.1 40.615 82.1749 40.6781 82.2619 40.7198C82.5028 40.8379 82.7674 40.8993 83.0357 40.8993C83.3039 40.8993 83.5687 40.8379 83.8096 40.7198C83.8983 40.6806 83.9749 40.6181 84.0311 40.539C84.0874 40.4599 84.1212 40.3671 84.1291 40.2704Z" fill="#ACACAC"/>
<path d="M83.8095 36.5958C83.5687 36.714 83.3039 36.7754 83.0357 36.7754C82.7674 36.7754 82.5028 36.714 82.2619 36.5958C82.1702 36.5618 82.0911 36.5005 82.0352 36.4201C81.9793 36.3398 81.9494 36.2443 81.9494 36.1465C81.9494 36.0486 81.9793 35.9532 82.0352 35.8728C82.0911 35.7925 82.1702 35.7312 82.2619 35.6972C82.5014 35.5745 82.7666 35.5105 83.0357 35.5105C83.3048 35.5105 83.57 35.5745 83.8095 35.6972C83.9013 35.7312 83.9804 35.7925 84.0363 35.8728C84.0921 35.9532 84.1221 36.0486 84.1221 36.1465C84.1221 36.2443 84.0921 36.3398 84.0363 36.4201C83.9804 36.5005 83.9013 36.5618 83.8095 36.5958Z" fill="#57453D"/>
<path d="M85.6966 33.7001V27.9586H84.8479V33.7001C84.8506 33.7391 84.8641 33.7767 84.8871 33.8085C84.91 33.8402 84.9415 33.8649 84.9777 33.8798C85.0714 33.9242 85.1736 33.9472 85.2772 33.9472C85.3808 33.9472 85.4832 33.9242 85.5768 33.8798C85.6112 33.8635 85.6406 33.8382 85.6617 33.8065C85.6828 33.7749 85.6949 33.7381 85.6966 33.7001Z" fill="#ACACAC"/>
<path d="M86.1962 35.5174C86.1962 35.5174 86.4657 32.0525 83.0508 32.0525C79.6359 32.0525 79.8954 35.5174 79.8954 35.5174V36.6057C79.9222 36.8822 80.0225 37.1465 80.1858 37.3713C80.3491 37.596 80.5694 37.773 80.8241 37.8838C81.5144 38.2331 82.2772 38.415 83.0508 38.415C83.8244 38.415 84.5872 38.2331 85.2775 37.8838C85.5311 37.7699 85.7499 37.5905 85.9113 37.3642C86.0727 37.1379 86.171 36.8726 86.1962 36.5958V35.5174Z" fill="#D8D8D8"/>
<defs>
<linearGradient id="paint0_linear_10283_2997" x1="114.294" y1="55.2182" x2="-3.29143" y2="103.746" gradientUnits="userSpaceOnUse">
<stop offset="0.13" stop-color="#C9C9C9"/>
<stop offset="0.89" stop-color="white"/>
</linearGradient>
<linearGradient id="paint1_linear_10283_2997" x1="-37.4907" y1="44.9734" x2="211.55" y2="116.457" gradientUnits="userSpaceOnUse">
<stop stop-color="#DE8000"/>
<stop offset="0.53" stop-color="#C85384"/>
<stop offset="1" stop-color="#D93B00"/>
</linearGradient>
<linearGradient id="paint2_linear_10283_2997" x1="6.68387" y1="102.748" x2="153.776" y2="52.672" gradientUnits="userSpaceOnUse">
<stop stop-color="#DE8000"/>
<stop offset="0.53" stop-color="#C85384"/>
<stop offset="1" stop-color="#D93B00"/>
</linearGradient>
</defs>
</svg>
