<svg width="135" height="135" viewBox="0 0 135 135" fill="none" xmlns="http://www.w3.org/2000/svg">
<path d="M135 67.5C135 30.2208 104.779 0 67.5 0C30.2208 0 0 30.2208 0 67.5C0 104.779 30.2208 135 67.5 135C104.779 135 135 104.779 135 67.5Z" fill="#F6F6F6"/>
<path style="mix-blend-mode:multiply" d="M122.109 76.7962L88.8584 57.5647C86.6911 56.4765 84.1877 56.2655 81.8688 56.9756C81.7589 56.9756 66.5415 66.0322 66.4316 66.0721C66.0622 66.2019 80.8203 57.385 80.5108 57.5647L32.3621 85.7829L32.1025 85.9427C30.0555 87.2807 30.1554 89.3476 32.3921 90.6357L41.5385 95.9179H41.4886L35.7071 99.2729C33.7101 100.451 33.7101 102.348 35.7071 103.527L43.5655 108.06C44.7011 108.636 45.9566 108.937 47.2301 108.937C48.5035 108.937 49.759 108.636 50.8946 108.06L56.6761 104.695L65.5629 109.837C66.8322 110.482 68.2329 110.825 69.6563 110.841C71.0798 110.856 72.4877 110.544 73.7708 109.927L73.9505 109.837L74.0503 109.777L122.109 81.6091C122.396 81.4547 122.661 81.2633 122.898 81.0399C122.973 80.9785 123.043 80.9118 123.108 80.8402C124.356 79.5421 124.016 77.8646 122.109 76.7962Z" fill="url(#paint0_linear_10283_2867)"/>
<path d="M105.863 75.1287V75.8476C105.859 75.8808 105.859 75.9143 105.863 75.9474L105.813 76.1172L105.753 76.247C105.733 76.3062 105.706 76.3631 105.673 76.4167C105.673 76.4167 105.624 76.4966 105.604 76.5466L105.474 76.7363C105.424 76.7962 105.384 76.8561 105.324 76.916L105.084 77.1457L104.915 77.2855L104.765 77.4053C104.702 77.4543 104.635 77.4977 104.565 77.5351L104.355 77.6749L73.601 95.5484C73.4331 95.6449 73.2597 95.7316 73.0818 95.808L72.922 95.8779L72.4826 96.0477L72.3229 96.0976L72.0433 96.1775L71.8237 96.2374L71.5141 96.3073H71.3144L70.6853 96.3872H70.4856H70.1162H69.3273H69.0477H68.7881H68.5086H68.2689H67.9693H67.7497L67.4002 96.2973L67.2105 96.2474C67.0107 96.1913 66.814 96.1247 66.6213 96.0477L66.3517 95.9378C66.2925 95.8872 66.2389 95.8303 66.192 95.7681C66.0506 95.7082 65.9138 95.6381 65.7826 95.5584L34.8284 77.6849C34.3786 77.4841 33.99 77.1676 33.7023 76.7676C33.4146 76.3677 33.2382 75.8986 33.1909 75.4082V75.1586C31.9427 77.7048 31.5133 85.4334 33.3207 88.9382C33.632 89.5877 34.1476 90.1173 34.7885 90.446L65.7426 108.329L66.152 108.539L66.2918 108.599L66.5415 108.709L67.1406 108.909H67.2904L67.6199 108.988H67.7197H67.8595H68.1491H68.2689H68.3987H68.6683H70.0063H70.3758H70.5655C70.7752 108.988 70.9949 108.939 71.1946 108.899H71.3643L71.6738 108.839C71.7424 108.814 71.8124 108.794 71.8836 108.779L72.1731 108.699H72.233H72.3329L72.7722 108.539C72.7722 108.539 72.8721 108.539 72.922 108.469C72.9719 108.399 73.2815 108.3 73.4412 108.21L104.196 90.3361H104.266L104.405 90.2363L104.605 90.1065L104.765 89.9767L104.935 89.8469L105.134 89.6471V89.5972L105.234 89.4774C105.237 89.4575 105.237 89.4374 105.234 89.4175C105.281 89.3566 105.324 89.2933 105.364 89.2278L105.424 89.1479C105.424 89.1479 106.732 87.4304 106.732 82.0584C106.902 75.9175 105.863 75.1287 105.863 75.1287Z" fill="#D0D0D0"/>
<path d="M104.266 73.1916C106.432 74.4398 106.442 76.4668 104.266 77.7149L73.5111 95.5885C72.3017 96.204 70.964 96.5249 69.6069 96.5249C68.2499 96.5249 66.9121 96.204 65.7027 95.5885L34.7486 77.7149C32.5818 76.4668 32.5718 74.4398 34.7486 73.1916L65.503 55.3181C66.7124 54.7026 68.0502 54.3817 69.4072 54.3817C70.7643 54.3817 72.1021 54.7026 73.3115 55.3181L104.266 73.1916Z" fill="url(#paint1_linear_10283_2867)"/>
<path d="M98.7637 76.6165L98.6139 76.7663C98.4279 76.9321 98.2235 77.0762 98.0048 77.1956L73.0418 91.7041H72.9619L72.8321 91.774C71.8602 92.2435 70.7928 92.4815 69.7136 92.4694C68.6343 92.4572 67.5725 92.1953 66.6114 91.7041L41.3987 77.1956C39.7012 76.1971 39.6214 74.6494 41.1791 73.6409L41.3688 73.5111L66.4216 58.9527C66.6696 58.809 66.9303 58.6887 67.2005 58.5932L67.4601 58.5033C69.2259 57.9631 71.132 58.124 72.7822 58.9527L97.9949 73.5111C99.4427 74.3499 99.7023 75.628 98.7637 76.6165Z" fill="#E2E2E2"/>
<path d="M73.0418 91.7041H72.9619L72.8321 91.774L41.2289 73.6409L41.4187 73.5111L73.0418 91.7041Z" fill="white"/>
<path d="M75.7877 90.1066L75.578 90.2364L43.9849 71.9934L44.1945 71.8736L75.7877 90.1066Z" fill="white"/>
<path d="M78.2441 88.6786L78.0344 88.8084L46.4612 70.5555L46.6709 70.4357L78.2441 88.6786Z" fill="white"/>
<path d="M80.9001 87.141L80.6904 87.2608L49.1472 68.9979L49.3569 68.868L80.9001 87.141Z" fill="white"/>
<path d="M83.5363 85.6033L83.3266 85.7331L51.7534 67.4801L51.9631 67.3603L83.5363 85.6033Z" fill="white"/>
<path d="M85.8927 84.2352L85.683 84.365L54.0399 66.152L54.2496 66.0322L85.8927 84.2352Z" fill="white"/>
<path d="M88.5688 82.6876L88.3591 82.8074L56.716 64.6043L56.9257 64.4745L88.5688 82.6876Z" fill="white"/>
<path d="M91.0752 81.2296L90.8555 81.3495L59.2523 63.1265L59.472 62.9966L91.0752 81.2296Z" fill="white"/>
<path d="M93.7012 79.702L93.4815 79.8218L61.8983 61.5888L62.108 61.469L93.7012 79.702Z" fill="white"/>
<path d="M96.3573 78.1543L96.1476 78.2741L64.5944 60.0212L64.804 59.8914L96.3573 78.1543Z" fill="white"/>
<path d="M98.7637 76.6165L98.6139 76.7662L67.1905 58.5932L67.4501 58.5033L98.7637 76.6165Z" fill="white"/>
<path d="M69.7867 92.7726C68.6312 92.7976 67.4889 92.5223 66.4716 91.9737L41.229 77.4353C40.8339 77.2558 40.4915 76.9779 40.2345 76.6283C39.9775 76.2786 39.8146 75.8689 39.7612 75.4382C39.7768 75.0254 39.9002 74.6238 40.1192 74.2734C40.3382 73.9231 40.645 73.6361 41.0093 73.4412L41.209 73.3114L66.2619 58.7529C66.5221 58.6005 66.7962 58.4735 67.0807 58.3735L67.3503 58.2737C68.0727 58.058 68.8231 57.9503 69.577 57.9541C70.7356 57.9301 71.8808 58.2053 72.9021 58.7529L98.1447 73.2714C98.5082 73.4471 98.8273 73.7027 99.078 74.0191C99.3288 74.3356 99.5047 74.7047 99.5925 75.0987C99.6329 75.4112 99.5988 75.7288 99.4929 76.0256C99.387 76.3223 99.2124 76.5898 98.9834 76.8062L98.8137 76.976C98.6144 77.1518 98.3967 77.3058 98.1646 77.4353L73.1118 91.9937L72.972 92.0836C71.9806 92.5647 70.8883 92.8009 69.7867 92.7726ZM69.597 58.4634C68.9009 58.4601 68.2081 58.5576 67.54 58.7529L67.2904 58.8428C67.0376 58.9336 66.7936 59.0473 66.5615 59.1823L41.5186 73.8007L41.3388 73.9105C41.0571 74.0552 40.8173 74.2698 40.6425 74.5338C40.4676 74.7979 40.3635 75.1024 40.3403 75.4183C40.3862 75.7599 40.5198 76.0838 40.728 76.3585C40.9363 76.6333 41.212 76.8494 41.5285 76.9859L66.7412 91.5444C67.6616 92.0377 68.6925 92.2886 69.7367 92.2733C70.7478 92.2939 71.7486 92.0677 72.6524 91.6143L72.7723 91.5444H72.8522L97.8152 77.0359C98.0122 76.9231 98.1963 76.7891 98.3643 76.6365L98.5041 76.4967C98.6725 76.3425 98.8025 76.1513 98.884 75.9381C98.9655 75.7249 98.9961 75.4956 98.9734 75.2685C98.8991 74.9577 98.7554 74.6679 98.553 74.4206C98.3507 74.1733 98.095 73.975 97.8052 73.8406L72.5825 59.2822C71.6716 58.7661 70.6439 58.4912 69.597 58.4834V58.4634Z" fill="white"/>
<path d="M56.9855 96.1675V102.249C56.9855 102.249 56.9855 102.318 56.9855 102.348C56.9855 102.378 56.9855 102.438 56.9855 102.488V102.578C56.9899 102.625 56.9899 102.671 56.9855 102.718C56.9909 102.744 56.9909 102.771 56.9855 102.798L56.9256 102.938V102.997L56.8158 103.157C56.8201 103.165 56.8225 103.173 56.8225 103.182C56.8225 103.191 56.8201 103.2 56.8158 103.207C56.7925 103.246 56.7658 103.283 56.7359 103.317L56.5761 103.487L56.4364 103.607L56.3065 103.706L56.1368 103.816L56.027 103.896H55.967L50.8446 106.892L50.4053 107.111L50.2755 107.161L49.916 107.301H49.8261L49.5965 107.371H49.4068L49.1671 107.431H49.0074L48.4981 107.511H48.3184H48.0188H46.9105C46.8343 107.521 46.757 107.521 46.6808 107.511H46.4711L46.2315 107.461H46.1117H46.0417L45.7522 107.381H45.6324C45.4625 107.335 45.2958 107.278 45.1331 107.211L44.9234 107.121L44.8036 107.061C44.6875 107.011 44.5742 106.954 44.4641 106.892L37.4744 102.898C37.1252 102.737 36.8201 102.494 36.5853 102.19C36.3505 101.885 36.1931 101.529 36.1264 101.15C36.1215 101.1 36.1215 101.05 36.1264 101V95.0093C36.157 95.3847 36.2832 95.746 36.4929 96.0589C36.7026 96.3718 36.989 96.6257 37.3247 96.7966C37.3778 96.8354 37.4347 96.8689 37.4944 96.8965L44.4841 100.891L44.8136 101.07L44.9334 101.12L45.173 101.22L45.6623 101.39H45.8221L46.1017 101.46H46.3013H46.541H46.7507H46.9804H47.19H48.0887H48.3982H48.558L49.0772 101.39H49.257H49.5066L49.6963 101.34L49.926 101.27L50.0558 101.22C50.1783 101.185 50.2983 101.141 50.4153 101.09L50.5551 101.03L50.9844 100.811L56.1168 97.8151L56.2566 97.7352L56.4264 97.6254L56.5562 97.5355C56.5954 97.4877 56.6427 97.4472 56.6959 97.4157L56.8857 97.216C56.9286 97.1685 56.9686 97.1185 57.0055 97.0662C57.0477 97.0135 57.0846 96.9566 57.1153 96.8965C57.1411 96.867 57.1614 96.8332 57.1752 96.7966C57.2045 96.7532 57.228 96.7062 57.2452 96.6568L57.2951 96.547C57.2893 96.5006 57.2893 96.4536 57.2951 96.4072V96.2874C57.3 96.2409 57.3 96.1941 57.2951 96.1476C57.1916 96.1334 57.0863 96.1402 56.9855 96.1675Z" fill="#EEAE0B"/>
<g style="mix-blend-mode:color">
<path d="M56.9855 96.1675V102.249C56.9855 102.249 56.9855 102.318 56.9855 102.348C56.9855 102.378 56.9855 102.438 56.9855 102.488V102.578C56.9899 102.625 56.9899 102.671 56.9855 102.718C56.9909 102.744 56.9909 102.771 56.9855 102.798L56.9256 102.938V102.997L56.8158 103.157C56.8201 103.165 56.8225 103.173 56.8225 103.182C56.8225 103.191 56.8201 103.2 56.8158 103.207C56.7925 103.246 56.7658 103.283 56.7359 103.317L56.5761 103.487L56.4364 103.607L56.3065 103.706L56.1368 103.816L56.027 103.896H55.967L50.8446 106.892L50.4053 107.111L50.2755 107.161L49.916 107.301H49.8261L49.5965 107.371H49.4068L49.1671 107.431H49.0074L48.4981 107.511H48.3184H48.0188H46.9105C46.8343 107.521 46.757 107.521 46.6808 107.511H46.4711L46.2315 107.461H46.1117H46.0417L45.7522 107.381H45.6324C45.4625 107.335 45.2958 107.278 45.1331 107.211L44.9234 107.121L44.8036 107.061C44.6875 107.011 44.5742 106.954 44.4641 106.892L37.4744 102.898C37.1252 102.737 36.8201 102.494 36.5853 102.19C36.3505 101.885 36.1931 101.529 36.1264 101.15C36.1215 101.1 36.1215 101.05 36.1264 101V95.0093C36.157 95.3847 36.2832 95.746 36.4929 96.0589C36.7026 96.3718 36.989 96.6257 37.3247 96.7966C37.3778 96.8354 37.4347 96.8689 37.4944 96.8965L44.4841 100.891L44.8136 101.07L44.9334 101.12L45.173 101.22L45.6623 101.39H45.8221L46.1017 101.46H46.3013H46.541H46.7507H46.9804H47.19H48.0887H48.3982H48.558L49.0772 101.39H49.257H49.5066L49.6963 101.34L49.926 101.27L50.0558 101.22C50.1783 101.185 50.2983 101.141 50.4153 101.09L50.5551 101.03L50.9844 100.811L56.1168 97.8151L56.2566 97.7352L56.4264 97.6254L56.5562 97.5355C56.5954 97.4877 56.6427 97.4472 56.6959 97.4157L56.8857 97.216C56.9286 97.1685 56.9686 97.1185 57.0055 97.0662C57.0477 97.0135 57.0846 96.9566 57.1153 96.8965C57.1411 96.867 57.1614 96.8332 57.1752 96.7966C57.2045 96.7532 57.228 96.7062 57.2452 96.6568L57.2951 96.547C57.2893 96.5006 57.2893 96.4536 57.2951 96.4072V96.2874C57.3 96.2409 57.3 96.1941 57.2951 96.1476C57.1916 96.1334 57.0863 96.1402 56.9855 96.1675Z" fill="white"/>
</g>
<path d="M56.9756 99.1133V102.249C56.9756 102.249 56.9756 102.319 56.9756 102.348C56.9756 102.378 56.9756 102.438 56.9756 102.488V102.578C56.98 102.625 56.98 102.671 56.9756 102.718C56.981 102.744 56.981 102.771 56.9756 102.798L56.9157 102.938V102.998L56.8059 103.157C56.8102 103.165 56.8125 103.173 56.8125 103.182C56.8125 103.191 56.8102 103.2 56.8059 103.207C56.7826 103.246 56.7558 103.283 56.726 103.317L56.5662 103.487L56.4264 103.607L56.2966 103.706L56.1269 103.816L56.017 103.896H55.9571L50.8347 106.892L50.3953 107.111L50.2655 107.161L49.9061 107.301H49.8162L49.5865 107.371H49.3968L49.1572 107.431H48.9974L48.4882 107.511H48.3084H48.0089H46.9005C46.8243 107.521 46.7471 107.521 46.6709 107.511H46.4612L46.2215 107.461H46.1017H46.0318L45.7422 107.381H45.6224C45.4526 107.335 45.2859 107.278 45.1232 107.211L44.9135 107.121L44.7937 107.061C44.6776 107.011 44.5643 106.954 44.4542 106.892L37.4645 102.898C37.1153 102.737 36.8102 102.494 36.5754 102.19C36.3406 101.886 36.1831 101.529 36.1165 101.15V97.8152C36.1454 98.1924 36.2708 98.5557 36.4807 98.8705C36.6905 99.1852 36.9777 99.4408 37.3147 99.6125C37.3679 99.6513 37.4247 99.6848 37.4845 99.7124L44.4741 103.706L44.8036 103.876L44.9235 103.936C45.0017 103.97 45.0816 104 45.1631 104.026C45.3224 104.093 45.4858 104.15 45.6524 104.196H45.8121L46.0917 104.266H46.2914L46.5311 104.316H46.7408H46.9704H47.1801H48.0788H48.3883H48.5481L49.0673 104.236H49.2471L49.4967 104.176H49.6864L49.9161 104.106L50.0459 104.056C50.1686 104.017 50.2886 103.97 50.4053 103.916H50.5451L50.9745 103.696L56.1069 100.701L56.2467 100.611L56.4164 100.501L56.5462 100.401L56.686 100.282L56.8758 100.102C56.9211 100.056 56.9612 100.006 56.9956 99.952L57.1054 99.8022C57.1292 99.7678 57.1492 99.731 57.1653 99.6924C57.1926 99.6479 57.216 99.6011 57.2352 99.5526L57.2851 99.4328C57.2819 99.3862 57.2819 99.3395 57.2851 99.293V99.1832C57.2901 99.1334 57.2901 99.0832 57.2851 99.0334C57.2745 98.9923 57.2481 98.9572 57.2116 98.9356C57.1751 98.9141 57.1315 98.908 57.0904 98.9185C57.0494 98.9291 57.0142 98.9556 56.9927 98.9921C56.9712 99.0286 56.965 99.0722 56.9756 99.1133Z" fill="url(#paint2_linear_10283_2867)"/>
<path d="M55.6276 94.2703C57.4249 95.2688 57.4349 96.9963 55.6276 98.0347L50.4952 101.03C49.4883 101.542 48.3746 101.809 47.245 101.809C46.1154 101.809 45.0017 101.542 43.9948 101.03L37.0052 97.0362C35.1979 96.0377 35.1879 94.3102 37.0052 93.2817L42.1276 90.2862C43.1345 89.7741 44.2481 89.5071 45.3778 89.5071C46.5074 89.5071 47.6211 89.7741 48.628 90.2862L55.6276 94.2703Z" fill="#E2E2E2"/>
<path d="M75.5382 56.3765L73.7708 48.6779H66.3318L64.5544 56.3765C64.2749 57.375 64.7841 58.3735 66.1122 59.1823C67.3341 59.7977 68.6832 60.1183 70.0513 60.1183C71.4194 60.1183 72.7686 59.7977 73.9905 59.1823C75.3085 58.4134 75.8277 57.365 75.5382 56.3765Z" fill="#ED9B0A"/>
<g style="mix-blend-mode:color">
<path d="M75.5382 56.3765L73.7708 48.6779H66.3318L64.5544 56.3765C64.2749 57.375 64.7841 58.3735 66.1122 59.1823C67.3341 59.7977 68.6832 60.1183 70.0513 60.1183C71.4194 60.1183 72.7686 59.7977 73.9905 59.1823C75.3085 58.4134 75.8277 57.365 75.5382 56.3765Z" fill="white"/>
</g>
<path d="M72.6724 33.3905C71.8588 32.9767 70.959 32.7609 70.0463 32.7609C69.1335 32.7609 68.2337 32.9767 67.4202 33.3905C67.119 33.5223 66.859 33.7328 66.6674 33.9999C66.4759 34.267 66.3599 34.5808 66.3318 34.9083V48.6779C66.361 49.0051 66.4773 49.3184 66.6687 49.5854C66.8601 49.8523 67.1196 50.0631 67.4202 50.1957C68.2337 50.6095 69.1335 50.8253 70.0463 50.8253C70.959 50.8253 71.8588 50.6095 72.6724 50.1957C72.9723 50.061 73.2317 49.85 73.4244 49.5836C73.6172 49.3172 73.7366 49.0049 73.7707 48.6779V34.9083C73.7407 34.5801 73.6228 34.2659 73.4295 33.9989C73.2363 33.7319 72.9748 33.5217 72.6724 33.3905Z" fill="#EEAE0B"/>
<g style="mix-blend-mode:color">
<path d="M72.6724 33.3905C71.8588 32.9767 70.959 32.7609 70.0463 32.7609C69.1335 32.7609 68.2337 32.9767 67.4202 33.3905C67.119 33.5223 66.859 33.7328 66.6674 33.9999C66.4759 34.267 66.3599 34.5808 66.3318 34.9083V48.6779C66.361 49.0051 66.4773 49.3184 66.6687 49.5854C66.8601 49.8523 67.1196 50.0631 67.4202 50.1957C68.2337 50.6095 69.1335 50.8253 70.0463 50.8253C70.959 50.8253 71.8588 50.6095 72.6724 50.1957C72.9723 50.061 73.2317 49.85 73.4244 49.5836C73.6172 49.3172 73.7366 49.0049 73.7707 48.6779V34.9083C73.7407 34.5801 73.6228 34.2659 73.4295 33.9989C73.2363 33.7319 72.9748 33.5217 72.6724 33.3905Z" fill="white"/>
</g>
<path d="M76.0574 30.2253C76.0574 31.4102 75.706 32.5685 75.0477 33.5537C74.3894 34.539 73.4537 35.3069 72.3589 35.7603C71.2642 36.2138 70.0596 36.3324 68.8975 36.1013C67.7353 35.8701 66.6678 35.2995 65.8299 34.4616C64.992 33.6237 64.4214 32.5562 64.1903 31.3941C63.9591 30.2319 64.0777 29.0273 64.5312 27.9326C64.9846 26.8378 65.7525 25.9021 66.7378 25.2438C67.723 24.5855 68.8813 24.2341 70.0663 24.2341C71.6552 24.2341 73.1791 24.8653 74.3026 25.9889C75.4262 27.1124 76.0574 28.6363 76.0574 30.2253Z" fill="#F6CF47"/>
<g style="mix-blend-mode:color">
<path d="M76.0574 30.2253C76.0574 31.4102 75.706 32.5685 75.0477 33.5537C74.3894 34.539 73.4537 35.3069 72.3589 35.7603C71.2642 36.2138 70.0596 36.3324 68.8975 36.1013C67.7353 35.8701 66.6678 35.2995 65.8299 34.4616C64.992 33.6237 64.4214 32.5562 64.1903 31.3941C63.9591 30.2319 64.0777 29.0273 64.5312 27.9326C64.9846 26.8378 65.7525 25.9021 66.7378 25.2438C67.723 24.5855 68.8813 24.2341 70.0663 24.2341C71.6552 24.2341 73.1791 24.8653 74.3026 25.9889C75.4262 27.1124 76.0574 28.6363 76.0574 30.2253Z" fill="white"/>
</g>
<path d="M74.939 26.6007C74.8791 26.4509 70.0463 17.1846 70.0463 17.1846C70.0463 17.1846 65.2334 26.4209 65.1935 26.5108C64.7841 27.5093 65.1935 28.5079 66.5115 29.2567C67.6068 29.8128 68.8179 30.1026 70.0463 30.1026C71.2746 30.1026 72.4857 29.8128 73.581 29.2567C74.8292 28.5378 75.2885 27.5293 74.939 26.6007Z" fill="url(#paint3_linear_10283_2867)"/>
<path opacity="0.5" d="M68.4686 40.9195V50.6251L65.8025 58.9927L43.4956 71.9535L42.3573 66.901V56.0071L68.4686 40.9195Z" fill="#D4D4D4"/>
<path opacity="0.5" d="M71.4342 40.9793V50.6749L73.8506 59.2522L95.6184 71.8236L96.6868 67.3003V55.5677L71.4342 40.9793Z" fill="#D4D4D4"/>
<path d="M41.0392 53.351C41.3977 53.5829 41.696 53.8966 41.9095 54.2664C42.1231 54.6362 42.2457 55.0514 42.2674 55.4778C42.2828 55.6294 42.2576 55.7823 42.1945 55.9209C42.1313 56.0595 42.0324 56.1789 41.9079 56.2666L68.3887 40.9793C68.5132 40.8915 68.6121 40.7722 68.6752 40.6336C68.7384 40.495 68.7636 40.342 68.7481 40.1905C68.7265 39.764 68.6038 39.3488 68.3903 38.9791C68.1768 38.6093 67.8784 38.2955 67.5199 38.0636C67.3949 37.9714 67.2474 37.9145 67.0929 37.8987C66.9383 37.8829 66.7824 37.9088 66.6413 37.9737L40.1705 53.2611C40.3098 53.1959 40.4642 53.1699 40.6173 53.1857C40.7703 53.2015 40.9161 53.2587 41.0392 53.351Z" fill="url(#paint4_linear_10283_2867)"/>
<path d="M40.1706 53.2611C40.0453 53.3505 39.946 53.4715 39.8828 53.6119C39.8196 53.7522 39.7949 53.9069 39.8111 54.0599C39.8359 54.4856 39.9599 54.8996 40.1732 55.2689C40.3864 55.6382 40.683 55.9525 41.0393 56.1868C41.1642 56.2755 41.3103 56.3296 41.4629 56.3437C41.6155 56.3577 41.769 56.3311 41.908 56.2666C42.0325 56.1789 42.1314 56.0595 42.1946 55.9209C42.2578 55.7823 42.2829 55.6294 42.2675 55.4778C42.2458 55.0514 42.1232 54.6362 41.9097 54.2664C41.6961 53.8966 41.3978 53.5829 41.0393 53.351C40.9162 53.2587 40.7704 53.2015 40.6174 53.1857C40.4644 53.1699 40.3099 53.1959 40.1706 53.2611Z" fill="#F33A39"/>
<path d="M97.5455 55.4778C97.5672 55.0514 97.6899 54.6362 97.9034 54.2664C98.1169 53.8966 98.4152 53.5829 98.7737 53.351C98.8968 53.2587 99.0426 53.2015 99.1956 53.1857C99.3486 53.1699 99.5031 53.1959 99.6424 53.2611L73.1816 37.9737C73.0405 37.9088 72.8846 37.8829 72.73 37.8987C72.5755 37.9145 72.428 37.9714 72.3029 38.0636C71.9474 38.2978 71.6519 38.6124 71.4403 38.9818C71.2287 39.3513 71.1069 39.7653 71.0847 40.1905C71.0671 40.3422 71.0913 40.4959 71.1547 40.6349C71.218 40.7739 71.3182 40.893 71.4442 40.9793L97.915 56.2666C97.7887 56.1801 97.6878 56.0613 97.6228 55.9226C97.5579 55.7839 97.5312 55.6303 97.5455 55.4778Z" fill="url(#paint5_linear_10283_2867)"/>
<path d="M97.9049 56.2666C98.0439 56.3311 98.1975 56.3577 98.35 56.3437C98.5026 56.3296 98.6487 56.2755 98.7736 56.1868C99.1299 55.9525 99.4265 55.6382 99.6398 55.2689C99.853 54.8996 99.977 54.4856 100.002 54.0599C100.018 53.9069 99.9933 53.7522 99.9301 53.6119C99.867 53.4715 99.7676 53.3505 99.6423 53.2611C99.503 53.1959 99.3485 53.1699 99.1955 53.1857C99.0425 53.2015 98.8967 53.2587 98.7736 53.351C98.4151 53.5829 98.1168 53.8966 97.9033 54.2664C97.6897 54.6362 97.5671 55.0514 97.5454 55.4778C97.53 55.6294 97.5552 55.7823 97.6183 55.9209C97.6815 56.0595 97.7804 56.1789 97.9049 56.2666Z" fill="#F33A39"/>
<path d="M105.893 74.9889L104.116 67.3003H96.6868L94.9094 74.9889C94.6198 75.9874 95.1391 77.0359 96.4671 77.7947C97.6859 78.4147 99.0339 78.7379 100.401 78.7379C101.769 78.7379 103.117 78.4147 104.335 77.7947C105.663 77.0359 106.183 75.9774 105.893 74.9889Z" fill="#ED9B0A"/>
<g style="mix-blend-mode:color">
<path d="M105.893 74.9889L104.116 67.3003H96.6868L94.9094 74.9889C94.6198 75.9874 95.1391 77.0359 96.4671 77.7947C97.6859 78.4147 99.0339 78.7379 100.401 78.7379C101.769 78.7379 103.117 78.4147 104.335 77.7947C105.663 77.0359 106.183 75.9774 105.893 74.9889Z" fill="white"/>
</g>
<path d="M103.027 52.003C102.212 51.5898 101.311 51.3745 100.396 51.3745C99.4821 51.3745 98.5807 51.5898 97.7652 52.003C97.4672 52.1378 97.2103 52.3494 97.0208 52.616C96.8314 52.8827 96.7161 53.1949 96.6868 53.5207V67.3003C96.7161 67.6261 96.8314 67.9383 97.0208 68.205C97.2103 68.4716 97.4672 68.6832 97.7652 68.8181C98.5807 69.2313 99.4821 69.4466 100.396 69.4466C101.311 69.4466 102.212 69.2313 103.027 68.8181C103.328 68.6855 103.587 68.4747 103.779 68.2078C103.97 67.9409 104.087 67.6275 104.116 67.3003V53.5207C104.087 53.1936 103.97 52.8802 103.779 52.6132C103.587 52.3463 103.328 52.1356 103.027 52.003Z" fill="#EEAE0B"/>
<g style="mix-blend-mode:color">
<path d="M103.027 52.003C102.212 51.5898 101.311 51.3745 100.396 51.3745C99.4821 51.3745 98.5807 51.5898 97.7652 52.003C97.4672 52.1378 97.2103 52.3494 97.0208 52.616C96.8314 52.8827 96.7161 53.1949 96.6868 53.5207V67.3003C96.7161 67.6261 96.8314 67.9383 97.0208 68.205C97.2103 68.4716 97.4672 68.6832 97.7652 68.8181C98.5807 69.2313 99.4821 69.4466 100.396 69.4466C101.311 69.4466 102.212 69.2313 103.027 68.8181C103.328 68.6855 103.587 68.4747 103.779 68.2078C103.97 67.9409 104.087 67.6275 104.116 67.3003V53.5207C104.087 53.1936 103.97 52.8802 103.779 52.6132C103.587 52.3463 103.328 52.1356 103.027 52.003Z" fill="white"/>
</g>
<path d="M106.412 48.8377C106.412 50.0226 106.061 51.1809 105.403 52.1662C104.744 53.1514 103.809 53.9193 102.714 54.3728C101.619 54.8262 100.415 54.9448 99.2525 54.7137C98.0903 54.4825 97.0228 53.9119 96.1849 53.074C95.3471 52.2362 94.7765 51.1687 94.5453 50.0065C94.3141 48.8443 94.4328 47.6397 94.8862 46.545C95.3397 45.4502 96.1076 44.5146 97.0928 43.8562C98.078 43.1979 99.2364 42.8466 100.421 42.8466C102.01 42.8466 103.534 43.4778 104.658 44.6013C105.781 45.7249 106.412 47.2487 106.412 48.8377Z" fill="#F6CF47"/>
<g style="mix-blend-mode:color">
<path d="M106.412 48.8377C106.412 50.0226 106.061 51.1809 105.403 52.1662C104.744 53.1514 103.809 53.9193 102.714 54.3728C101.619 54.8262 100.415 54.9448 99.2525 54.7137C98.0903 54.4825 97.0228 53.9119 96.1849 53.074C95.3471 52.2362 94.7765 51.1687 94.5453 50.0065C94.3141 48.8443 94.4328 47.6397 94.8862 46.545C95.3397 45.4502 96.1076 44.5146 97.0928 43.8562C98.078 43.1979 99.2364 42.8466 100.421 42.8466C102.01 42.8466 103.534 43.4778 104.658 44.6013C105.781 45.7249 106.412 47.2487 106.412 48.8377Z" fill="white"/>
</g>
<path d="M105.294 45.223C105.234 45.0832 100.401 35.8069 100.401 35.8069L95.5484 45.1331C95.139 46.1316 95.5484 47.1302 96.8664 47.8791C97.9618 48.4351 99.1728 48.7249 100.401 48.7249C101.63 48.7249 102.841 48.4351 103.936 47.8791C105.184 47.1601 105.643 46.1516 105.294 45.223Z" fill="url(#paint6_linear_10283_2867)"/>
<path d="M72.2929 72.1231C72.6503 72.3562 72.9478 72.6703 73.1612 73.0398C73.3746 73.4093 73.4979 73.8239 73.5211 74.25C73.5354 74.4018 73.5109 74.5549 73.4497 74.6946C73.3886 74.8344 73.2929 74.9563 73.1716 75.0488L99.6424 59.7614C99.7677 59.6721 99.867 59.551 99.9302 59.4107C99.9934 59.2703 100.018 59.1157 100.002 58.9626C99.9786 58.5366 99.8553 58.122 99.6419 57.7524C99.4285 57.3829 99.1311 57.0689 98.7737 56.8358C98.6497 56.7451 98.5034 56.6898 98.3504 56.6757C98.1974 56.6616 98.0435 56.6893 97.905 56.7559L71.4342 72.0333C71.5725 71.9711 71.7249 71.9466 71.8757 71.9624C72.0265 71.9782 72.1705 72.0337 72.2929 72.1231Z" fill="url(#paint7_linear_10283_2867)"/>
<path d="M71.4242 72.0333C71.3015 72.1246 71.2047 72.2462 71.1434 72.3863C71.0821 72.5264 71.0585 72.6801 71.0748 72.8321C71.0969 73.2573 71.2187 73.6714 71.4303 74.0408C71.6419 74.4103 71.9374 74.7248 72.2929 74.959C72.418 75.0512 72.5655 75.1081 72.72 75.1239C72.8746 75.1397 73.0305 75.1138 73.1716 75.0489C73.2929 74.9563 73.3886 74.8344 73.4498 74.6947C73.5109 74.5549 73.5355 74.4019 73.5211 74.25C73.4979 73.824 73.3746 73.4094 73.1612 73.0399C72.9478 72.6703 72.6503 72.3563 72.2929 72.1232C72.1705 72.0337 72.0265 71.9783 71.8757 71.9625C71.7249 71.9467 71.5725 71.9711 71.4342 72.0333H71.4242Z" fill="#F33A39"/>
<path d="M44.1347 74.5895L42.3573 66.9009H34.9183L33.1509 74.5895C32.8614 75.588 33.3806 76.6365 34.7086 77.3953C35.9274 78.0153 37.2754 78.3384 38.6428 78.3384C40.0102 78.3384 41.3582 78.0153 42.577 77.3953C43.905 76.6365 44.4142 75.578 44.1347 74.5895Z" fill="#ED9B0A"/>
<path d="M41.2289 51.6036C40.4134 51.1904 39.512 50.975 38.5978 50.975C37.6836 50.975 36.7823 51.1904 35.9667 51.6036C35.6674 51.7379 35.4091 51.9491 35.2179 52.2157C35.0267 52.4823 34.9096 52.7947 34.8784 53.1213V66.9009C34.9096 67.2275 35.0267 67.5399 35.2179 67.8065C35.4091 68.0731 35.6674 68.2843 35.9667 68.4186C36.7823 68.8318 37.6836 69.0472 38.5978 69.0472C39.512 69.0472 40.4134 68.8318 41.2289 68.4186C41.5295 68.2861 41.7889 68.0753 41.9804 67.8084C42.1718 67.5414 42.2881 67.2281 42.3173 66.9009V53.1213C42.2881 52.7941 42.1718 52.4808 41.9804 52.2138C41.7889 51.9469 41.5295 51.7362 41.2289 51.6036Z" fill="#EEAE0B"/>
<path d="M44.6538 48.4383C44.6538 49.6232 44.3025 50.7815 43.6441 51.7668C42.9858 52.752 42.0501 53.5199 40.9554 53.9733C39.8607 54.4268 38.6561 54.5454 37.4939 54.3143C36.3317 54.0831 35.2642 53.5125 34.4263 52.6746C33.5884 51.8367 33.0179 50.7692 32.7867 49.6071C32.5555 48.4449 32.6742 47.2403 33.1276 46.1456C33.5811 45.0508 34.349 44.1151 35.3342 43.4568C36.3195 42.7985 37.4778 42.4471 38.6627 42.4471C40.2516 42.4471 41.7755 43.0783 42.8991 44.2019C44.0226 45.3255 44.6538 46.8493 44.6538 48.4383Z" fill="#F6CF47"/>
<path d="M44.1347 74.5895L42.3573 66.9009H34.9183L33.1509 74.5895C32.8614 75.588 33.3806 76.6365 34.7086 77.3953C35.9274 78.0153 37.2754 78.3384 38.6428 78.3384C40.0102 78.3384 41.3582 78.0153 42.577 77.3953C43.905 76.6365 44.4142 75.578 44.1347 74.5895Z" fill="#ED9B0A"/>
<g style="mix-blend-mode:color">
<path d="M44.1347 74.5895L42.3573 66.9009H34.9183L33.1509 74.5895C32.8614 75.588 33.3806 76.6365 34.7086 77.3953C35.9274 78.0153 37.2754 78.3384 38.6428 78.3384C40.0102 78.3384 41.3582 78.0153 42.577 77.3953C43.905 76.6365 44.4142 75.578 44.1347 74.5895Z" fill="white"/>
</g>
<path d="M41.2289 51.6036C40.4134 51.1904 39.512 50.975 38.5978 50.975C37.6836 50.975 36.7823 51.1904 35.9667 51.6036C35.6674 51.7379 35.4091 51.9491 35.2179 52.2157C35.0267 52.4823 34.9096 52.7947 34.8784 53.1213V66.9009C34.9096 67.2275 35.0267 67.5399 35.2179 67.8065C35.4091 68.0731 35.6674 68.2843 35.9667 68.4186C36.7823 68.8318 37.6836 69.0472 38.5978 69.0472C39.512 69.0472 40.4134 68.8318 41.2289 68.4186C41.5295 68.2861 41.7889 68.0753 41.9804 67.8084C42.1718 67.5414 42.2881 67.2281 42.3173 66.9009V53.1213C42.2881 52.7941 42.1718 52.4808 41.9804 52.2138C41.7889 51.9469 41.5295 51.7362 41.2289 51.6036Z" fill="#EEAE0B"/>
<g style="mix-blend-mode:color">
<path d="M41.2289 51.6036C40.4134 51.1904 39.512 50.975 38.5978 50.975C37.6836 50.975 36.7823 51.1904 35.9667 51.6036C35.6674 51.7379 35.4091 51.9491 35.2179 52.2157C35.0267 52.4823 34.9096 52.7947 34.8784 53.1213V66.9009C34.9096 67.2275 35.0267 67.5399 35.2179 67.8065C35.4091 68.0731 35.6674 68.2843 35.9667 68.4186C36.7823 68.8318 37.6836 69.0472 38.5978 69.0472C39.512 69.0472 40.4134 68.8318 41.2289 68.4186C41.5295 68.2861 41.7889 68.0753 41.9804 67.8084C42.1718 67.5414 42.2881 67.2281 42.3173 66.9009V53.1213C42.2881 52.7941 42.1718 52.4808 41.9804 52.2138C41.7889 51.9469 41.5295 51.7362 41.2289 51.6036Z" fill="white"/>
</g>
<path d="M44.6538 48.4383C44.6538 49.6232 44.3025 50.7815 43.6441 51.7668C42.9858 52.752 42.0501 53.5199 40.9554 53.9733C39.8607 54.4268 38.6561 54.5454 37.4939 54.3143C36.3317 54.0831 35.2642 53.5125 34.4263 52.6746C33.5884 51.8367 33.0179 50.7692 32.7867 49.6071C32.5555 48.4449 32.6742 47.2403 33.1276 46.1456C33.5811 45.0508 34.349 44.1151 35.3342 43.4568C36.3195 42.7985 37.4778 42.4471 38.6627 42.4471C40.2516 42.4471 41.7755 43.0783 42.8991 44.2019C44.0226 45.3255 44.6538 46.8493 44.6538 48.4383Z" fill="#F6CF47"/>
<g style="mix-blend-mode:color">
<path d="M44.6538 48.4383C44.6538 49.6232 44.3025 50.7815 43.6441 51.7668C42.9858 52.752 42.0501 53.5199 40.9554 53.9733C39.8607 54.4268 38.6561 54.5454 37.4939 54.3143C36.3317 54.0831 35.2642 53.5125 34.4263 52.6746C33.5884 51.8367 33.0179 50.7692 32.7867 49.6071C32.5555 48.4449 32.6742 47.2403 33.1276 46.1456C33.5811 45.0508 34.349 44.1151 35.3342 43.4568C36.3195 42.7985 37.4778 42.4471 38.6627 42.4471C40.2516 42.4471 41.7755 43.0783 42.8991 44.2019C44.0226 45.3255 44.6538 46.8493 44.6538 48.4383Z" fill="white"/>
</g>
<path d="M43.5355 44.8436C43.4856 44.7038 38.6527 35.4375 38.6527 35.4375L33.7999 44.7537C33.3905 45.7522 33.7999 46.7507 35.118 47.4996C36.2133 48.0557 37.4244 48.3455 38.6527 48.3455C39.8811 48.3455 41.0922 48.0557 42.1875 47.4996C43.4256 46.7607 43.875 45.7522 43.5355 44.8436Z" fill="url(#paint8_linear_10283_2867)"/>
<path d="M66.2819 74.1701C66.3054 73.743 66.4299 73.3275 66.6452 72.9578C66.8604 72.5881 67.1602 72.2747 67.52 72.0433C67.6431 71.951 67.7889 71.8939 67.9419 71.878C68.0949 71.8622 68.2494 71.8883 68.3887 71.9534L41.908 56.6661C41.7686 56.6009 41.6142 56.5749 41.4612 56.5907C41.3082 56.6065 41.1623 56.6636 41.0393 56.7559C40.6807 56.9878 40.3824 57.3016 40.1689 57.6714C39.9554 58.0411 39.8327 58.4563 39.8111 58.8828C39.7959 59.0357 39.8211 59.19 39.8842 59.3302C39.9472 59.4703 40.046 59.5915 40.1705 59.6816L66.6413 74.9689C66.5168 74.8789 66.418 74.7577 66.355 74.6175C66.2919 74.4774 66.2667 74.3231 66.2819 74.1701Z" fill="url(#paint9_linear_10283_2867)"/>
<path d="M66.6513 74.9689C66.7913 75.0309 66.9452 75.0553 67.0976 75.0395C67.25 75.0238 67.3956 74.9684 67.52 74.879C67.8774 74.6459 68.1748 74.3319 68.3882 73.9624C68.6016 73.5928 68.7249 73.1782 68.7482 72.7522C68.7634 72.5992 68.7381 72.4449 68.6751 72.3048C68.612 72.1646 68.5133 72.0434 68.3887 71.9534C68.2494 71.8882 68.0949 71.8622 67.9419 71.878C67.7889 71.8938 67.643 71.9509 67.52 72.0432C67.1602 72.2746 66.8604 72.588 66.6451 72.9578C66.4299 73.3275 66.3054 73.7429 66.2818 74.1701C66.2666 74.323 66.2919 74.4773 66.3549 74.6175C66.418 74.7576 66.5168 74.8788 66.6413 74.9689H66.6513Z" fill="#F33A39"/>
<path d="M75.3085 92.8525L73.5411 85.1539H66.1021L64.3248 92.8525C64.0452 93.851 64.5544 94.8495 65.8825 95.6483C67.103 96.2684 68.4526 96.5916 69.8216 96.5916C71.1906 96.5916 72.5402 96.2684 73.7608 95.6483C75.0788 94.8895 75.5981 93.841 75.3085 92.8525Z" fill="#ED9B0A"/>
<g style="mix-blend-mode:color">
<path d="M75.3085 92.8525L73.5411 85.1539H66.1021L64.3248 92.8525C64.0452 93.851 64.5544 94.8495 65.8825 95.6483C67.103 96.2684 68.4526 96.5916 69.8216 96.5916C71.1906 96.5916 72.5402 96.2684 73.7608 95.6483C75.0788 94.8895 75.5981 93.841 75.3085 92.8525Z" fill="white"/>
</g>
<path d="M72.4527 69.8565C71.6358 69.4479 70.735 69.2352 69.8216 69.2352C68.9082 69.2352 68.0074 69.4479 67.1905 69.8565C66.8886 69.9899 66.6282 70.2022 66.4366 70.471C66.2451 70.7399 66.1296 71.0553 66.1021 71.3843V85.1539C66.1313 85.481 66.2477 85.7944 66.4391 86.0614C66.6305 86.3283 66.89 86.539 67.1905 86.6716C68.006 87.0848 68.9074 87.3001 69.8216 87.3001C70.7358 87.3001 71.6372 87.0848 72.4527 86.6716C72.752 86.5373 73.0104 86.3261 73.2015 86.0595C73.3927 85.7929 73.5099 85.4804 73.5411 85.1539V71.3843C73.5116 71.0559 73.3952 70.7414 73.2039 70.4729C73.0127 70.2044 72.7534 69.9917 72.4527 69.8565Z" fill="#EEAE0B"/>
<g style="mix-blend-mode:color">
<path d="M72.4527 69.8565C71.6358 69.4479 70.735 69.2352 69.8216 69.2352C68.9082 69.2352 68.0074 69.4479 67.1905 69.8565C66.8886 69.9899 66.6282 70.2022 66.4366 70.471C66.2451 70.7399 66.1296 71.0553 66.1021 71.3843V85.1539C66.1313 85.481 66.2477 85.7944 66.4391 86.0614C66.6305 86.3283 66.89 86.539 67.1905 86.6716C68.006 87.0848 68.9074 87.3001 69.8216 87.3001C70.7358 87.3001 71.6372 87.0848 72.4527 86.6716C72.752 86.5373 73.0104 86.3261 73.2015 86.0595C73.3927 85.7929 73.5099 85.4804 73.5411 85.1539V71.3843C73.5116 71.0559 73.3952 70.7414 73.2039 70.4729C73.0127 70.2044 72.7534 69.9917 72.4527 69.8565Z" fill="white"/>
</g>
<path d="M75.8277 66.6913C75.8277 67.8762 75.4763 69.0345 74.818 70.0197C74.1597 71.005 73.224 71.7729 72.1293 72.2263C71.0346 72.6798 69.8299 72.7984 68.6678 72.5673C67.5056 72.3361 66.4381 71.7655 65.6002 70.9276C64.7623 70.0897 64.1917 69.0222 63.9606 67.8601C63.7294 66.6979 63.8481 65.4933 64.3015 64.3985C64.755 63.3038 65.5229 62.3681 66.5081 61.7098C67.4933 61.0515 68.6516 60.7001 69.8366 60.7001C71.4255 60.7001 72.9494 61.3313 74.0729 62.4549C75.1965 63.5784 75.8277 65.1023 75.8277 66.6913Z" fill="#F6CF47"/>
<g style="mix-blend-mode:color">
<path d="M75.8277 66.6913C75.8277 67.8762 75.4763 69.0345 74.818 70.0197C74.1597 71.005 73.224 71.7729 72.1293 72.2263C71.0346 72.6798 69.8299 72.7984 68.6678 72.5673C67.5056 72.3361 66.4381 71.7655 65.6002 70.9276C64.7623 70.0897 64.1917 69.0222 63.9606 67.8601C63.7294 66.6979 63.8481 65.4933 64.3015 64.3985C64.755 63.3038 65.5229 62.3681 66.5081 61.7098C67.4933 61.0515 68.6516 60.7001 69.8366 60.7001C71.4255 60.7001 72.9494 61.3313 74.0729 62.4549C75.1965 63.5784 75.8277 65.1023 75.8277 66.6913Z" fill="white"/>
</g>
<path d="M74.7094 63.0765C74.6495 62.9267 69.8167 53.6605 69.8167 53.6605C69.8167 53.6605 65.0038 62.8968 64.9639 62.9866C64.5545 63.9852 64.9639 64.9837 66.2819 65.7326C67.379 66.2887 68.5917 66.5786 69.8217 66.5786C71.0517 66.5786 72.2643 66.2887 73.3614 65.7326C74.6096 65.0136 75.0589 64.0051 74.7094 63.0765Z" fill="url(#paint10_linear_10283_2867)"/>
<path opacity="0.5" d="M99.4027 59.8914V69.3673L97.0362 78.0844L74.8791 90.9653L73.5211 85.3137V74.8392L99.4027 59.8914Z" fill="#D4D4D4"/>
<path opacity="0.5" d="M66.1021 74.6494V85.1538L64.7541 91.0052L57.9941 87.101L57.3451 86.7315C57.3451 84.8743 57.1054 81.1198 55.5677 78.5936C55.1128 77.8097 54.4671 77.1536 53.6905 76.6864C53.371 76.4449 52.9957 76.2881 52.5995 76.2305C52.2032 76.1729 51.7988 76.2164 51.4238 76.3569C49.8162 77.1257 49.5266 80.4109 49.4867 82.1982L48.8376 81.8188L41.848 77.7648L40.2004 68.878V59.6816L66.1021 74.6494Z" fill="#D4D4D4"/>
<path d="M57.9941 87.101L57.3451 86.7315C57.3451 84.8743 57.1054 81.1199 55.5677 78.5936C55.1128 77.8097 54.4671 77.1536 53.6905 76.6864C53.371 76.445 52.9957 76.2882 52.5995 76.2306C52.2032 76.173 51.7988 76.2164 51.4238 76.3569C49.8162 77.1258 49.5266 80.4109 49.4867 82.1983L48.8376 81.8188C48.8376 79.9616 49.1871 76.4967 50.9545 75.648C51.4081 75.4838 51.8953 75.4344 52.3727 75.5041C52.85 75.5738 53.3027 75.7604 53.6905 76.0474C54.6579 76.6291 55.4618 77.4467 56.027 78.4239C57.7345 81.2297 57.9841 85.1539 57.9941 87.101Z" fill="url(#paint11_linear_10283_2867)"/>
<defs>
<linearGradient id="paint0_linear_10283_2867" x1="62.4974" y1="110.526" x2="91.7142" y2="57.3151" gradientUnits="userSpaceOnUse">
<stop offset="0.13" stop-color="#C9C9C9"/>
<stop offset="0.89" stop-color="white"/>
</linearGradient>
<linearGradient id="paint1_linear_10283_2867" x1="33.3806" y1="84.435" x2="107.181" y2="66.0922" gradientUnits="userSpaceOnUse">
<stop stop-color="#DE8000"/>
<stop offset="0.53" stop-color="#C85384"/>
<stop offset="1" stop-color="#D93B00"/>
</linearGradient>
<linearGradient id="paint2_linear_10283_2867" x1="34.469" y1="114.85" x2="50.645" y2="95.1092" gradientUnits="userSpaceOnUse">
<stop stop-color="#DE8000"/>
<stop offset="0.53" stop-color="#C85384"/>
<stop offset="1" stop-color="#D93B00"/>
</linearGradient>
<linearGradient id="paint3_linear_10283_2867" x1="26.2711" y1="42.3973" x2="107.84" y2="8.08805" gradientUnits="userSpaceOnUse">
<stop stop-color="#DE8000"/>
<stop offset="0.53" stop-color="#C85384"/>
<stop offset="1" stop-color="#D93B00"/>
</linearGradient>
<linearGradient id="paint4_linear_10283_2867" x1="32.1723" y1="56.4164" x2="113.731" y2="22.1073" gradientUnits="userSpaceOnUse">
<stop stop-color="#DE8000"/>
<stop offset="0.53" stop-color="#C85384"/>
<stop offset="1" stop-color="#D93B00"/>
</linearGradient>
<linearGradient id="paint5_linear_10283_2867" x1="36.8155" y1="67.4701" x2="118.385" y2="33.1609" gradientUnits="userSpaceOnUse">
<stop stop-color="#DE8000"/>
<stop offset="0.53" stop-color="#C85384"/>
<stop offset="1" stop-color="#D93B00"/>
</linearGradient>
<linearGradient id="paint6_linear_10283_2867" x1="37.4944" y1="69.0677" x2="119.054" y2="34.7584" gradientUnits="userSpaceOnUse">
<stop stop-color="#DE8000"/>
<stop offset="0.53" stop-color="#C85384"/>
<stop offset="1" stop-color="#D93B00"/>
</linearGradient>
<linearGradient id="paint7_linear_10283_2867" x1="43.5855" y1="83.5462" x2="125.145" y2="49.2371" gradientUnits="userSpaceOnUse">
<stop stop-color="#DE8000"/>
<stop offset="0.53" stop-color="#C85384"/>
<stop offset="1" stop-color="#D93B00"/>
</linearGradient>
<linearGradient id="paint8_linear_10283_2867" x1="28.0684" y1="46.6509" x2="109.628" y2="12.3517" gradientUnits="userSpaceOnUse">
<stop stop-color="#DE8000"/>
<stop offset="0.53" stop-color="#C85384"/>
<stop offset="1" stop-color="#D93B00"/>
</linearGradient>
<linearGradient id="paint9_linear_10283_2867" x1="38.8026" y1="72.1831" x2="120.362" y2="37.8739" gradientUnits="userSpaceOnUse">
<stop stop-color="#DE8000"/>
<stop offset="0.53" stop-color="#C85384"/>
<stop offset="1" stop-color="#D93B00"/>
</linearGradient>
<linearGradient id="paint10_linear_10283_2867" x1="39.2819" y1="73.3113" x2="120.841" y2="39.0021" gradientUnits="userSpaceOnUse">
<stop stop-color="#DE8000"/>
<stop offset="0.53" stop-color="#C85384"/>
<stop offset="1" stop-color="#D93B00"/>
</linearGradient>
<linearGradient id="paint11_linear_10283_2867" x1="47.0802" y1="71.6938" x2="58.733" y2="90.0367" gradientUnits="userSpaceOnUse">
<stop stop-color="#DE8000"/>
<stop offset="0.53" stop-color="#C85384"/>
<stop offset="1" stop-color="#D93B00"/>
</linearGradient>
</defs>
</svg>
