<svg xmlns="http://www.w3.org/2000/svg" xmlns:xlink="http://www.w3.org/1999/xlink" viewBox="0 0 72.89 72.89"><defs><style>.cls-1{isolation:isolate;}.cls-2{fill:#fff;}.cls-10,.cls-3,.cls-9{mix-blend-mode:multiply;}.cls-3{fill:url(#linear-gradient);}.cls-4{fill:#b9b7b7;}.cls-10,.cls-11,.cls-12,.cls-13,.cls-4,.cls-5,.cls-6,.cls-7,.cls-8{fill-rule:evenodd;}.cls-5{fill:url(#linear-gradient-2);}.cls-6{fill:url(#linear-gradient-3);}.cls-7{fill:url(#linear-gradient-4);}.cls-8{fill:url(#linear-gradient-5);}.cls-10,.cls-9{fill:#ddd;}.cls-11{fill:url(#linear-gradient-6);}.cls-12{fill:#e5e9ea;}.cls-13{fill:url(#linear-gradient-7);}.cls-14{fill:#384345;mix-blend-mode:screen;}</style><linearGradient id="linear-gradient" x1="40.73" y1="56.75" x2="49.91" y2="41.79" gradientUnits="userSpaceOnUse"><stop offset="0.13" stop-color="#ccc"/><stop offset="0.89" stop-color="#fff"/></linearGradient><linearGradient id="linear-gradient-2" x1="33.83" y1="63.68" x2="43.42" y2="6.39" gradientUnits="userSpaceOnUse"><stop offset="0" stop-color="#df8008"/><stop offset="0.53" stop-color="#c95587"/></linearGradient><linearGradient id="linear-gradient-3" x1="27.26" y1="62.75" x2="37.17" y2="3.51" gradientUnits="userSpaceOnUse"><stop offset="0" stop-color="#df8008"/><stop offset="0.53" stop-color="#c95587"/><stop offset="1" stop-color="#da3c17"/></linearGradient><linearGradient id="linear-gradient-4" x1="27.05" y1="62.78" x2="36.96" y2="3.54" xlink:href="#linear-gradient-3"/><linearGradient id="linear-gradient-5" x1="27.72" y1="62.82" x2="37.52" y2="4.23" xlink:href="#linear-gradient-3"/><linearGradient id="linear-gradient-6" x1="44.14" y1="54.83" x2="21.04" y2="16.32" xlink:href="#linear-gradient-3"/><linearGradient id="linear-gradient-7" x1="49.49" y1="20.9" x2="25.16" y2="18.06" xlink:href="#linear-gradient-3"/></defs><g class="cls-1"><g id="Layer_2" data-name="Layer 2"><g id="Layer_1-2" data-name="Layer 1"><rect class="cls-2" width="72.89" height="72.89" rx="5.84"/><polygon class="cls-3" points="28.77 53.58 36.88 58.88 59.91 48.15 40.7 39.12 28.77 53.58"/><polygon class="cls-4" points="36.5 58.85 34.55 57.84 34.52 57.82 27.6 52.84 27.57 52.81 27.55 52.78 27.53 52.75 27.52 52.71 27.51 52.66 27.5 52.62 27.51 52.57 27.52 52.51 32.99 23.22 33.01 23.14 33.04 23.06 33.09 22.98 33.13 22.9 33.19 22.83 33.26 22.77 33.33 22.71 33.4 22.66 36.28 21.16 36.35 21.13 36.42 21.11 36.49 21.11 36.54 21.12 36.59 21.14 38.54 22.16 38.49 22.14 38.43 22.12 38.37 22.13 38.3 22.14 38.22 22.18 35.34 23.68 35.27 23.72 35.2 23.78 35.14 23.84 35.08 23.91 35.03 23.99 34.99 24.07 34.95 24.15 34.93 24.24 29.46 53.52 29.45 53.58 29.45 53.63 29.45 53.68 29.46 53.72 29.47 53.76 29.49 53.8 29.52 53.83 29.55 53.85 36.46 58.83 36.5 58.85"/><polygon class="cls-5" points="36.5 58.85 34.55 57.84 34.52 57.82 33.12 56.81 33.93 57.01 36.46 58.83 36.5 58.85"/><polygon class="cls-6" points="30.81 34.9 31.79 29.66 33.83 30.16 32.85 35.4 30.81 34.9"/><polygon class="cls-7" points="28.83 45.48 29.81 40.24 31.85 40.73 30.87 45.97 28.83 45.48"/><polygon class="cls-8" points="30.16 54.68 27.6 52.84 27.57 52.81 27.55 52.78 27.53 52.75 27.52 52.71 27.51 52.66 27.5 52.62 27.51 52.57 27.52 52.51 27.84 50.76 29.88 51.26 29.46 53.52 29.45 53.58 29.45 53.63 29.45 53.68 29.46 53.72 29.47 53.76 29.49 53.8 29.52 53.83 29.55 53.85 30.98 54.88 30.16 54.68"/><line class="cls-9" x1="34.52" y1="57.82" x2="33.12" y2="56.81"/><polygon class="cls-10" points="32.78 24.33 32.99 23.22 33.01 23.14 33.04 23.06 33.09 22.98 33.13 22.9 33.19 22.83 33.26 22.77 33.33 22.71 33.4 22.66 35.94 21.34 37.86 21.8 38.54 22.16 38.49 22.14 38.43 22.12 38.37 22.13 38.3 22.14 38.22 22.18 35.34 23.68 35.27 23.72 35.2 23.78 35.14 23.84 35.08 23.91 35.03 23.99 34.99 24.07 34.95 24.15 34.93 24.24 34.82 24.82 32.78 24.33"/><polygon class="cls-10" points="30.81 34.9 31.79 29.66 33.83 30.16 32.85 35.4 30.81 34.9"/><polygon class="cls-10" points="28.83 45.48 29.81 40.24 31.85 40.73 30.87 45.97 28.83 45.48"/><polygon class="cls-10" points="30.16 54.68 27.6 52.84 27.57 52.81 27.55 52.78 27.53 52.75 27.52 52.71 27.51 52.66 27.5 52.62 27.51 52.57 27.52 52.51 27.84 50.76 29.88 51.26 29.46 53.52 29.45 53.58 29.45 53.63 29.45 53.68 29.46 53.72 29.47 53.76 29.49 53.8 29.52 53.83 29.55 53.85 30.98 54.88 30.16 54.68"/><path class="cls-11" d="M38.63,22.3l5.7,23.47a.6.6,0,0,1-.09.43L37.1,58.51a.73.73,0,0,1-.32.31.29.29,0,0,1-.32,0l-6.91-5q-.14-.09-.09-.33l5.47-29.28a.85.85,0,0,1,.41-.56l2.88-1.5C38.42,22.07,38.59,22.13,38.63,22.3Z"/><path class="cls-12" d="M34.82,24.82l3.12-2.5.28-.14c.2-.11.37-.05.41.12l.81,3.32-5.6,4.49Z"/><polygon class="cls-12" points="31.86 40.68 41.27 33.15 40.35 29.39 32.85 35.4 31.86 40.68"/><polygon class="cls-12" points="30.87 45.97 42.18 36.92 43.09 40.68 29.88 51.26 30.87 45.97"/><path class="cls-12" d="M33.93,57l7.54-6,2.77-4.78a.6.6,0,0,0,.09-.43L44,44.45,31,54.88Z"/><path class="cls-13" d="M38.93,14.07l-.12,0h-.17l-.22,0-.27.06-.31.09-.35.12-.38.14-.41.17-.43.18-.46.21-.46.22-.47.23-.48.25-.48.25-.47.26-.47.27-.45.26L32.1,17l-.41.26-.38.26-.35.24-.31.24-.27.22-.22.21-.17.19-.12.16-.06.15v.12l.08.09,0,0,0,.06.05.06,0,.06.06.08.07.08.07.08.07.09.08.1.09.1.08.1.09.11.09.11.1.11.09.12.1.12.1.12.1.12.1.13.1.12.09.12.1.13.09.12.1.12.09.13c.33.45.7.95,1.09,1.4l0,.06,0,.08-.21,1.11,2,.49.11-.58,0-.09,0-.08L35,24v0h.29l0,0,0,0-.07-.1v0h0l.07-.06.07,0,2.88-1.5.08,0,.07,0h.12l0,0-.68-.36-1.92-.46-1.85,1,0,0-.1-.12L33.87,22l-.1-.11-.1-.12-.09-.12-.09-.11-.09-.1-.09-.11-.08-.1-.08-.09-.08-.09L33,21l-.06-.08-.07-.07,0-.07,0-.06,0-.05,0,0-.08-.1v-.12l0-.14.12-.17.17-.19.22-.2.27-.22.31-.24L34.1,19l.38-.25.41-.26.43-.26.45-.27.47-.26.47-.26.48-.26.48-.24.47-.23.47-.23.45-.2.43-.19.41-.16.38-.14.35-.12.31-.09.27-.06.22,0h.17l.12,0Z"/><path class="cls-10" d="M38.93,14.07l-.12,0h-.17l-.22,0-.27.06-.31.09-.35.12-.38.14-.41.17-.43.18-.46.21-.46.22-.47.23-.48.25-.48.25-.47.26-.47.27-.45.26L32.1,17l-.41.26-.38.26-.35.24-.31.24-.27.22-.22.21-.17.19-.12.16-.06.15v.12l.08.09,0,0,0,.06.05.06,0,.06.06.08.07.08.07.08.07.09.08.1.09.1.08.1.09.11.09.11.1.11.09.12.1.12.1.12.1.12.1.13.1.12.09.12.1.13.09.12.1.12.09.13c.33.45.7.95,1.09,1.4l0,.06,0,.08-.21,1.11,2,.49.11-.58,0-.09,0-.08L35,24v0h.29l0,0,0,0-.07-.1v0h0l.07-.06.07,0,2.88-1.5.08,0,.07,0h.12l0,0-.68-.36-1.92-.46-1.85,1,0,0-.1-.12L33.87,22l-.1-.11-.1-.12-.09-.12-.09-.11-.09-.1-.09-.11-.08-.1-.08-.09-.08-.09L33,21l-.06-.08-.07-.07,0-.07,0-.06,0-.05,0,0-.08-.1v-.12l0-.14.12-.17.17-.19.22-.2.27-.22.31-.24L34.1,19l.38-.25.41-.26.43-.26.45-.27.47-.26.47-.26.48-.26.48-.24.47-.23.47-.23.45-.2.43-.19.41-.16.38-.14.35-.12.31-.09.27-.06.22,0h.17l.12,0Z"/><path class="cls-14" d="M37.46,22.83a.17.17,0,0,1,0,.1c0,.21,0,.44,0,.69,0,.44,0,1.42-.06,2.8a0,0,0,0,0,0,0c0,1-.08,2.22-.12,3.58,0,1.1-.08,2.31-.12,3.58h0c0,1.14-.09,2.33-.13,3.57h0c-.05,1.15-.1,2.34-.15,3.55v0c-.05,1.16-.1,2.34-.15,3.52,0,0,0,0,0,.05-.06,1.17-.11,2.35-.17,3.51,0,0,0,0,0,0-.06,1.19-.12,2.38-.19,3.53h0c-.06,1.22-.13,2.42-.2,3.57,0,0,0,0,0,0-.07,1.21-.14,2.37-.22,3.45v0c0,.17,0,.34,0,.51l-1.32-.36.16,0a1.34,1.34,0,0,1-.45-.1,10.71,10.71,0,0,1-1.78-.84,7.48,7.48,0,0,1-2.31-2.09l.18-.92s0,0,0,0c.18-1,.38-2.08.59-3.2v0c.19-1,.39-2.08.59-3.17h0c.2-1.08.41-2.18.62-3.29s.4-2.14.61-3.22h0c.2-1.07.41-2.14.61-3.2a0,0,0,0,0,0,0q.3-1.6.6-3.15a.64.64,0,0,0,0-.07c.21-1.12.42-2.21.63-3.25v0c.22-1.13.43-2.21.64-3.24a.06.06,0,0,1,0,0l.59-3c0-.08,0-.15.05-.22.29-1.47.54-2.69.73-3.58a.08.08,0,0,0,0,0,18.32,18.32,0,0,1,.48-2c.07,0,.12.08.17.25h0A15.28,15.28,0,0,1,37.46,22.83Z"/></g></g></g></svg>