<svg width="135" height="135" viewBox="0 0 135 135" fill="none" xmlns="http://www.w3.org/2000/svg">
<path d="M135 67.5C135 30.2208 104.779 0 67.5 0C30.2208 0 0 30.2208 0 67.5C0 104.779 30.2208 135 67.5 135C104.779 135 135 104.779 135 67.5Z" fill="#F6F6F6"/>
<path style="mix-blend-mode:multiply" d="M33.6001 92.2334L90.9152 76.6864L92.5927 77.5252C93.7888 76.7937 95.1919 76.4745 96.5868 76.6166C96.8505 76.6823 97.1105 76.7623 97.3656 76.8562C97.3656 76.8562 97.7751 76.986 98.1545 77.1458H98.2643C99.1229 77.4825 99.9457 77.904 100.721 78.4039L100.89 78.5137C101.13 78.6735 101.36 78.8333 101.579 79.013L101.669 79.0829L101.979 79.3525L102.129 79.4823C102.412 79.7507 102.669 80.0449 102.897 80.361L103.087 80.6306C103.471 81.2232 103.657 81.9227 103.616 82.6276C103.613 83.0639 103.566 83.4988 103.477 83.9257C103.243 84.5125 102.934 85.0663 102.558 85.5733C102.558 85.5733 102.278 85.8928 102.029 86.1225C101.65 86.4873 101.243 86.8212 100.811 87.121L100.371 87.4006C99.9903 87.6288 99.5969 87.8355 99.1929 88.0197C99.1929 88.0197 98.6737 88.2493 98.1944 88.4091L97.8949 88.5189L96.9562 88.8085L96.4171 88.9583L96.0177 89.0581C94.7296 89.3677 93.4115 89.5973 92.1134 89.9168H91.9836C90.6409 90.2169 89.3399 90.6796 88.1093 91.2948L87.9595 91.3747L87.6201 91.5644L87.4703 91.6543C87.0321 91.9194 86.6119 92.2129 86.2121 92.533C86.2121 92.533 85.8927 92.7826 85.653 93.0123C85.4393 93.2056 85.2453 93.4197 85.0739 93.6513C84.9637 93.7974 84.8635 93.9508 84.7743 94.1106C83.616 96.1875 84.5746 98.6339 85.7728 100.481C86.4036 101.401 87.1226 102.257 87.9197 103.037C87.9197 103.037 88.3091 103.417 88.6486 103.726C88.9881 104.036 89.2676 104.276 89.5871 104.535C89.1977 104.615 88.7884 104.685 88.389 104.745L87.2906 104.895H87.2306C86.8612 104.565 86.5018 104.236 86.1623 103.896L86.0824 103.816C84.3178 102.202 83.0061 100.153 82.278 97.8751C82.0346 97.0674 81.9765 96.2152 82.1078 95.382C82.2392 94.5487 82.5568 93.7558 83.0369 93.0622C83.324 92.6479 83.6592 92.2692 84.0354 91.9339L84.295 91.7142L84.4747 91.5744C84.7743 91.3347 85.0839 91.1051 85.4134 90.8854L85.8028 90.6358C86.0724 90.466 86.362 90.2963 86.6515 90.1365L86.8313 90.0467L87.5602 89.6972C88.0098 89.4935 88.4697 89.3135 88.9382 89.158L89.8069 88.8684L90.2662 88.7386L90.5558 88.6587C92.2832 88.2094 94.0805 87.9298 95.8279 87.4605C96.1574 87.3706 96.4869 87.2708 96.8264 87.1609L97.0262 87.091C99.4725 86.2223 101.609 83.5962 101.34 82.0984C101.082 81.1955 100.508 80.4156 99.7221 79.9017C99.4278 79.6782 99.1212 79.4716 98.8036 79.2826L98.6338 79.1827C98.1314 78.9024 97.611 78.6555 97.076 78.4438L96.8964 78.3739C96.0121 78.0185 95.0247 78.0185 94.1404 78.3739L96.2873 79.4424L64.025 106.103C59.6315 105.903 55.1282 105.464 50.3253 104.795C46.7094 104.267 43.2837 102.84 40.3617 100.646C37.4398 98.4512 35.115 95.5589 33.6001 92.2334Z" fill="url(#paint0_linear_10283_2870)"/>
<path d="M87.3903 104.974C87.0209 104.495 86.6614 103.976 86.3219 103.527L86.242 103.407C84.3759 100.826 83.0792 97.8789 82.4377 94.7596C81.9447 92.4081 82.2104 89.9609 83.1966 87.77C83.47 87.1901 83.8048 86.6411 84.1951 86.1324L84.4547 85.8129L84.6344 85.6032C84.9339 85.2637 85.2435 84.9242 85.573 84.6047L85.9624 84.2452C86.232 83.9956 86.5216 83.7459 86.8112 83.5263L86.9909 83.3865C87.2305 83.2167 87.4701 83.047 87.7198 82.8872C88.1628 82.5938 88.623 82.3271 89.0977 82.0884C89.0977 82.0884 89.617 81.8288 89.9664 81.679L90.4258 81.4893L90.7153 81.3694C92.4428 80.7104 94.2401 80.301 95.9875 79.622C96.3275 79.4962 96.6608 79.3528 96.9861 79.1927L97.1858 79.0928C99.6322 77.8247 101.619 75.3783 101.35 73.1017C101.143 71.9013 100.579 70.7912 99.732 69.9164C99.4424 69.5969 99.1323 69.2967 98.8034 69.0178L98.6437 68.878C98.1536 68.4751 97.6327 68.1112 97.0859 67.7896L96.9062 67.6897C96.3109 67.3379 95.6734 67.0627 95.009 66.8709C94.4698 66.7112 94.3001 66.5814 94.1403 66.3317C93.9891 66.0812 93.943 65.781 94.0122 65.4967C94.0814 65.2124 94.2603 64.9669 94.5098 64.814C94.6694 64.7066 94.8567 64.6477 95.049 64.6442H95.3285L95.6381 64.7241L95.8377 64.784L96.0175 64.8439L96.5168 65.0336C96.7864 65.1335 97.046 65.2533 97.2957 65.3731C97.2957 65.3731 97.715 65.5729 98.0944 65.8025L98.2042 65.8624C99.0907 66.3749 99.915 66.988 100.661 67.6897L100.83 67.8495C101.06 68.0791 101.3 68.3188 101.519 68.5784L101.599 68.6782C101.739 68.838 101.919 69.0677 101.919 69.0677L102.059 69.2574C102.352 69.6618 102.613 70.0892 102.837 70.5355C102.837 70.5355 102.947 70.7652 103.017 70.9349C103.424 71.8544 103.609 72.8566 103.556 73.8606C103.52 74.2401 103.46 74.6169 103.377 74.9889C103.22 75.6163 102.974 76.2182 102.648 76.7762C102.648 76.7762 102.368 77.2356 102.118 77.5751C101.753 78.0811 101.346 78.5554 100.9 78.993C100.9 78.993 100.661 79.2326 100.461 79.4024C100.09 79.7294 99.6962 80.0297 99.2827 80.301C99.2827 80.301 98.7635 80.6305 98.2842 80.8702L97.9846 81.02C97.675 81.1797 97.3656 81.3195 97.046 81.4493L96.5068 81.659L96.1074 81.8088C94.8193 82.2581 93.5012 82.6076 92.2031 83.0569H92.0734C90.6855 83.516 89.3782 84.1898 88.1992 85.054L88.0494 85.1738L87.7098 85.4434L87.5601 85.5732C87.1086 85.9664 86.688 86.3937 86.3019 86.8513C86.3019 86.8513 85.9824 87.2208 85.7427 87.5403C85.5253 87.8374 85.3316 88.1513 85.1636 88.4789C85.0525 88.6967 84.9525 88.92 84.864 89.1479C83.7057 92.1435 84.6643 95.7282 85.8625 98.4042C86.4717 99.7041 87.1899 100.95 88.0094 102.129C88.0094 102.129 88.3988 102.688 88.7383 103.127C89.0778 103.567 89.4373 104.026 89.7968 104.455C89.3674 104.545 88.918 104.625 88.4787 104.685L87.3205 104.845L87.3903 104.974Z" fill="#222222"/>
<path fill-rule="evenodd" clip-rule="evenodd" d="M68.3785 81.1998C74.6293 81.1998 79.7019 83.736 79.7019 86.8614C79.7019 89.9867 74.6293 92.523 68.3785 92.523C62.1278 92.523 57.0654 89.9867 57.0654 86.8614C57.0654 83.736 62.1278 81.1998 68.3785 81.1998Z" fill="url(#paint1_linear_10283_2870)"/>
<path fill-rule="evenodd" clip-rule="evenodd" d="M79.7019 86.8613V90.0865C79.7019 93.2119 74.6293 95.7482 68.3785 95.7482H68.3087C62.0879 95.7482 57.0654 93.2019 57.0654 90.0865V86.8613C57.0654 89.9867 62.1278 92.5229 68.3785 92.5229C74.6293 92.5229 79.7019 89.9867 79.7019 86.8613Z" fill="#8F3336"/>
<path fill-rule="evenodd" clip-rule="evenodd" d="M70.0762 70.5855V86.7815C70.0762 87.2508 69.3173 87.6303 68.3787 87.6303C67.45 87.6303 66.6912 87.2508 66.6912 86.7815V70.5855C66.6912 71.0548 67.4501 71.4343 68.3887 71.4343C69.3273 71.4343 70.0862 71.0548 70.0862 70.5855H70.0762Z" fill="#A3C5E7"/>
<path fill-rule="evenodd" clip-rule="evenodd" d="M65.5028 69.2075L57.295 73.3114L73.4411 81.3895L81.6589 77.2756L65.5028 69.2075Z" fill="#D6E6F6"/>
<path fill-rule="evenodd" clip-rule="evenodd" d="M57.295 73.3114V56.027C57.3184 54.6199 57.6968 53.2415 58.3951 52.0196C59.0933 50.7978 60.0887 49.772 61.2891 49.0374C63.4758 47.949 65.5328 49.1472 65.5328 51.8832V69.2075L57.315 73.3114H57.295Z" fill="#D6E6F6"/>
<path fill-rule="evenodd" clip-rule="evenodd" d="M58.3135 72.4527V56.5363C58.3388 55.1296 58.718 53.7519 59.416 52.5303C60.114 51.3087 61.1085 50.2826 62.3076 49.5467C64.5043 48.4483 66.5513 49.6465 66.5513 52.3924V68.3089L58.3335 72.4128L58.3135 72.4527Z" fill="#7D81BD"/>
<path fill-rule="evenodd" clip-rule="evenodd" d="M66.5313 68.3488L58.3135 72.4527L72.4126 79.5023V71.2845L66.5313 68.3488Z" fill="#7D81BD"/>
<g style="mix-blend-mode:color">
<path fill-rule="evenodd" clip-rule="evenodd" d="M81.6589 77.2755L72.4126 72.6624V71.2844L66.5313 68.3488V52.4324C66.5313 50.645 65.6527 49.5267 64.4444 49.2571C63.9942 48.9129 63.4514 48.7109 62.8857 48.6771C62.32 48.6433 61.7571 48.7792 61.2691 49.0673C60.0687 49.8019 59.0733 50.8277 58.3751 52.0496C57.6768 53.2715 57.2984 54.6499 57.275 56.057V73.3414L66.6611 78.0344V86.7815C66.6611 87.2508 67.4201 87.6302 68.3487 87.6302C69.2873 87.6302 70.0461 87.2508 70.0461 86.7815V79.7419L73.4111 81.4294L81.6589 77.2755Z" fill="white"/>
</g>
<path fill-rule="evenodd" clip-rule="evenodd" d="M94.2801 69.2674L67.3899 65.7026L71.0345 52.0529L96.0874 62.4375H96.1473" fill="#E2E2E2"/>
<path fill-rule="evenodd" clip-rule="evenodd" d="M87.4604 63.7556C88.2492 60.8099 90.0866 58.763 91.5644 59.1324C93.0422 59.5019 93.5614 62.2378 92.8026 65.1935C92.0437 68.1491 90.1765 70.1861 88.6987 69.8266C87.2209 69.4671 86.7015 66.7112 87.4604 63.7556Z" fill="url(#paint2_linear_10283_2870)"/>
<path fill-rule="evenodd" clip-rule="evenodd" d="M52.512 42.9264L91.7939 59.2123L88.8582 69.8565L46.8005 64.2847L52.512 42.9264Z" fill="url(#paint3_linear_10283_2870)"/>
<path fill-rule="evenodd" clip-rule="evenodd" d="M52.4622 43.1361V42.9264L60.9296 46.4412C66.4015 51.4338 61.2691 65.2134 56.0868 65.5129L50.7646 64.814C56.6759 64.0052 62.3376 49.7263 56.0768 44.534L52.4122 43.1361H52.4622Z" fill="#E2E2E2"/>
<path fill-rule="evenodd" clip-rule="evenodd" d="M47.3599 36.5259C50.7392 38.0107 53.5047 40.6131 55.1918 43.8961C56.8789 47.1791 57.3848 50.9427 56.6247 54.5547C55.8646 58.1667 53.8847 61.4072 51.0176 63.7317C48.1504 66.0563 44.5706 67.3235 40.8795 67.3203C40.3303 67.3203 39.7811 67.3203 39.2519 67.2404C43.5555 66.3917 48.8976 62.6672 51.6934 56.6461C54.3695 50.8847 53.6905 41.2989 47.3599 36.5259Z" fill="#7FABDB"/>
<path fill-rule="evenodd" clip-rule="evenodd" d="M36.0963 66.5913C32.4266 65.447 29.2885 63.0256 27.2508 59.7662C25.2131 56.5068 24.4107 52.6252 24.9891 48.825C25.5675 45.0248 27.4885 41.5577 30.4037 39.0521C33.3189 36.5466 37.0353 35.1686 40.8793 35.1679C42.0958 35.1657 43.3086 35.3031 44.4939 35.5773L44.7235 35.737C45.2618 36.1459 45.7783 36.5825 46.2712 37.0451C46.8193 37.5564 47.3331 38.1035 47.8089 38.6827V38.7526C48.2629 39.3082 48.6767 39.8955 49.0471 40.51C49.6303 41.4537 50.1092 42.4581 50.475 43.5055C50.8472 44.5633 51.105 45.6579 51.2439 46.7707C51.4677 48.597 51.4002 50.4473 51.0441 52.2526C50.9243 52.8317 50.7846 53.4108 50.6148 53.98C50.3062 54.9856 49.9154 55.9641 49.4465 56.9057C49.0695 57.6526 48.6425 58.3732 48.1684 59.0625C47.7389 59.6917 47.2687 60.2921 46.7606 60.8598C46.2325 61.4528 45.6653 62.0099 45.063 62.5273L44.4339 63.0366L43.8648 63.456H43.8049C43.4454 63.6956 43.0959 63.9352 42.7265 64.1549H42.6367L42.5467 64.2049C42.1673 64.4345 41.7879 64.6342 41.3885 64.8339C40.9891 65.0336 40.33 65.3132 39.8008 65.5129L38.8822 65.8225H38.7624C38.0884 66.0313 37.4012 66.1947 36.7054 66.3117L36.0463 66.4216L36.0963 66.5913Z" fill="#D6E6F6"/>
<path fill-rule="evenodd" clip-rule="evenodd" d="M36.4559 63.7455C33.2102 62.725 30.4854 60.488 28.8523 57.5033C27.2191 54.5185 26.8044 51.0175 27.695 47.7338C28.5857 44.4501 30.7125 41.6385 33.63 39.8879C36.5474 38.1374 40.0292 37.5838 43.3457 38.3432L43.5253 38.4829C44.464 39.1772 45.3127 39.9855 46.0516 40.8894V40.9493C46.9979 42.1222 47.7343 43.4498 48.2285 44.8735C48.5294 45.7415 48.7402 46.6383 48.8575 47.5495C49.0393 49.0431 48.9854 50.556 48.6977 52.0329C48.5979 52.5121 48.4881 53.0314 48.3483 53.4508C48.0818 54.2756 47.7478 55.0772 47.3498 55.8472C47.0595 56.4594 46.7258 57.05 46.3512 57.6146C45.6307 58.6676 44.7745 59.621 43.805 60.4504L43.2957 60.8698L42.8264 61.2093C42.5369 61.409 42.2373 61.6087 41.9377 61.7884H41.8679H41.7979C41.4884 61.9681 41.1689 62.1479 40.7994 62.2976C40.3777 62.5086 39.9444 62.6953 39.5014 62.8568C39.2518 62.9467 39.0021 63.0366 38.7525 63.1064H38.6527C38.1014 63.2734 37.5413 63.41 36.9751 63.5158L36.4259 63.5957L36.4559 63.7455Z" fill="white"/>
<path fill-rule="evenodd" clip-rule="evenodd" d="M40.1104 63.7455C36.8721 62.72 34.1552 60.483 32.5273 57.5017C30.8993 54.5204 30.4861 51.0254 31.3741 47.7467C32.2621 44.468 34.3826 41.6591 37.2926 39.9068C40.2025 38.1545 43.677 37.5943 46.9902 38.3432L47.1799 38.483C47.6204 38.814 48.0436 39.1672 48.448 39.5414C48.893 39.9661 49.3131 40.4162 49.7062 40.8894V40.9493C50.0679 41.4079 50.4014 41.8881 50.7047 42.3872C51.6599 43.9617 52.2693 45.7215 52.4921 47.5496C52.7308 49.5307 52.5574 51.5398 51.9828 53.4508C51.7208 54.2773 51.3867 55.0792 50.9843 55.8473C50.6905 56.4576 50.357 57.048 49.9858 57.6146C49.6314 58.1313 49.2445 58.6249 48.8275 59.0924C48.3924 59.5725 47.9289 60.026 47.4395 60.4504L46.9203 60.8698L46.461 61.2093C46.1614 61.409 45.8719 61.6087 45.5723 61.7885H45.5025H45.4325C45.1229 61.9682 44.8034 62.1479 44.434 62.2977C44.0114 62.5068 43.5782 62.6935 43.136 62.8569C42.8863 62.9467 42.6367 63.0366 42.3871 63.1065H42.2871C41.7325 63.2734 41.1692 63.4101 40.5997 63.5159L40.0604 63.5958L40.1104 63.7455Z" fill="#D6E6F6"/>
<path fill-rule="evenodd" clip-rule="evenodd" d="M44.494 35.5773C45.4794 35.7937 46.4398 36.1116 47.3598 36.5259C53.7004 41.2988 54.3494 50.8846 51.6933 56.6461C48.8974 62.6372 43.5554 66.3916 39.2518 67.2404C38.1805 67.1331 37.1231 66.9156 36.0964 66.5913L36.7555 66.4815C37.4513 66.3645 38.1384 66.201 38.8124 65.9922H38.9322L39.8509 65.6827C40.3801 65.483 40.9093 65.2533 41.4385 65.0037C41.9677 64.754 42.2174 64.6043 42.5968 64.3746L42.6866 64.3247H42.7765C43.1459 64.105 43.4955 63.8654 43.8549 63.6257H43.9148L44.484 63.2063L45.1131 62.6971C45.7154 62.1797 46.2825 61.6226 46.8105 61.0296C47.3186 60.4619 47.789 59.8615 48.2185 59.2322C48.6926 58.5429 49.1196 57.8223 49.4966 57.0754C49.9655 56.1338 50.3561 55.1553 50.6648 54.1498C50.8346 53.5806 50.9744 53.0014 51.0942 52.4223C51.4503 50.6171 51.5177 48.7668 51.2939 46.9404C51.155 45.8277 50.8972 44.7331 50.525 43.6753C50.1591 42.6279 49.6804 41.6235 49.0972 40.6797C48.7268 40.0652 48.313 39.4779 47.859 38.9223V38.8524C47.3832 38.2732 46.8694 37.7261 46.3213 37.2148C45.8284 36.7523 45.3118 36.3156 44.7735 35.9068L44.5439 35.747L44.494 35.5773Z" fill="#A3C5E7"/>
<g style="mix-blend-mode:color">
<path fill-rule="evenodd" clip-rule="evenodd" d="M47.3596 36.5259C46.4397 36.1116 45.4793 35.7937 44.4939 35.5773C43.3086 35.3031 42.0958 35.1657 40.8793 35.1679C37.0353 35.1686 33.3189 36.5466 30.4037 39.0521C27.4885 41.5577 25.5675 45.0248 24.9891 48.825C24.4107 52.6252 25.2131 56.5068 27.2508 59.7662C29.2885 63.0256 32.4266 65.447 36.0963 66.5913C37.123 66.9156 38.1804 67.1331 39.2517 67.2403C39.7809 67.2403 40.3301 67.3202 40.8793 67.3202C44.5704 67.3234 48.1501 66.0562 51.0173 63.7317C53.8845 61.4071 55.8644 58.1667 56.6245 54.5546C57.3846 50.9426 56.8787 47.1791 55.1915 43.8961C53.5044 40.6131 50.739 38.0106 47.3596 36.5259Z" fill="white"/>
</g>
<path fill-rule="evenodd" clip-rule="evenodd" d="M72.4127 80.8702V63.5858C72.4362 62.1787 72.8146 60.8003 73.5128 59.5784C74.211 58.3565 75.2064 57.3307 76.4068 56.5962C78.6036 55.4978 80.6505 56.696 80.6505 59.4419V76.7962L72.4327 80.9001L72.4127 80.8702Z" fill="#B5BAC3"/>
<path fill-rule="evenodd" clip-rule="evenodd" d="M73.441 81.3895V64.0951C73.4644 62.688 73.8427 61.3095 74.5409 60.0877C75.2391 58.8658 76.2347 57.84 77.4351 57.1054C79.6218 56.0071 81.6788 57.2053 81.6788 59.9512V77.2356L73.461 81.3495L73.441 81.3895Z" fill="#D6E6F6"/>
<path fill-rule="evenodd" clip-rule="evenodd" d="M78.2539 59.8214C79.3224 59.2822 80.1911 59.9712 80.1911 61.3392C80.1832 62.0311 80.0017 62.7101 79.6632 63.3137C79.3248 63.9173 78.8402 64.4263 78.2539 64.794C77.1855 65.3332 76.3169 64.6542 76.3169 63.2763C76.3248 62.5843 76.5062 61.9054 76.8446 61.3017C77.1831 60.6981 77.6677 60.1891 78.2539 59.8214Z" fill="#7FABDB"/>
<path fill-rule="evenodd" clip-rule="evenodd" d="M77.0657 64.814L76.3567 64.4545C76.0949 64.2874 75.8857 64.0497 75.7532 63.7687C75.6207 63.4878 75.5703 63.1752 75.6078 62.8669C75.6147 62.1758 75.7947 61.4975 76.1313 60.8939C76.468 60.2904 76.9506 59.7809 77.535 59.412C77.7131 59.3064 77.914 59.245 78.1207 59.2328C78.3274 59.2207 78.5339 59.2581 78.7232 59.3421L79.4422 59.7016C79.2536 59.6151 79.0465 59.5763 78.8394 59.5884C78.6322 59.6006 78.4311 59.6635 78.2539 59.7715C77.6677 60.1392 77.1831 60.6482 76.8446 61.2518C76.5062 61.8554 76.3248 62.5344 76.3169 63.2263C76.2817 63.5344 76.3331 63.8462 76.4654 64.1267C76.5977 64.4071 76.8056 64.6452 77.0657 64.814Z" fill="#D6E6F6"/>
<g style="mix-blend-mode:color">
<path fill-rule="evenodd" clip-rule="evenodd" d="M79.5319 56.8259C79.0819 56.4807 78.5383 56.2789 77.972 56.2469C77.4057 56.2148 76.8428 56.354 76.3566 56.6461C75.1562 57.3807 74.1608 58.4065 73.4626 59.6284C72.7644 60.8503 72.3859 62.2287 72.3625 63.6358V80.9202L73.361 80.4109V81.4094L81.579 77.2955V59.9912C81.6588 58.2038 80.7801 57.0855 79.5319 56.8259Z" fill="white"/>
</g>
<defs>
<linearGradient id="paint0_linear_10283_2870" x1="118.584" y1="74.5396" x2="33.7799" y2="110.137" gradientUnits="userSpaceOnUse">
<stop offset="0.13" stop-color="#C9C9C9"/>
<stop offset="0.89" stop-color="white"/>
</linearGradient>
<linearGradient id="paint1_linear_10283_2870" x1="79.0728" y1="95.4786" x2="47.9988" y2="70.4456" gradientUnits="userSpaceOnUse">
<stop stop-color="#DE8000"/>
<stop offset="0.53" stop-color="#C85384"/>
<stop offset="1" stop-color="#D93B00"/>
</linearGradient>
<linearGradient id="paint2_linear_10283_2870" x1="104.935" y1="68.3388" x2="47.1098" y2="53.2408" gradientUnits="userSpaceOnUse">
<stop stop-color="#DE8000"/>
<stop offset="0.53" stop-color="#C85384"/>
<stop offset="1" stop-color="#D93B00"/>
</linearGradient>
<linearGradient id="paint3_linear_10283_2870" x1="105.004" y1="68.0592" x2="47.18" y2="52.9615" gradientUnits="userSpaceOnUse">
<stop stop-color="#DE8000"/>
<stop offset="0.53" stop-color="#C85384"/>
<stop offset="1" stop-color="#D93B00"/>
</linearGradient>
</defs>
</svg>
