<svg width="129" height="119" viewBox="0 0 129 119" fill="none" xmlns="http://www.w3.org/2000/svg">
<path d="M59.16 0H59.15C26.4823 0 0 26.6368 0 59.495V59.505C0 92.3632 26.4823 119 59.15 119H59.16C91.8276 119 118.31 92.3632 118.31 59.505V59.495C118.31 26.6368 91.8276 0 59.16 0Z" fill="#F6F6F6"/>
<path d="M100.58 44.8197C100.789 45.0364 101.039 45.2086 101.316 45.3261C101.593 45.4436 101.89 45.504 102.19 45.5037C102.448 45.4986 102.705 45.4545 102.95 45.3729L108.51 43.4518L108.8 43.5825C110.642 44.43 112.644 44.869 114.67 44.87C117.469 44.867 120.204 44.0296 122.53 42.4638C124.856 40.898 126.669 38.6739 127.739 36.0725C128.809 33.471 129.089 30.609 128.542 27.8478C127.996 25.0866 126.649 22.5503 124.67 20.559C123.334 19.2009 121.737 18.1305 119.977 17.4129C118.216 16.6953 116.329 16.3455 114.43 16.3848C110.714 16.4533 107.172 17.9859 104.567 20.653C101.962 23.3201 100.502 26.9088 100.5 30.6475C100.51 32.6842 100.946 34.6959 101.78 36.5518L101.92 36.8434L100.01 42.4459C99.8694 42.855 99.8483 43.2961 99.9493 43.7168C100.05 44.1375 100.269 44.5203 100.58 44.8197ZM102.08 43.3009L104.2 37.115C104.292 36.8221 104.267 36.5044 104.13 36.2299C103.221 34.5112 102.748 32.594 102.75 30.6475C102.749 27.4912 103.978 24.4601 106.172 22.2039C108.367 19.9477 111.353 18.6459 114.49 18.5775H114.69C117.814 18.5615 120.818 19.7924 123.041 22.0004C125.264 24.2085 126.526 27.2133 126.55 30.3558L126.63 30.4464V30.7783C126.575 33.9357 125.292 36.9458 123.056 39.1628C120.82 41.3797 117.81 42.627 114.67 42.6371C112.732 42.6326 110.825 42.1564 109.11 41.249C108.977 41.1756 108.829 41.1314 108.677 41.1192C108.526 41.1071 108.373 41.1273 108.23 41.1786L102.08 43.3009Z" fill="url(#paint0_linear_10293_2038)"/>
<path d="M60.4099 56.0245L60.3299 54.8376C60.3299 54.5962 60.3299 54.3448 60.3299 54.0833C60.3404 51.2331 61.4715 48.5028 63.4761 46.4884C65.4808 44.4739 68.1963 43.3389 71.0299 43.3309C72.7835 43.3276 74.5111 43.7578 76.0605 44.5837C77.61 45.4096 78.934 46.606 79.9158 48.0674C80.8977 49.5288 81.5074 51.2106 81.6913 52.9648C81.8752 54.7189 81.6276 56.4915 80.9703 58.1268C80.3131 59.7621 79.2664 61.2099 77.9222 62.3427C76.5781 63.4755 74.9778 64.2587 73.262 64.6233C71.5463 64.9879 69.7677 64.9227 68.0829 64.4336C66.3981 63.9444 64.8586 63.0463 63.5999 61.8181L61.3299 59.6053M57.8499 59.6053L58.2 60.3295C59.039 62.0514 60.208 63.5897 61.6399 64.8557L63.0699 66.0828L61.2899 66.9177C57.3006 68.7822 53.9238 71.7541 51.557 75.4836C49.1902 79.2132 47.9318 83.5452 47.9299 87.9698C47.9299 88.4429 48.1161 88.8967 48.4478 89.2322C48.7794 89.5677 49.2296 89.7575 49.7 89.7601C50.1879 89.7583 50.6566 89.5686 51.0099 89.23C51.3633 88.8915 51.5744 88.4297 51.5999 87.9396L51.7599 84.6706C52.5395 80.1087 54.8948 75.97 58.4108 72.9836C61.9269 69.9972 66.378 68.3549 70.9799 68.346C75.5819 68.3549 80.033 69.9972 83.549 72.9836C87.0651 75.97 89.4204 80.1087 90.2 84.6706L90.3699 86.1995C90.422 86.6956 90.6555 87.1546 91.0251 87.4873C91.3947 87.82 91.874 88.0027 92.3699 87.9999C92.5849 87.995 92.7967 87.9463 92.9924 87.8567C93.1882 87.767 93.3638 87.6384 93.5087 87.4786C93.6536 87.3187 93.7648 87.131 93.8354 86.9267C93.9061 86.7224 93.9349 86.5058 93.9199 86.29C93.6196 82.1712 92.2338 78.2073 89.905 74.8059C87.5762 71.4046 84.3885 68.6888 80.6699 66.9378L78.8899 66.103L80.3599 64.8155C82.154 63.2376 83.526 61.2323 84.3503 58.9831C85.1747 56.7339 85.425 54.3127 85.0784 51.9411C84.7318 49.5694 83.7994 47.323 82.3665 45.4076C80.9335 43.4922 79.0459 41.9688 76.8762 40.9769C74.7066 39.985 72.3242 39.5564 69.9473 39.7301C67.5703 39.9038 65.2746 40.6744 63.2703 41.9713C61.266 43.2682 59.617 45.05 58.4744 47.1537C57.3318 49.2574 56.732 51.6157 56.7299 54.0129C56.7299 54.204 56.7299 54.4051 56.7299 54.6264L56.7899 55.9642" fill="#222222"/>
<path d="M61.2898 59.5553H70.9899C71.4619 59.5553 71.9147 59.3667 72.2485 59.0309C72.5823 58.6952 72.7698 58.2398 72.7698 57.7649C72.7698 57.2901 72.5823 56.8347 72.2485 56.4989C71.9147 56.1632 71.4619 55.9746 70.9899 55.9746H48.5198V54.677C48.4567 51.6696 48.9912 48.6797 50.0918 45.8827C51.1925 43.0856 52.8371 40.5378 54.9294 38.3884C57.0218 36.239 59.5196 34.5313 62.2766 33.3655C65.0336 32.1997 67.9942 31.5992 70.9849 31.5992C73.9755 31.5992 76.9361 32.1997 79.6931 33.3655C82.4501 34.5313 84.948 36.239 87.0403 38.3884C89.1326 40.5378 90.7772 43.0856 91.8779 45.8827C92.9785 48.6797 93.513 51.6696 93.4499 54.677C93.4499 55.1519 93.6374 55.6072 93.9712 55.943C94.305 56.2788 94.7578 56.4674 95.2299 56.4674C95.7019 56.4674 96.1547 56.2788 96.4885 55.943C96.8223 55.6072 97.0099 55.1519 97.0099 54.677C97.0099 47.7412 94.2706 41.0894 89.3946 36.185C84.5187 31.2806 77.9055 28.5254 71.0099 28.5254C64.1143 28.5254 57.501 31.2806 52.6251 36.185C47.7491 41.0894 45.0099 47.7412 45.0099 54.677V57.7549C45.0072 57.9912 45.0514 58.2257 45.1398 58.4447C45.2281 58.6637 45.359 58.8628 45.5246 59.0304C45.6903 59.198 45.8876 59.3307 46.1048 59.4208C46.322 59.5109 46.5549 59.5567 46.7898 59.5553H61.3398H61.2898Z" fill="url(#paint1_linear_10293_2038)"/>
<path d="M95.1498 25.2462H86.3398C85.95 25.2462 85.5761 25.0904 85.3004 24.8131C85.0247 24.5359 84.8699 24.1598 84.8699 23.7676C84.8699 23.3755 85.0247 22.9994 85.3004 22.7221C85.5761 22.4448 85.95 22.2891 86.3398 22.2891H95.1498C95.5397 22.2891 95.9137 22.4448 96.1893 22.7221C96.465 22.9994 96.6199 23.3755 96.6199 23.7676C96.6199 24.1598 96.465 24.5359 96.1893 24.8131C95.9137 25.0904 95.5397 25.2462 95.1498 25.2462Z" fill="url(#paint2_linear_10293_2038)"/>
<path d="M97.9399 19.3422H92.0699C91.68 19.3422 91.3061 19.1864 91.0304 18.9091C90.7547 18.6318 90.5999 18.2557 90.5999 17.8636C90.5999 17.4714 90.7547 17.0954 91.0304 16.8181C91.3061 16.5408 91.68 16.385 92.0699 16.385H97.9399C98.3297 16.385 98.7036 16.5408 98.9793 16.8181C99.255 17.0954 99.4099 17.4714 99.4099 17.8636C99.4099 18.2557 99.255 18.6318 98.9793 18.9091C98.7036 19.1864 98.3297 19.3422 97.9399 19.3422Z" fill="#222222"/>
<path d="M114.37 51.2372H108.5C108.11 51.2372 107.736 51.0814 107.46 50.8041C107.185 50.5268 107.03 50.1507 107.03 49.7586C107.03 49.3665 107.185 48.9904 107.46 48.7131C107.736 48.4358 108.11 48.28 108.5 48.28H114.37C114.76 48.28 115.134 48.4358 115.409 48.7131C115.685 48.9904 115.84 49.3665 115.84 49.7586C115.84 50.1507 115.685 50.5268 115.409 50.8041C115.134 51.0814 114.76 51.2372 114.37 51.2372Z" fill="#222222"/>
<defs>
<linearGradient id="paint0_linear_10293_2038" x1="110.89" y1="55.7933" x2="118.668" y2="5.0022" gradientUnits="userSpaceOnUse">
<stop stop-color="#DD8008"/>
<stop offset="0.53" stop-color="#C75585"/>
<stop offset="1" stop-color="#D83C17"/>
</linearGradient>
<linearGradient id="paint1_linear_10293_2038" x1="104.44" y1="72.6412" x2="35.5482" y2="26.1017" gradientUnits="userSpaceOnUse">
<stop stop-color="#DD8008"/>
<stop offset="0.53" stop-color="#C75585"/>
<stop offset="1" stop-color="#D83C17"/>
</linearGradient>
<linearGradient id="paint2_linear_10293_2038" x1="74.5399" y1="24.0794" x2="111.79" y2="23.3636" gradientUnits="userSpaceOnUse">
<stop stop-color="#DD8008"/>
<stop offset="0.53" stop-color="#C75585"/>
<stop offset="1" stop-color="#D83C17"/>
</linearGradient>
</defs>
</svg>
