<svg width="138" height="119" viewBox="0 0 138 119" fill="none" xmlns="http://www.w3.org/2000/svg">
<path d="M59.16 0H59.15C26.4823 0 0 26.6368 0 59.495V59.505C0 92.3632 26.4823 119 59.15 119H59.16C91.8277 119 118.31 92.3632 118.31 59.505V59.495C118.31 26.6368 91.8277 0 59.16 0Z" fill="#F6F6F6"/>
<path d="M72.69 62.271C72.461 62.2736 72.2423 62.367 72.0813 62.5308C71.9203 62.6947 71.83 62.9157 71.83 63.1461V77.2277C71.8169 77.3498 71.8296 77.4734 71.8671 77.5902C71.9046 77.7071 71.9661 77.8147 72.0477 77.9061C72.1293 77.9975 72.2291 78.0706 72.3406 78.1206C72.4522 78.1706 72.5729 78.1965 72.695 78.1965C72.8171 78.1965 72.9379 78.1706 73.0494 78.1206C73.1609 78.0706 73.2607 77.9975 73.3423 77.9061C73.4239 77.8147 73.4854 77.7071 73.5229 77.5902C73.5604 77.4734 73.5731 77.3498 73.56 77.2277V63.1461C73.56 62.914 73.4683 62.6914 73.3052 62.5273C73.142 62.3632 72.9207 62.271 72.69 62.271Z" fill="url(#paint0_linear_10293_2040)"/>
<path d="M72.69 52.1523C72.4627 52.155 72.2455 52.2469 72.0848 52.4086C71.9241 52.5702 71.8326 52.7887 71.83 53.0173V59.4949C71.8169 59.617 71.8296 59.7405 71.8671 59.8574C71.9046 59.9743 71.9661 60.0819 72.0477 60.1733C72.1293 60.2647 72.2291 60.3378 72.3406 60.3878C72.4522 60.4378 72.5729 60.4637 72.695 60.4637C72.8171 60.4637 72.9379 60.4378 73.0494 60.3878C73.1609 60.3378 73.2607 60.2647 73.3423 60.1733C73.4239 60.0819 73.4854 59.9743 73.5229 59.8574C73.5604 59.7405 73.5731 59.617 73.56 59.4949V53.0173C73.5574 52.787 73.4645 52.567 73.3017 52.4051C73.1388 52.2432 72.919 52.1523 72.69 52.1523Z" fill="url(#paint1_linear_10293_2040)"/>
<path d="M118.91 77.4892V85.9684H82.45V42.5164C83.0034 42.8279 83.6259 42.994 84.26 42.9992C84.9209 42.9994 85.5706 42.8272 86.1455 42.4992C86.7204 42.1713 87.2009 41.699 87.54 41.1284C87.8942 41.7033 88.3891 42.1772 88.9773 42.5048C89.5656 42.8323 90.2276 43.0026 90.9 42.9992C91.5346 42.9963 92.1594 42.8415 92.7228 42.5477C93.2862 42.2539 93.772 41.8294 94.14 41.3094C94.513 41.8364 95.0067 42.2651 95.5795 42.5592C96.1522 42.8534 96.787 43.0043 97.43 42.9992C98.0589 42.9981 98.6792 42.8515 99.2427 42.5707C99.8063 42.2899 100.298 41.8824 100.68 41.3799C101.061 41.883 101.553 42.2908 102.117 42.5717C102.68 42.8526 103.301 42.9989 103.93 42.9992C104.573 43.0043 105.208 42.8534 105.781 42.5592C106.353 42.2651 106.847 41.8364 107.22 41.3094C107.588 41.8294 108.074 42.2539 108.637 42.5477C109.201 42.8415 109.825 42.9963 110.46 42.9992C111.133 43.0065 111.797 42.8379 112.386 42.51C112.974 42.182 113.469 41.706 113.82 41.1284C114.32 41.9832 115.132 42.6071 116.084 42.8666C117.035 43.1261 118.05 43.0003 118.91 42.5164V52.7055H120.69V41.0379L120.8 41.2189C121.198 41.8715 121.784 42.3871 122.48 42.6975V49.4667C122.467 49.5888 122.48 49.7124 122.517 49.8292C122.555 49.9461 122.616 50.0538 122.698 50.1451C122.779 50.2365 122.879 50.3096 122.991 50.3596C123.102 50.4096 123.223 50.4355 123.345 50.4355C123.467 50.4355 123.588 50.4096 123.699 50.3596C123.811 50.3096 123.911 50.2365 123.992 50.1451C124.074 50.0538 124.135 49.9461 124.173 49.8292C124.21 49.7124 124.223 49.5888 124.21 49.4667V42.9791C124.857 42.9206 125.475 42.6874 126.001 42.3041C126.526 41.9208 126.939 41.4017 127.195 40.8018C127.451 40.2019 127.542 39.5435 127.456 38.8963C127.371 38.2491 127.113 37.6371 126.71 37.1252L124.21 33.9467V28.133C124.21 26.5111 123.569 24.9556 122.429 23.8088C121.289 22.6619 119.743 22.0176 118.13 22.0176H83.33C81.7175 22.0176 80.171 22.6619 79.0308 23.8088C77.8906 24.9556 77.25 26.5111 77.25 28.133V33.9467L74.69 37.1252C74.2903 37.6388 74.0354 38.2512 73.9523 38.8981C73.8692 39.545 73.9609 40.2025 74.2177 40.8014C74.4745 41.4004 74.887 41.9187 75.4118 42.3019C75.9366 42.6851 76.5543 42.9191 77.2 42.9791V90.8668C77.2027 92.4879 77.8441 94.0418 78.9837 95.1881C80.1234 96.3344 81.6683 96.9796 83.28 96.9823H118.08C119.692 96.9796 121.237 96.3344 122.376 95.1881C123.516 94.0418 124.157 92.4879 124.16 90.8668V80.7381C124.173 80.6159 124.16 80.4924 124.123 80.3756C124.085 80.2587 124.024 80.1511 123.942 80.0597C123.861 79.9683 123.761 79.8952 123.649 79.8452C123.538 79.7952 123.417 79.7693 123.295 79.7693C123.173 79.7693 123.052 79.7952 122.941 79.8452C122.829 79.8952 122.729 79.9683 122.648 80.0597C122.566 80.1511 122.505 80.2587 122.467 80.3756C122.43 80.4924 122.417 80.6159 122.43 80.7381V90.8668C122.43 92.0272 121.972 93.1401 121.156 93.9607C120.34 94.7812 119.234 95.2422 118.08 95.2422H83.28C82.1263 95.2422 81.0199 94.7812 80.2041 93.9607C79.3883 93.1401 78.93 92.0272 78.93 90.8668V42.7176C79.6863 42.3689 80.313 41.7878 80.72 41.058V86.8837C80.72 86.9981 80.7426 87.1114 80.7864 87.2171C80.8303 87.3227 80.8945 87.4185 80.9754 87.4989C81.0563 87.5794 81.1523 87.6429 81.2578 87.6858C81.3633 87.7287 81.4762 87.75 81.59 87.7487H119.77C119.884 87.75 119.997 87.7287 120.102 87.6858C120.208 87.6429 120.304 87.5794 120.385 87.4989C120.466 87.4185 120.53 87.3227 120.574 87.2171C120.617 87.1114 120.64 86.9981 120.64 86.8837V77.5093M110.46 41.2994C109.934 41.2982 109.425 41.1143 109.019 40.7789C108.612 40.4434 108.334 39.9771 108.23 39.4587L106.51 30.6476H109.69L112.63 38.1209C112.768 38.4688 112.818 38.8454 112.776 39.2174C112.734 39.5894 112.602 39.9452 112.39 40.2533C112.179 40.5701 111.89 40.8277 111.553 41.0018C111.215 41.176 110.839 41.2611 110.46 41.2491V41.2994ZM114.46 30.6979V30.7482C117 35.023 118.57 37.6985 118.84 38.1813V40.2433C118.645 40.5876 118.357 40.8693 118.009 41.056C117.661 41.2427 117.268 41.3267 116.875 41.2983C116.482 41.2699 116.105 41.1303 115.787 40.8955C115.47 40.6608 115.224 40.3405 115.08 39.9717L113.16 35.0833C112.16 32.5889 111.68 31.3215 111.39 30.6979H114.46ZM119.31 30.6979L125.31 38.2618C125.536 38.5398 125.677 38.8785 125.714 39.236C125.752 39.5935 125.684 39.9541 125.52 40.2734C125.372 40.5947 125.135 40.8656 124.836 41.0532C124.538 41.2408 124.192 41.3368 123.84 41.3296C123.519 41.3222 123.204 41.2347 122.925 41.0749C122.646 40.9152 122.411 40.6881 122.24 40.4142L119.69 36.0691L119.54 35.8075C119.21 35.2141 118.41 33.8562 116.54 30.6376L119.31 30.6979ZM78.89 31.7943V28.133C78.89 26.9726 79.3483 25.8597 80.1641 25.0392C80.9799 24.2186 82.0863 23.7577 83.24 23.7577H118.04C119.194 23.7577 120.3 24.2186 121.116 25.0392C121.932 25.8597 122.39 26.9726 122.39 28.133V31.744L120.39 29.2294C120.309 29.1256 120.206 29.0418 120.088 28.9843C119.97 28.9267 119.841 28.897 119.71 28.8975H81.59C81.459 28.897 81.3297 28.9267 81.2118 28.9843C81.094 29.0418 80.9908 29.1256 80.91 29.2294L78.89 31.7943ZM75.8 40.2433C75.6359 39.924 75.5684 39.5633 75.6057 39.2058C75.643 38.8483 75.7836 38.5097 76.01 38.2316L82.01 30.6677H84.83L80.83 37.4873C80.59 37.8796 80.38 38.2517 80.19 38.6038C79.25 40.2634 78.68 41.2692 77.53 41.2692C77.1746 41.2754 76.8252 41.1768 76.5249 40.9855C76.2245 40.7943 75.9864 40.5187 75.84 40.193L75.8 40.2433ZM99.8 30.6979V38.9055C99.7964 39.2372 99.7243 39.5645 99.5882 39.8667C99.4521 40.1689 99.2551 40.4393 99.0096 40.6609C98.7642 40.8824 98.4756 41.0502 98.1622 41.1536C97.8489 41.2571 97.5176 41.2939 97.1893 41.2617C96.8611 41.2295 96.5431 41.129 96.2555 40.9667C95.9678 40.8044 95.7169 40.5837 95.5186 40.3187C95.3203 40.0536 95.1789 39.75 95.1034 39.4271C95.0279 39.1042 95.0199 38.769 95.08 38.4428L96.61 30.6979H99.8ZM94.8 30.6979C94.49 32.2871 93.16 39.0363 93.08 39.4587C92.9763 39.9771 92.6976 40.4434 92.2912 40.7789C91.8848 41.1143 91.3757 41.2982 90.85 41.2994C90.4784 41.3012 90.112 41.2113 89.783 41.0374C89.4541 40.8635 89.1725 40.6111 88.9632 40.3022C88.7539 39.9933 88.6232 39.6375 88.5825 39.266C88.5419 38.8944 88.5925 38.5185 88.73 38.1712L91.69 30.6476L94.8 30.6979ZM89.8 30.6979L89.2 32.2067C88.4417 33.8995 87.774 35.632 87.2 37.3968C86.26 40.0723 85.83 41.2994 84.2 41.2994C83.8298 41.3076 83.4645 41.2124 83.1449 41.0241C82.8253 40.8359 82.564 40.5621 82.39 40.2332V38.1612L86.79 30.6979H89.8ZM101.49 30.6979H104.68L106.2 38.4428C106.274 38.7936 106.268 39.1567 106.184 39.505C106.099 39.8533 105.937 40.1778 105.71 40.4545C105.399 40.8361 104.978 41.1116 104.505 41.2432C104.032 41.3749 103.53 41.3563 103.068 41.19C102.606 41.0238 102.207 40.7179 101.924 40.3143C101.642 39.9108 101.49 39.4292 101.49 38.9357V30.6979Z" fill="#222222"/>
<path d="M96.69 27.1975H104.69C104.811 27.2107 104.934 27.198 105.05 27.1602C105.167 27.1225 105.274 27.0606 105.364 26.9785C105.455 26.8965 105.528 26.7961 105.578 26.6839C105.627 26.5717 105.653 26.4503 105.653 26.3275C105.653 26.2047 105.627 26.0832 105.578 25.971C105.528 25.8589 105.455 25.7585 105.364 25.6764C105.274 25.5944 105.167 25.5324 105.05 25.4947C104.934 25.457 104.811 25.4443 104.69 25.4574H96.69C96.5686 25.4443 96.4458 25.457 96.3296 25.4947C96.2134 25.5324 96.1064 25.5944 96.0155 25.6764C95.9247 25.7585 95.852 25.8589 95.8023 25.971C95.7526 26.0832 95.7269 26.2047 95.7269 26.3275C95.7269 26.4503 95.7526 26.5717 95.8023 26.6839C95.852 26.7961 95.9247 26.8965 96.0155 26.9785C96.1064 27.0606 96.2134 27.1225 96.3296 27.1602C96.4458 27.198 96.5686 27.2107 96.69 27.1975Z" fill="#222222"/>
<path d="M107.45 27.1974C107.563 27.1988 107.676 27.1773 107.781 27.1343C107.886 27.0913 107.981 27.0277 108.061 26.9471C108.141 26.8665 108.205 26.7706 108.247 26.665C108.29 26.5595 108.311 26.4464 108.31 26.3324C108.287 26.1152 108.185 25.9143 108.023 25.7683C107.862 25.6223 107.652 25.5415 107.435 25.5415C107.218 25.5415 107.008 25.6223 106.847 25.7683C106.685 25.9143 106.583 26.1152 106.56 26.3324C106.561 26.4482 106.585 26.5626 106.631 26.6689C106.677 26.7752 106.743 26.8714 106.825 26.9519C106.908 27.0323 107.006 27.0955 107.113 27.1376C107.22 27.1798 107.335 27.2001 107.45 27.1974Z" fill="#222222"/>
<path d="M97.81 91.5508C97.81 92.1217 97.9783 92.6799 98.2937 93.1546C98.609 93.6293 99.0573 93.9993 99.5817 94.2178C100.106 94.4363 100.683 94.4935 101.24 94.3821C101.797 94.2707 102.308 93.9958 102.709 93.5921C103.111 93.1883 103.384 92.674 103.495 92.114C103.606 91.554 103.549 90.9736 103.332 90.4461C103.114 89.9186 102.746 89.4678 102.274 89.1506C101.803 88.8334 101.248 88.6641 100.68 88.6641C99.9188 88.6641 99.1888 88.9682 98.6506 89.5096C98.1124 90.0509 97.81 90.7852 97.81 91.5508ZM100.68 92.6874C100.456 92.6874 100.238 92.6207 100.052 92.4959C99.8664 92.371 99.7215 92.1934 99.636 91.9858C99.5505 91.7781 99.5281 91.5496 99.5717 91.3291C99.6153 91.1086 99.7229 90.9061 99.881 90.7471C100.039 90.5882 100.24 90.4799 100.46 90.4361C100.679 90.3922 100.906 90.4147 101.112 90.5007C101.319 90.5868 101.495 90.7324 101.62 90.9194C101.744 91.1063 101.81 91.326 101.81 91.5508C101.81 91.8505 101.692 92.1381 101.483 92.351C101.273 92.5638 100.988 92.6847 100.69 92.6874H100.68Z" fill="#222222"/>
<path d="M102.38 54.0937H104.3C104.598 54.0941 104.887 54.1926 105.124 54.3743C105.36 54.556 105.531 54.8108 105.61 55.0996L109.69 70.7201C109.153 70.9366 108.692 71.3081 108.364 71.7878C108.037 72.2675 107.858 72.8339 107.85 73.4158C107.849 73.8506 107.944 74.2801 108.129 74.673C108.315 75.0659 108.585 75.4122 108.92 75.6866C109.255 75.9609 109.647 76.1564 110.068 76.2587C110.488 76.3611 110.925 76.3676 111.348 76.2779C111.771 76.1882 112.169 76.0046 112.512 75.7404C112.855 75.4762 113.136 75.1381 113.332 74.7509C113.529 74.3638 113.637 73.9373 113.649 73.5026C113.661 73.068 113.576 72.6363 113.4 72.239H121.69C121.523 72.6085 121.438 73.01 121.44 73.4158C121.438 73.9935 121.607 74.5589 121.925 75.0401C122.242 75.5213 122.695 75.8967 123.226 76.1188C123.756 76.3408 124.34 76.3994 124.903 76.2872C125.467 76.175 125.984 75.8969 126.391 75.4884C126.797 75.0799 127.073 74.5592 127.185 73.9924C127.296 73.4257 127.238 72.8383 127.017 72.3049C126.797 71.7715 126.423 71.3161 125.945 70.9963C125.466 70.6766 124.904 70.5069 124.33 70.5089H111.37L111.01 69.141H124.42C124.753 69.1663 125.086 69.0819 125.367 68.9005C125.649 68.719 125.864 68.4504 125.98 68.1352C127.047 65.6407 128.123 63.1563 129.21 60.6819L130.45 57.8354C130.519 57.6657 130.546 57.4817 130.53 57.299C130.514 57.1164 130.454 56.9403 130.356 56.7856C130.258 56.6309 130.125 56.5021 129.967 56.41C129.809 56.3179 129.632 56.2652 129.45 56.2563H107.69L107.29 54.7375C107.134 54.0605 106.75 53.4586 106.203 53.0334C105.656 52.6083 104.981 52.3859 104.29 52.404H102.37C102.249 52.3908 102.126 52.4035 102.01 52.4412C101.893 52.479 101.786 52.5409 101.696 52.6229C101.605 52.705 101.532 52.8054 101.482 52.9176C101.433 53.0297 101.407 53.1512 101.407 53.274C101.407 53.3968 101.433 53.5183 101.482 53.6304C101.532 53.7426 101.605 53.843 101.696 53.925C101.786 54.0071 101.893 54.069 102.01 54.1068C102.126 54.1445 102.249 54.1572 102.37 54.144L102.38 54.0937ZM124.28 74.6027C124.047 74.6027 123.818 74.5331 123.624 74.4026C123.43 74.2722 123.279 74.0868 123.19 73.87C123.101 73.6531 123.077 73.4145 123.123 73.1842C123.168 72.954 123.281 72.7425 123.446 72.5765C123.611 72.4105 123.821 72.2975 124.05 72.2517C124.279 72.2059 124.516 72.2294 124.732 72.3192C124.947 72.4091 125.131 72.5612 125.261 72.7564C125.391 72.9516 125.46 73.181 125.46 73.4158C125.46 73.7306 125.336 74.0325 125.114 74.2551C124.893 74.4776 124.593 74.6027 124.28 74.6027ZM110.69 72.239C110.924 72.239 111.152 72.3088 111.347 72.4397C111.541 72.5706 111.692 72.7565 111.781 72.974C111.87 73.1915 111.893 73.4306 111.847 73.6611C111.8 73.8916 111.687 74.1031 111.521 74.2686C111.355 74.4342 111.144 74.5465 110.914 74.5911C110.684 74.6358 110.447 74.6108 110.231 74.5195C110.016 74.4281 109.832 74.2744 109.704 74.0779C109.576 73.8814 109.508 73.6509 109.51 73.4158C109.513 73.1027 109.638 72.8034 109.859 72.583C110.08 72.3626 110.379 72.239 110.69 72.239ZM108.09 57.936H128.48L124.39 67.3808H110.57L108.09 57.936Z" fill="url(#paint2_linear_10293_2040)"/>
<path d="M112.41 62.0198H123.41C123.531 62.0329 123.654 62.0202 123.77 61.9825C123.887 61.9448 123.994 61.8829 124.084 61.8008C124.175 61.7187 124.248 61.6183 124.298 61.5062C124.347 61.394 124.373 61.2726 124.373 61.1498C124.373 61.0269 124.347 60.9055 124.298 60.7933C124.248 60.6811 124.175 60.5808 124.084 60.4987C123.994 60.4166 123.887 60.3547 123.77 60.317C123.654 60.2793 123.531 60.2665 123.41 60.2797H112.41C112.289 60.2665 112.166 60.2793 112.05 60.317C111.933 60.3547 111.826 60.4166 111.736 60.4987C111.645 60.5808 111.572 60.6811 111.522 60.7933C111.473 60.9055 111.447 61.0269 111.447 61.1498C111.447 61.2726 111.473 61.394 111.522 61.5062C111.572 61.6183 111.645 61.7187 111.736 61.8008C111.826 61.8829 111.933 61.9448 112.05 61.9825C112.166 62.0202 112.289 62.0329 112.41 62.0198Z" fill="url(#paint3_linear_10293_2040)"/>
<path d="M123.44 63.317H112.44C112.319 63.3039 112.196 63.3166 112.08 63.3543C111.963 63.392 111.856 63.454 111.766 63.536C111.675 63.6181 111.602 63.7185 111.552 63.8306C111.503 63.9428 111.477 64.0643 111.477 64.1871C111.477 64.3099 111.503 64.4313 111.552 64.5435C111.602 64.6557 111.675 64.7561 111.766 64.8381C111.856 64.9202 111.963 64.9821 112.08 65.0198C112.196 65.0576 112.319 65.0703 112.44 65.0571H123.44C123.561 65.0703 123.684 65.0576 123.8 65.0198C123.917 64.9821 124.024 64.9202 124.114 64.8381C124.205 64.7561 124.278 64.6557 124.328 64.5435C124.377 64.4313 124.403 64.3099 124.403 64.1871C124.403 64.0643 124.377 63.9428 124.328 63.8306C124.278 63.7185 124.205 63.6181 124.114 63.536C124.024 63.454 123.917 63.392 123.8 63.3543C123.684 63.3166 123.561 63.3039 123.44 63.317Z" fill="url(#paint4_linear_10293_2040)"/>
<path d="M136.51 45.534H135.34V44.3672C135.313 44.0752 135.179 43.8038 134.963 43.6062C134.748 43.4086 134.467 43.2991 134.175 43.2991C133.883 43.2991 133.602 43.4086 133.387 43.6062C133.171 43.8038 133.037 44.0752 133.01 44.3672V45.534H131.85C131.56 45.561 131.29 45.6962 131.093 45.913C130.897 46.1297 130.788 46.4125 130.788 46.7058C130.788 46.9991 130.897 47.2818 131.093 47.4985C131.29 47.7153 131.56 47.8505 131.85 47.8776H133.01V49.0544C133.037 49.3464 133.171 49.6178 133.387 49.8154C133.602 50.013 133.883 50.1225 134.175 50.1225C134.467 50.1225 134.748 50.013 134.963 49.8154C135.179 49.6178 135.313 49.3464 135.34 49.0544V47.8776H136.51C136.8 47.8505 137.07 47.7153 137.267 47.4985C137.463 47.2818 137.572 46.9991 137.572 46.7058C137.572 46.4125 137.463 46.1297 137.267 45.913C137.07 45.6962 136.8 45.561 136.51 45.534Z" fill="url(#paint5_linear_10293_2040)"/>
<path d="M71.06 28.2638H69.9V27.0869C69.8731 26.7949 69.7387 26.5235 69.5232 26.3259C69.3077 26.1283 69.0266 26.0188 68.735 26.0188C68.4434 26.0188 68.1623 26.1283 67.9468 26.3259C67.7313 26.5235 67.5969 26.7949 67.57 27.0869V28.2638H66.4C66.0923 28.2638 65.7973 28.3867 65.5798 28.6055C65.3622 28.8243 65.24 29.1211 65.24 29.4305C65.24 29.74 65.3622 30.0367 65.5798 30.2556C65.7973 30.4744 66.0923 30.5973 66.4 30.5973H67.57V31.7741C67.5969 32.0662 67.7313 32.3376 67.9468 32.5351C68.1623 32.7327 68.4434 32.8423 68.735 32.8423C69.0266 32.8423 69.3077 32.7327 69.5232 32.5351C69.7387 32.3376 69.8731 32.0662 69.9 31.7741V30.6476H71.06C71.3676 30.6476 71.6627 30.5247 71.8802 30.3058C72.0978 30.087 72.22 29.7903 72.22 29.4808C72.22 29.1714 72.0978 28.8746 71.8802 28.6558C71.6627 28.437 71.3676 28.314 71.06 28.314V28.2638Z" fill="url(#paint6_linear_10293_2040)"/>
<defs>
<linearGradient id="paint0_linear_10293_2040" x1="59.7601" y1="84.862" x2="135.288" y2="0.376504" gradientUnits="userSpaceOnUse">
<stop stop-color="#DD8008"/>
<stop offset="0.53" stop-color="#C75585"/>
<stop offset="1" stop-color="#D83C17"/>
</linearGradient>
<linearGradient id="paint1_linear_10293_2040" x1="52.8802" y1="78.7163" x2="128.418" y2="-5.76907" gradientUnits="userSpaceOnUse">
<stop stop-color="#DD8008"/>
<stop offset="0.53" stop-color="#C75585"/>
<stop offset="1" stop-color="#D83C17"/>
</linearGradient>
<linearGradient id="paint2_linear_10293_2040" x1="67.74" y1="114.363" x2="159.25" y2="16.0808" gradientUnits="userSpaceOnUse">
<stop stop-color="#DD8008"/>
<stop offset="0.53" stop-color="#C75585"/>
<stop offset="1" stop-color="#D83C17"/>
</linearGradient>
<linearGradient id="paint3_linear_10293_2040" x1="68.39" y1="114.967" x2="159.9" y2="16.6847" gradientUnits="userSpaceOnUse">
<stop stop-color="#DD8008"/>
<stop offset="0.53" stop-color="#C75585"/>
<stop offset="1" stop-color="#D83C17"/>
</linearGradient>
<linearGradient id="paint4_linear_10293_2040" x1="69.9" y1="116.374" x2="161.409" y2="18.092" gradientUnits="userSpaceOnUse">
<stop stop-color="#DD8008"/>
<stop offset="0.53" stop-color="#C75585"/>
<stop offset="1" stop-color="#D83C17"/>
</linearGradient>
<linearGradient id="paint5_linear_10293_2040" x1="61.0099" y1="91.1785" x2="213.933" y2="-0.681787" gradientUnits="userSpaceOnUse">
<stop stop-color="#DD8008"/>
<stop offset="0.53" stop-color="#C75585"/>
<stop offset="1" stop-color="#D83C17"/>
</linearGradient>
<linearGradient id="paint6_linear_10293_2040" x1="-4.44012" y1="73.8983" x2="148.493" y2="-17.9619" gradientUnits="userSpaceOnUse">
<stop stop-color="#DD8008"/>
<stop offset="0.53" stop-color="#C75585"/>
<stop offset="1" stop-color="#D83C17"/>
</linearGradient>
</defs>
</svg>
