<svg width="140" height="119" viewBox="0 0 140 119" fill="none" xmlns="http://www.w3.org/2000/svg">
<path d="M59.16 0H59.15C26.4824 0 0 26.6368 0 59.495V59.505C0 92.3632 26.4824 119 59.15 119H59.16C91.8277 119 118.31 92.3632 118.31 59.505V59.495C118.31 26.6368 91.8277 0 59.16 0Z" fill="#F6F6F6"/>
<path d="M134.95 65.731L131.15 63.8098L128.42 55.5922C128.046 54.4237 127.312 53.4048 126.326 52.6819C125.339 51.9589 124.151 51.5693 122.93 51.5689H117.09L117.59 46.3084C117.665 45.5046 117.573 44.694 117.32 43.9277C117.067 43.1615 116.659 42.4564 116.122 41.8571C115.584 41.2577 114.928 40.777 114.197 40.4456C113.465 40.1141 112.673 39.939 111.87 39.9314H67.87C67.3581 39.9314 66.8672 40.1359 66.5052 40.5C66.1433 40.864 65.9399 41.3578 65.9399 41.8726C65.9399 42.3875 66.1433 42.8813 66.5052 43.2453C66.8672 43.6094 67.3581 43.8139 67.87 43.8139H111.87C112.139 43.8126 112.405 43.8681 112.651 43.9769C112.898 44.0857 113.118 44.2452 113.299 44.4453C113.48 44.6454 113.618 44.8815 113.702 45.1384C113.787 45.3952 113.817 45.667 113.79 45.9362L110.5 80.6676H94.8C94.6283 79.3862 94.0937 78.1816 93.26 77.1975C92.601 76.4424 91.7863 75.8407 90.8728 75.4343C89.9593 75.0278 88.9687 74.8263 87.97 74.8438C86.1941 74.8776 84.4701 75.4523 83.0258 76.492C81.5814 77.5318 80.4846 78.9877 79.88 80.6676H63.98C63.4681 80.6676 62.9772 80.8721 62.6152 81.2362C62.2533 81.6002 62.05 82.094 62.05 82.6088C62.05 83.1237 62.2533 83.6175 62.6152 83.9815C62.9772 84.3456 63.4681 84.5501 63.98 84.5501H79.5C79.68 85.831 80.2175 87.0342 81.05 88.0202C81.7109 88.7724 82.5259 89.3715 83.4392 89.7761C84.3525 90.1807 85.3422 90.3812 86.34 90.3638C88.1136 90.3316 89.8358 89.7586 91.2786 88.7205C92.7214 87.6823 93.8169 86.2281 94.42 84.5501H116.17C116.348 85.8285 116.886 87.0291 117.72 88.0102C118.379 88.7652 119.194 89.3669 120.107 89.7733C121.021 90.1798 122.011 90.3813 123.01 90.3638C124.785 90.3309 126.508 89.7577 127.952 88.7198C129.396 87.6819 130.494 86.2281 131.1 84.5501H135.4C135.846 84.5496 136.277 84.3941 136.622 84.1099C136.966 83.8257 137.202 83.4304 137.29 82.9911L139.22 73.2848C139.23 73.1609 139.23 73.0365 139.22 72.9126V72.6209C139.224 71.1796 138.828 69.7657 138.075 68.5392C137.322 67.3127 136.243 66.3226 134.96 65.6807L134.95 65.731ZM90.95 82.3775C90.7536 83.5028 90.1822 84.5273 89.3297 85.2823C88.4773 86.0374 87.3946 86.478 86.26 86.5316C85.8147 86.5465 85.3714 86.4643 84.9606 86.2907C84.5498 86.117 84.1811 85.8561 83.88 85.5258C83.5871 85.1682 83.3747 84.7511 83.2573 84.3032C83.1399 83.8552 83.1203 83.387 83.2 82.9307C83.3963 81.8054 83.9679 80.781 84.8203 80.0259C85.6728 79.2709 86.7554 78.8303 87.89 78.7766C88.3354 78.7618 88.7786 78.844 89.1895 79.0176C89.6003 79.1912 89.9689 79.4521 90.27 79.7825C90.5629 80.14 90.7753 80.5571 90.8927 81.005C91.0101 81.453 91.0296 81.9212 90.95 82.3775ZM122.89 55.4916C123.295 55.4903 123.691 55.6181 124.019 55.8566C124.348 56.0951 124.593 56.4321 124.72 56.8193L126.86 63.2466H115.95L116.68 55.4916H122.89ZM127.62 82.3775C127.424 83.5028 126.852 84.5273 126 85.2823C125.147 86.0374 124.065 86.478 122.93 86.5316C122.485 86.5465 122.041 86.4643 121.631 86.2907C121.22 86.117 120.851 85.8561 120.55 85.5258C120.257 85.1682 120.045 84.7511 119.927 84.3032C119.81 83.8552 119.79 83.387 119.87 82.9307C120.066 81.8054 120.638 80.781 121.49 80.0259C122.343 79.2709 123.425 78.8303 124.56 78.7766C125.005 78.7618 125.449 78.844 125.859 79.0176C126.27 79.1912 126.639 79.4521 126.94 79.7825C127.24 80.1367 127.46 80.5522 127.584 81.0003C127.708 81.4484 127.734 81.9183 127.66 82.3775H127.62ZM133.74 80.7078H131.4C131.22 79.427 130.683 78.2237 129.85 77.2377C129.191 76.4826 128.376 75.881 127.463 75.4745C126.549 75.0681 125.559 74.8666 124.56 74.8841C122.785 74.9156 121.061 75.4896 119.618 76.5298C118.175 77.57 117.08 79.0272 116.48 80.7078H114.29L115.58 67.1291H129.08L133.19 69.2011C133.831 69.5204 134.37 70.0136 134.746 70.6251C135.123 71.2367 135.321 71.942 135.32 72.6612L133.74 80.7078Z" fill="#222222"/>
<path d="M87.11 53.5505H63.9399C63.4281 53.5505 62.9373 53.3459 62.5753 52.9819C62.2134 52.6178 62.01 52.1241 62.01 51.6092C62.01 51.0944 62.2134 50.6006 62.5753 50.2365C62.9373 49.8725 63.4281 49.668 63.9399 49.668H87.11C87.6219 49.668 88.1128 49.8725 88.4747 50.2365C88.8367 50.6006 89.04 51.0944 89.04 51.6092C89.04 52.1241 88.8367 52.6178 88.4747 52.9819C88.1128 53.3459 87.6219 53.5505 87.11 53.5505Z" fill="#222222"/>
<path d="M83.26 72.9528H63.9399C63.4281 72.9528 62.9373 72.7483 62.5753 72.3842C62.2134 72.0202 62.01 71.5264 62.01 71.0116C62.01 70.4967 62.2134 70.0029 62.5753 69.6389C62.9373 69.2748 63.4281 69.0703 63.9399 69.0703H83.26C83.7719 69.0703 84.2628 69.2748 84.6248 69.6389C84.9867 70.0029 85.1899 70.4967 85.1899 71.0116C85.1899 71.5264 84.9867 72.0202 84.6248 72.3842C84.2628 72.7483 83.7719 72.9528 83.26 72.9528Z" fill="url(#paint0_linear_10293_2037)"/>
<path d="M50.6901 72.9528H39.1201C38.6082 72.9528 38.1173 72.7483 37.7553 72.3842C37.3934 72.0202 37.1901 71.5264 37.1901 71.0116C37.1901 70.4967 37.3934 70.0029 37.7553 69.6389C38.1173 69.2748 38.6082 69.0703 39.1201 69.0703H50.6901C51.2019 69.0703 51.6928 69.2748 52.0547 69.6389C52.4167 70.0029 52.6201 70.4967 52.6201 71.0116C52.6201 71.5264 52.4167 72.0202 52.0547 72.3842C51.6928 72.7483 51.2019 72.9528 50.6901 72.9528Z" fill="url(#paint1_linear_10293_2037)"/>
<path d="M79.4 63.2466H67.8C67.5356 63.2658 67.27 63.23 67.0199 63.1414C66.7698 63.0528 66.5406 62.9133 66.3464 62.7316C66.1523 62.5499 65.9975 62.33 65.8916 62.0854C65.7857 61.8409 65.7312 61.5771 65.7312 61.3104C65.7312 61.0437 65.7857 60.7799 65.8916 60.5354C65.9975 60.2908 66.1523 60.0709 66.3464 59.8892C66.5406 59.7075 66.7698 59.5681 67.0199 59.4795C67.27 59.3908 67.5356 59.355 67.8 59.3742H79.4C79.6645 59.355 79.93 59.3908 80.1801 59.4795C80.4301 59.5681 80.6594 59.7075 80.8535 59.8892C81.0476 60.0709 81.2025 60.2908 81.3083 60.5354C81.4142 60.7799 81.4689 61.0437 81.4689 61.3104C81.4689 61.5771 81.4142 61.8409 81.3083 62.0854C81.2025 62.33 81.0476 62.5499 80.8535 62.7316C80.6594 62.9133 80.4301 63.0528 80.1801 63.1414C79.93 63.23 79.6645 63.2658 79.4 63.2466Z" fill="url(#paint2_linear_10293_2037)"/>
<path d="M94.87 63.2466H87.15C86.8856 63.2658 86.62 63.23 86.3699 63.1414C86.1198 63.0528 85.8905 62.9133 85.6964 62.7316C85.5023 62.5499 85.3476 62.33 85.2417 62.0854C85.1358 61.8409 85.0812 61.5771 85.0812 61.3104C85.0812 61.0437 85.1358 60.7799 85.2417 60.5354C85.3476 60.2908 85.5023 60.0709 85.6964 59.8892C85.8905 59.7075 86.1198 59.5681 86.3699 59.4795C86.62 59.3908 86.8856 59.355 87.15 59.3742H94.87C95.1345 59.355 95.4001 59.3908 95.6501 59.4795C95.9002 59.5681 96.1294 59.7075 96.3235 59.8892C96.5176 60.0709 96.6725 60.2908 96.7783 60.5354C96.8842 60.7799 96.9388 61.0437 96.9388 61.3104C96.9388 61.5771 96.8842 61.8409 96.7783 62.0854C96.6725 62.33 96.5176 62.5499 96.3235 62.7316C96.1294 62.9133 95.9002 63.0528 95.6501 63.1414C95.4001 63.23 95.1345 63.2658 94.87 63.2466Z" fill="#222222"/>
<defs>
<linearGradient id="paint0_linear_10293_2037" x1="41.6101" y1="71.6251" x2="115.13" y2="70.2233" gradientUnits="userSpaceOnUse">
<stop stop-color="#DD8008"/>
<stop offset="0.53" stop-color="#C75585"/>
<stop offset="1" stop-color="#D83C17"/>
</linearGradient>
<linearGradient id="paint1_linear_10293_2037" x1="23.6101" y1="71.424" x2="72.5603" y2="70.4894" gradientUnits="userSpaceOnUse">
<stop stop-color="#DD8008"/>
<stop offset="0.53" stop-color="#C75585"/>
<stop offset="1" stop-color="#D83C17"/>
</linearGradient>
<linearGradient id="paint2_linear_10293_2037" x1="41.43" y1="61.929" x2="114.94" y2="60.5272" gradientUnits="userSpaceOnUse">
<stop stop-color="#DD8008"/>
<stop offset="0.53" stop-color="#C75585"/>
<stop offset="1" stop-color="#D83C17"/>
</linearGradient>
</defs>
</svg>
