<svg width="143" height="119" viewBox="0 0 143 119" fill="none" xmlns="http://www.w3.org/2000/svg">
<path d="M59.16 0H59.15C26.4824 0 0 26.6368 0 59.495V59.505C0 92.3632 26.4824 119 59.15 119H59.16C91.8276 119 118.31 92.3632 118.31 59.505V59.495C118.31 26.6368 91.8276 0 59.16 0Z" fill="#F6F6F6"/>
<path d="M114.06 68.0446C114.061 67.3534 113.927 66.6688 113.665 66.03C113.402 65.3911 113.017 64.8107 112.531 64.3219C112.045 63.8332 111.468 63.4458 110.833 63.1819C110.198 62.918 109.517 62.7828 108.83 62.7841H92L93.13 53.7317C93.14 53.6785 93.14 53.6239 93.13 53.5707C93.13 46.2885 88.01 44.3674 85.29 44.3674C84.991 44.3625 84.6991 44.4591 84.4615 44.6416C84.2238 44.8241 84.0542 45.0818 83.98 45.3732L78.75 63.6391C77.8728 65.3803 76.5107 66.8272 74.83 67.8032V66.7974C74.8314 66.624 74.7984 66.452 74.733 66.2916C74.6677 66.1311 74.5712 65.9853 74.4493 65.8627C74.3274 65.7401 74.1824 65.6431 74.0229 65.5774C73.8634 65.5116 73.6924 65.4784 73.52 65.4798H60.46C60.1126 65.4798 59.7794 65.6186 59.5337 65.8657C59.288 66.1128 59.15 66.448 59.15 66.7974V95.7252C59.1506 95.8977 59.1854 96.0685 59.2523 96.2274C59.3193 96.3863 59.4171 96.5301 59.54 96.6505C59.659 96.7751 59.8019 96.874 59.9601 96.9415C60.1182 97.0089 60.2883 97.0434 60.46 97.0428H73.53C73.8775 97.0428 74.2107 96.904 74.4563 96.6569C74.702 96.4098 74.84 96.0746 74.84 95.7252V94.84L82.33 97.0428H104.91C105.902 97.0293 106.869 96.7326 107.699 96.1872C108.529 95.6418 109.188 94.8703 109.599 93.9625C110.01 93.0547 110.156 92.0482 110.02 91.0602C109.884 90.0723 109.471 89.1436 108.83 88.3826C109.477 87.9906 110.032 87.4624 110.457 86.8341C110.882 86.2058 111.166 85.4925 111.29 84.7431C111.415 83.9938 111.376 83.2262 111.178 82.4932C110.979 81.7601 110.625 81.0791 110.14 80.4968C110.787 80.1049 111.342 79.5766 111.767 78.9484C112.191 78.3201 112.476 77.6067 112.6 76.8574C112.725 76.108 112.686 75.3405 112.488 74.6074C112.289 73.8744 111.935 73.1934 111.45 72.6111C112.235 72.1531 112.888 71.498 113.345 70.7099C113.803 69.9217 114.049 69.0276 114.06 68.115V68.0446ZM72.23 94.3371H61.77V68.0446H72.23V94.3371ZM104.91 94.3371H82.91L74.91 92.0337V70.5089C78.83 69.6037 81.2 64.9064 81.3 64.6852C81.3393 64.6108 81.3728 64.5334 81.4 64.4538L86.32 47.1233C87.85 47.4653 90.57 48.7327 90.6 53.5003L89.22 63.9408C89.2015 64.1216 89.2204 64.3043 89.2755 64.4774C89.3305 64.6505 89.4206 64.8103 89.54 64.9467C89.666 65.0875 89.8204 65.1997 89.9928 65.276C90.1652 65.3523 90.3517 65.3909 90.54 65.3892H108.84C109.197 65.367 109.555 65.4186 109.891 65.5407C110.228 65.6628 110.536 65.853 110.796 66.0994C111.057 66.3458 111.265 66.6433 111.407 66.9735C111.549 67.3038 111.622 67.6597 111.622 68.0195C111.622 68.3793 111.549 68.7353 111.407 69.0655C111.265 69.3957 111.057 69.6932 110.796 69.9396C110.536 70.186 110.228 70.3761 109.891 70.4983C109.555 70.6204 109.197 70.6719 108.84 70.6497H102.3C101.974 70.6785 101.67 70.8292 101.448 71.0722C101.227 71.3152 101.104 71.6328 101.104 71.9624C101.104 72.2919 101.227 72.6095 101.448 72.8525C101.67 73.0955 101.974 73.2462 102.3 73.275H107.53C107.99 73.2748 108.442 73.3965 108.841 73.6278C109.239 73.8591 109.57 74.1918 109.8 74.5926C110.026 74.9945 110.145 75.4485 110.145 75.9102C110.145 76.372 110.026 76.826 109.8 77.2279C109.569 77.6275 109.238 77.9588 108.84 78.1884C108.441 78.418 107.989 78.5377 107.53 78.5355H101C100.653 78.5355 100.319 78.6743 100.074 78.9214C99.828 79.1685 99.69 79.5037 99.69 79.8531C99.69 80.2026 99.828 80.5377 100.074 80.7848C100.319 81.0319 100.653 81.1708 101 81.1708H106.23C106.896 81.2122 107.52 81.5073 107.977 81.996C108.434 82.4848 108.688 83.1303 108.688 83.801C108.688 84.4718 108.434 85.1172 107.977 85.606C107.52 86.0947 106.896 86.3898 106.23 86.4312H99.68C99.499 86.4153 99.3167 86.4374 99.1447 86.4961C98.9727 86.5548 98.8147 86.6489 98.6807 86.7723C98.5468 86.8958 98.4398 87.0459 98.3666 87.2132C98.2935 87.3804 98.2557 87.5611 98.2557 87.7439C98.2557 87.9266 98.2935 88.1073 98.3666 88.2746C98.4398 88.4418 98.5468 88.5919 98.6807 88.7154C98.8147 88.8388 98.9727 88.9329 99.1447 88.9916C99.3167 89.0503 99.499 89.0724 99.68 89.0565H104.91C105.576 89.0979 106.2 89.393 106.657 89.8818C107.114 90.3705 107.368 91.016 107.368 91.6867C107.368 92.3575 107.114 93.003 106.657 93.4917C106.2 93.9804 105.576 94.2755 104.91 94.317V94.3371Z" fill="#222222"/>
<path d="M76.15 32.5387H77.46V33.8563C77.4886 34.1846 77.6384 34.4902 77.88 34.7128C78.1216 34.9354 78.4373 35.0589 78.765 35.0589C79.0926 35.0589 79.4083 34.9354 79.6499 34.7128C79.8915 34.4902 80.0414 34.1846 80.07 33.8563V32.5387H81.38C81.7274 32.5387 82.0606 32.3998 82.3063 32.1527C82.552 31.9056 82.69 31.5705 82.69 31.221C82.69 30.8716 82.552 30.5364 82.3063 30.2893C82.0606 30.0422 81.7274 29.9034 81.38 29.9034H80.07V28.636C80.0858 28.454 80.0639 28.2706 80.0055 28.0976C79.9471 27.9246 79.8536 27.7656 79.7309 27.6309C79.6081 27.4962 79.4589 27.3886 79.2926 27.315C79.1263 27.2414 78.9466 27.2034 78.765 27.2034C78.5833 27.2034 78.4036 27.2414 78.2373 27.315C78.0711 27.3886 77.9218 27.4962 77.7991 27.6309C77.6764 27.7656 77.5828 27.9246 77.5245 28.0976C77.4661 28.2706 77.4441 28.454 77.46 28.636V29.9436H76.15C75.8025 29.9436 75.4693 30.0824 75.2237 30.3295C74.978 30.5766 74.84 30.9118 74.84 31.2612C74.84 31.6107 74.978 31.9459 75.2237 32.193C75.4693 32.4401 75.8025 32.5789 76.15 32.5789V32.5387Z" fill="url(#paint0_linear_10293_2041)"/>
<path d="M129.75 78.5557H128.44V77.2481C128.44 76.8986 128.302 76.5635 128.056 76.3164C127.811 76.0692 127.477 75.9304 127.13 75.9304C126.783 75.9304 126.449 76.0692 126.204 76.3164C125.958 76.5635 125.82 76.8986 125.82 77.2481V78.5557H124.52C124.173 78.5557 123.839 78.6945 123.594 78.9416C123.348 79.1887 123.21 79.5238 123.21 79.8733C123.21 80.2228 123.348 80.5579 123.594 80.805C123.839 81.0521 124.173 81.1909 124.52 81.1909H125.82V82.5086C125.82 82.858 125.958 83.1932 126.204 83.4403C126.449 83.6874 126.783 83.8262 127.13 83.8262C127.477 83.8262 127.811 83.6874 128.056 83.4403C128.302 83.1932 128.44 82.858 128.44 82.5086V81.1909H129.75C130.097 81.1909 130.431 81.0521 130.676 80.805C130.922 80.5579 131.06 80.2228 131.06 79.8733C131.06 79.5238 130.922 79.1887 130.676 78.9416C130.431 78.6945 130.097 78.5557 129.75 78.5557Z" fill="url(#paint1_linear_10293_2041)"/>
<path d="M114.06 12.8142C106.437 12.8115 99.1245 15.8543 93.7313 21.2733C88.338 26.6924 85.3053 34.0441 85.3 41.7118C85.2841 41.8938 85.3061 42.0772 85.3645 42.2502C85.4228 42.4232 85.5164 42.5822 85.6391 42.7169C85.7618 42.8516 85.9111 42.9592 86.0773 43.0328C86.2436 43.1064 86.4233 43.1444 86.605 43.1444C86.7867 43.1444 86.9663 43.1064 87.1326 43.0328C87.2989 42.9592 87.4481 42.8516 87.5709 42.7169C87.6936 42.5822 87.7871 42.4232 87.8455 42.2502C87.9039 42.0772 87.9258 41.8938 87.91 41.7118C87.9181 36.7266 89.3352 31.8464 91.9958 27.6405C94.6565 23.4345 98.4512 20.076 102.937 17.9567C107.423 15.8374 112.416 15.0446 117.333 15.6707C122.25 16.2969 126.889 18.3162 130.708 21.4931C134.528 24.6701 137.371 28.8738 138.905 33.614C140.44 38.3542 140.603 43.4356 139.376 48.2655C138.149 53.0955 135.581 57.4749 131.974 60.8932C128.366 64.3115 123.867 66.6277 119 67.5717C118.829 67.5882 118.662 67.6385 118.51 67.7197C118.358 67.801 118.223 67.9115 118.114 68.0451C118.004 68.1786 117.922 68.3326 117.871 68.4982C117.821 68.6637 117.804 68.8377 117.82 69.0101C117.836 69.1824 117.886 69.3499 117.967 69.5028C118.048 69.6557 118.158 69.7912 118.291 69.9014C118.423 70.0116 118.576 70.0944 118.741 70.1451C118.906 70.1958 119.079 70.2135 119.25 70.1969H119.5C126.528 68.8342 132.798 64.8846 137.085 59.12C141.373 53.3553 143.369 46.1899 142.684 39.0238C141.999 31.8578 138.682 25.2062 133.381 20.3687C128.081 15.5312 121.177 12.8555 114.02 12.8645L114.06 12.8142Z" fill="#222222"/>
<path d="M123.21 45.544C123.211 44.4693 123.002 43.4049 122.594 42.4116C122.186 41.4183 121.587 40.5156 120.832 39.7552C120.077 38.9948 119.181 38.3916 118.194 37.98C117.207 37.5684 116.149 37.3566 115.08 37.3566H113.08C112.54 37.3566 112.023 37.1409 111.641 36.7571C111.259 36.3732 111.045 35.8526 111.045 35.3097C111.045 34.7668 111.259 34.2462 111.641 33.8624C112.023 33.4785 112.54 33.2628 113.08 33.2628H120.2C121.009 33.2628 121.785 32.9396 122.357 32.3643C122.929 31.789 123.25 31.0087 123.25 30.195C123.25 29.3814 122.929 28.6011 122.357 28.0258C121.785 27.4505 121.009 27.1273 120.2 27.1273H117.2V24.0595C117.201 23.9247 117.175 23.7911 117.123 23.6667C117.072 23.5423 116.996 23.4296 116.9 23.3353C116.805 23.2408 116.693 23.1664 116.569 23.1163C116.446 23.0662 116.313 23.0415 116.18 23.0436H112C111.735 23.0436 111.48 23.1496 111.293 23.3382C111.105 23.5268 111 23.7826 111 24.0494V27.3888C109.088 27.887 107.422 29.0681 106.313 30.7114C105.204 32.3548 104.727 34.3481 104.972 36.3191C105.217 38.29 106.167 40.104 107.644 41.4221C109.121 42.7403 111.025 43.4725 113 43.4821H115C115.54 43.4821 116.057 43.6978 116.439 44.0816C116.821 44.4655 117.035 44.9861 117.035 45.529C117.035 46.0718 116.821 46.5924 116.439 46.9763C116.057 47.3602 115.54 47.5758 115 47.5758H108C107.191 47.5758 106.415 47.899 105.843 48.4744C105.271 49.0497 104.95 49.83 104.95 50.6436C104.95 51.4572 105.271 52.2376 105.843 52.8129C106.415 53.3882 107.191 53.7114 108 53.7114H111V56.7993C111 57.0661 111.105 57.3219 111.293 57.5105C111.48 57.6992 111.735 57.8051 112 57.8051H116.06C116.325 57.8051 116.58 57.6992 116.767 57.5105C116.955 57.3219 117.06 57.0661 117.06 56.7993V53.47C118.804 53.0158 120.35 51.9921 121.454 50.5596C122.558 49.1271 123.158 47.3666 123.16 45.5541L123.21 45.544ZM115.95 51.579C115.708 51.611 115.486 51.7308 115.326 51.9161C115.165 52.1014 115.078 52.3393 115.08 52.5849V55.7935H113.08V52.7257C113.08 52.4589 112.975 52.2031 112.787 52.0145C112.6 51.8258 112.345 51.7199 112.08 51.7199H108C107.735 51.7199 107.48 51.6139 107.293 51.4252C107.105 51.2366 107 50.9808 107 50.714C107 50.4473 107.105 50.1914 107.293 50.0028C107.48 49.8142 107.735 49.7082 108 49.7082H115.12C115.671 49.7357 116.221 49.6503 116.738 49.4572C117.255 49.2642 117.728 48.9674 118.127 48.5851C118.527 48.2027 118.845 47.7426 119.062 47.2328C119.28 46.7231 119.392 46.1742 119.392 45.6195C119.392 45.0648 119.28 44.5159 119.062 44.0061C118.845 43.4963 118.527 43.0363 118.127 42.6539C117.728 42.2716 117.255 41.9748 116.738 41.7817C116.221 41.5887 115.671 41.5033 115.12 41.5308H113.12C111.586 41.5181 110.114 40.9249 108.996 39.8692C107.877 38.8135 107.195 37.373 107.086 35.8343C106.976 34.2957 107.447 32.772 108.404 31.5666C109.361 30.3613 110.734 29.5627 112.25 29.33C112.492 29.2981 112.714 29.1782 112.874 28.9929C113.035 28.8076 113.122 28.5698 113.12 28.3242V25.186H115.12V28.2538C115.12 28.5205 115.225 28.7764 115.413 28.965C115.6 29.1536 115.855 29.2596 116.12 29.2596H120.19C120.455 29.2596 120.71 29.3656 120.897 29.5542C121.085 29.7428 121.19 29.9987 121.19 30.2654C121.19 30.5322 121.085 30.7881 120.897 30.9767C120.71 31.1653 120.455 31.2713 120.19 31.2713H113C111.921 31.2713 110.885 31.7026 110.122 32.4703C109.359 33.238 108.93 34.2793 108.93 35.365C108.93 36.4508 109.359 37.492 110.122 38.2597C110.885 39.0275 111.921 39.4588 113 39.4588H115C116.534 39.4714 118.006 40.0647 119.124 41.1203C120.243 42.176 120.925 43.6166 121.034 45.1552C121.144 46.6938 120.673 48.2176 119.716 49.4229C118.759 50.6283 117.386 51.4268 115.87 51.6595L115.95 51.579Z" fill="url(#paint2_linear_10293_2041)"/>
<defs>
<linearGradient id="paint0_linear_10293_2041" x1="10.6399" y1="72.621" x2="182.331" y2="-30.5084" gradientUnits="userSpaceOnUse">
<stop stop-color="#DD8008"/>
<stop offset="0.53" stop-color="#C75585"/>
<stop offset="1" stop-color="#D83C17"/>
</linearGradient>
<linearGradient id="paint1_linear_10293_2041" x1="44.98" y1="129.793" x2="216.681" y2="26.6636" gradientUnits="userSpaceOnUse">
<stop stop-color="#DD8008"/>
<stop offset="0.53" stop-color="#C75585"/>
<stop offset="1" stop-color="#D83C17"/>
</linearGradient>
<linearGradient id="paint2_linear_10293_2041" x1="44.11" y1="82.9308" x2="177.653" y2="2.71917" gradientUnits="userSpaceOnUse">
<stop stop-color="#DD8008"/>
<stop offset="0.53" stop-color="#C75585"/>
<stop offset="1" stop-color="#D83C17"/>
</linearGradient>
</defs>
</svg>
