<svg width="119" height="119" viewBox="0 0 119 119" fill="none" xmlns="http://www.w3.org/2000/svg">
<path d="M59.16 0H59.15C26.4823 0 0 26.6368 0 59.495V59.505C0 92.3632 26.4823 119 59.15 119H59.16C91.8277 119 118.31 92.3632 118.31 59.505V59.495C118.31 26.6368 91.8277 0 59.16 0Z" fill="#F6F6F6"/>
<path d="M104.18 34.6108H86.9L78.43 26.4635C78.1904 26.2252 77.867 26.0916 77.53 26.0916C77.193 26.0916 76.8696 26.2252 76.63 26.4635L67.27 34.6711H50.71C50.3543 34.6788 50.0154 34.8244 49.7639 35.0774C49.5123 35.3304 49.3676 35.6713 49.36 36.029V72.239C49.3542 72.4507 49.4004 72.6607 49.4946 72.8502C49.5888 73.0397 49.728 73.2028 49.9 73.3252L76.63 94.6087C76.8637 94.7849 77.1479 94.8802 77.44 94.8802C77.7321 94.8802 78.0163 94.7849 78.25 94.6087L104.98 73.7276C105.152 73.6052 105.291 73.442 105.385 73.2525C105.48 73.063 105.526 72.8531 105.52 72.6413V35.9686C105.53 35.7877 105.502 35.6066 105.438 35.4372C105.374 35.2678 105.275 35.114 105.147 34.9858C105.02 34.8577 104.867 34.758 104.698 34.6933C104.53 34.6287 104.35 34.6006 104.17 34.6108H104.18ZM102.83 71.8266L77.44 91.742L52.06 71.4645V37.3265H67.72C67.8871 37.335 68.0541 37.3071 68.2094 37.2446C68.3648 37.1821 68.5048 37.0865 68.62 36.9644L77.44 29.2698L85.44 36.9644C85.6818 37.1982 86.0046 37.3281 86.34 37.3265H102.9V71.8266H102.83Z" fill="#222222"/>
<path d="M106.67 19.1813C106.636 19.0857 106.573 19.0028 106.491 18.9436C106.409 18.8843 106.311 18.8515 106.21 18.8494C106.108 18.8485 106.009 18.8802 105.926 18.9399C105.843 18.9995 105.782 19.0841 105.75 19.1813L105.62 19.5836C105.303 20.5708 104.683 21.4315 103.85 22.0423C103.016 22.6531 102.011 22.9826 100.98 22.9834H100.56C100.459 22.984 100.36 23.0163 100.277 23.0757C100.195 23.1352 100.133 23.2189 100.1 23.3153C100.067 23.4129 100.065 23.5183 100.093 23.6172C100.122 23.7161 100.18 23.8039 100.26 23.8685L100.62 24.13C101.454 24.7352 102.076 25.5911 102.396 26.5743C102.716 27.5576 102.717 28.6176 102.4 29.6017L102.27 30.0141C102.238 30.1133 102.236 30.22 102.264 30.3204C102.293 30.4208 102.35 30.5103 102.43 30.5774C102.515 30.6418 102.618 30.6767 102.725 30.6767C102.831 30.6767 102.935 30.6418 103.02 30.5774L103.38 30.3159C104.211 29.7075 105.212 29.3798 106.24 29.3798C107.268 29.3798 108.269 29.7075 109.1 30.3159L109.46 30.5774C109.543 30.6419 109.645 30.6772 109.75 30.678C109.829 30.678 109.907 30.6589 109.977 30.6221C110.047 30.5854 110.107 30.5321 110.152 30.4669C110.198 30.4017 110.226 30.3265 110.236 30.2476C110.246 30.1688 110.237 30.0887 110.21 30.0141L110.08 29.6017C109.766 28.6173 109.769 27.5584 110.089 26.5758C110.408 25.5933 111.028 24.7373 111.86 24.13L112.22 23.8685C112.3 23.8039 112.358 23.7161 112.386 23.6172C112.415 23.5183 112.413 23.4129 112.38 23.3153C112.347 23.2189 112.285 23.1352 112.202 23.0757C112.12 23.0163 112.021 22.984 111.92 22.9834H111.44C110.414 22.984 109.413 22.6586 108.582 22.0535C107.75 21.4484 107.13 20.5945 106.81 19.6138L106.67 19.1813Z" fill="url(#paint0_linear_10293_2039)"/>
<path d="M100.25 3.49018C100.237 3.44947 100.212 3.41389 100.178 3.38858C100.144 3.36327 100.102 3.34953 100.06 3.34937C100.018 3.35099 99.9773 3.36528 99.9434 3.39039C99.9095 3.4155 99.8839 3.45026 99.8699 3.49018V3.66117C99.7424 4.07672 99.4845 4.43953 99.1347 4.69521C98.785 4.9509 98.3623 5.08569 97.9299 5.0794H97.7599C97.7187 5.07885 97.6784 5.09111 97.6443 5.11451C97.6103 5.13792 97.5844 5.17133 97.5699 5.21016C97.5551 5.25114 97.5539 5.29585 97.5665 5.33758C97.5792 5.3793 97.6049 5.41578 97.6399 5.4415L97.7799 5.55214C98.1309 5.8021 98.3925 6.15922 98.5258 6.57051C98.6591 6.9818 98.657 7.42536 98.5199 7.83538V8.00637C98.5051 8.04735 98.5039 8.09208 98.5165 8.13381C98.5291 8.17553 98.5549 8.21199 98.5899 8.23771C98.6229 8.2674 98.6656 8.28381 98.7099 8.28381C98.7542 8.28381 98.7969 8.2674 98.8299 8.23771L98.9799 8.12707C99.3288 7.87712 99.7466 7.74281 100.175 7.74281C100.603 7.74281 101.021 7.87712 101.37 8.12707L101.52 8.23771C101.555 8.26383 101.597 8.27794 101.64 8.27794C101.683 8.27794 101.725 8.26383 101.76 8.23771C101.795 8.21199 101.821 8.17553 101.833 8.13381C101.846 8.09208 101.845 8.04735 101.83 8.00637V7.83538C101.693 7.42536 101.691 6.9818 101.824 6.57051C101.957 6.15922 102.219 5.8021 102.57 5.55214L102.71 5.4415C102.745 5.41578 102.771 5.3793 102.783 5.33758C102.796 5.29585 102.795 5.25114 102.78 5.21016C102.765 5.17133 102.74 5.13792 102.706 5.11451C102.671 5.09111 102.631 5.07885 102.59 5.0794H102.39C101.961 5.08417 101.541 4.94982 101.193 4.69622C100.846 4.44263 100.589 4.08323 100.46 3.67122L100.25 3.49018Z" fill="url(#paint1_linear_10293_2039)"/>
<path d="M49.63 80.8687C49.5459 80.9724 49.4833 81.0921 49.4458 81.2205C49.4083 81.3489 49.3966 81.4836 49.4115 81.6167C49.4264 81.7497 49.4675 81.8784 49.5325 81.9952C49.5975 82.112 49.6851 82.2146 49.79 82.297L62.47 92.5263C62.5723 92.6098 62.6899 92.6722 62.8163 92.7099C62.9426 92.7475 63.0751 92.7597 63.2062 92.7457C63.3372 92.7317 63.4642 92.6917 63.5798 92.6282C63.6955 92.5646 63.7975 92.4787 63.88 92.3754C63.9646 92.2722 64.0279 92.1532 64.0662 92.0251C64.1045 91.897 64.1171 91.7626 64.1031 91.6296C64.0892 91.4966 64.0489 91.3677 63.9849 91.2506C63.9208 91.1334 63.8342 91.0302 63.73 90.9471L51.05 80.7178C50.9474 80.6327 50.829 80.569 50.7017 80.5305C50.5744 80.4919 50.4407 80.4793 50.3085 80.4934C50.1762 80.5074 50.0481 80.5478 49.9316 80.6123C49.8151 80.6767 49.7126 80.7639 49.63 80.8687Z" fill="url(#paint2_linear_10293_2039)"/>
<path d="M44.26 44.2163C43.9948 44.2163 43.7404 44.3223 43.5529 44.5109C43.3653 44.6996 43.26 44.9554 43.26 45.2221L43.2 52.7458C43.2 53.0125 43.3053 53.2684 43.4929 53.457C43.6804 53.6456 43.9347 53.7516 44.2 53.7516C44.4652 53.7516 44.7196 53.6456 44.9071 53.457C45.0946 53.2684 45.2 53.0125 45.2 52.7458L45.26 45.2322C45.2613 45.0993 45.2364 44.9674 45.1868 44.8442C45.1371 44.721 45.0636 44.6089 44.9706 44.5145C44.8777 44.42 44.7669 44.345 44.645 44.2938C44.523 44.2427 44.3922 44.2163 44.26 44.2163Z" fill="#222222"/>
<path d="M78.31 47.2139C78.2484 47.0387 78.1348 46.8869 77.9845 46.7789C77.8343 46.671 77.6546 46.6121 77.4699 46.6104C77.2866 46.6127 77.1086 46.672 76.96 46.78C76.8114 46.888 76.6996 47.0395 76.6399 47.2139L74.42 54.144H67.17C66.9853 54.1458 66.8056 54.2046 66.6554 54.3126C66.5051 54.4206 66.3915 54.5724 66.3299 54.7475C66.2755 54.9262 66.2749 55.1172 66.3283 55.2962C66.3817 55.4752 66.4867 55.6343 66.63 55.7534L72.5 60.0382L70.2799 66.9684C70.2255 67.1471 70.225 67.338 70.2784 67.5171C70.3318 67.6961 70.4367 67.8552 70.5799 67.9742C70.7357 68.0917 70.9252 68.1553 71.12 68.1553C71.3147 68.1553 71.5042 68.0917 71.6599 67.9742L77.5299 63.6894L83.4099 67.9742C83.5687 68.0859 83.7563 68.1488 83.9499 68.1553C84.1411 68.1524 84.3266 68.0891 84.48 67.9742C84.6232 67.8552 84.7281 67.6961 84.7815 67.5171C84.8349 67.338 84.8344 67.1471 84.7799 66.9684L82.57 60.0382L88.44 55.7534C88.5832 55.6343 88.6882 55.4752 88.7416 55.2962C88.7949 55.1172 88.7944 54.9262 88.74 54.7475C88.6784 54.5724 88.5648 54.4206 88.4145 54.3126C88.2643 54.2046 88.0846 54.1458 87.8999 54.144H80.5899L78.31 47.2139ZM80.8899 59.0324C80.7467 59.1514 80.6418 59.3105 80.5884 59.4896C80.535 59.6686 80.5355 59.8595 80.5899 60.0382L82.1499 64.9165L78.01 61.899C77.8512 61.7873 77.6636 61.7244 77.4699 61.718C77.2788 61.7208 77.0933 61.7842 76.94 61.899L72.8 64.9165L74.36 60.0382C74.4144 59.8595 74.4149 59.6686 74.3615 59.4896C74.3082 59.3105 74.2032 59.1514 74.06 59.0324L69.92 56.0149H75.0799C75.2646 56.0131 75.4443 55.9543 75.5945 55.8463C75.7448 55.7383 75.8584 55.5865 75.92 55.4114L77.4699 50.5331L79.0299 55.4114C79.0915 55.5865 79.2051 55.7383 79.3554 55.8463C79.5057 55.9543 79.6853 56.0131 79.87 56.0149H84.98L80.8899 59.0324Z" fill="url(#paint3_linear_10293_2039)"/>
<defs>
<linearGradient id="paint0_linear_10293_2039" x1="100.08" y1="24.7637" x2="112.41" y2="24.7637" gradientUnits="userSpaceOnUse">
<stop stop-color="#DD8008"/>
<stop offset="0.53" stop-color="#C75585"/>
<stop offset="1" stop-color="#D83C17"/>
</linearGradient>
<linearGradient id="paint1_linear_10293_2039" x1="97.5099" y1="5.81365" x2="102.64" y2="5.81365" gradientUnits="userSpaceOnUse">
<stop stop-color="#DD8008"/>
<stop offset="0.53" stop-color="#C75585"/>
<stop offset="1" stop-color="#D83C17"/>
</linearGradient>
<linearGradient id="paint2_linear_10293_2039" x1="60.5165" y1="109.162" x2="38.374" y2="-20.7917" gradientUnits="userSpaceOnUse">
<stop stop-color="#DD8008"/>
<stop offset="0.53" stop-color="#C75585"/>
<stop offset="1" stop-color="#D83C17"/>
</linearGradient>
<linearGradient id="paint3_linear_10293_2039" x1="66.2799" y1="57.4029" x2="88.79" y2="57.4029" gradientUnits="userSpaceOnUse">
<stop stop-color="#DD8008"/>
<stop offset="0.53" stop-color="#C75585"/>
<stop offset="1" stop-color="#D83C17"/>
</linearGradient>
</defs>
</svg>
